<svg width="43" height="42" viewBox="0 0 43 42" fill="none" xmlns="http://www.w3.org/2000/svg">
<g id="Frame">
<path id="Vector" d="M5.5 36.75C4.5375 36.75 3.71354 36.4073 3.02812 35.7219C2.34271 35.0365 2 34.2125 2 33.25V12.25C2 11.7542 2.16771 11.3385 2.50313 11.0031C2.83854 10.6677 3.25417 10.5 3.75 10.5C4.24583 10.5 4.66146 10.6677 4.99688 11.0031C5.33229 11.3385 5.5 11.7542 5.5 12.25V33.25H33.5C33.9958 33.25 34.4115 33.4177 34.7469 33.7531C35.0823 34.0885 35.25 34.5042 35.25 35C35.25 35.4958 35.0823 35.9115 34.7469 36.2469C34.4115 36.5823 33.9958 36.75 33.5 36.75H5.5ZM12.5 29.75C11.5375 29.75 10.7135 29.4073 10.0281 28.7219C9.34271 28.0365 9 27.2125 9 26.25V7C9 6.0375 9.34271 5.21354 10.0281 4.52812C10.7135 3.84271 11.5375 3.5 12.5 3.5H19.8062C20.2729 3.5 20.7177 3.5875 21.1406 3.7625C21.5635 3.9375 21.9354 4.18542 22.2563 4.50625L24.75 7H37C37.9625 7 38.7865 7.34271 39.4719 8.02812C40.1573 8.71354 40.5 9.5375 40.5 10.5V26.25C40.5 27.2125 40.1573 28.0365 39.4719 28.7219C38.7865 29.4073 37.9625 29.75 37 29.75H12.5ZM12.5 26.25H37V10.5H23.3062L19.8062 7H12.5V26.25ZM23.4375 20.125L21.425 17.5C21.25 17.2667 21.0167 17.15 20.725 17.15C20.4333 17.15 20.2 17.2667 20.025 17.5L17.0938 21.35C16.8604 21.6417 16.824 21.9479 16.9844 22.2687C17.1448 22.5896 17.4146 22.75 17.7937 22.75H31.7062C32.0854 22.75 32.3552 22.5896 32.5156 22.2687C32.676 21.9479 32.6396 21.6417 32.4062 21.35L28.1625 15.7937C27.9875 15.5604 27.7542 15.4437 27.4625 15.4437C27.1708 15.4437 26.9375 15.5604 26.7625 15.7937L23.4375 20.125Z" fill="#FFCC80"/>
</g>
</svg>
