<svg width="43" height="42" viewBox="0 0 43 42" fill="none" xmlns="http://www.w3.org/2000/svg">
<g id="Frame">
<path id="Vector" d="M34 33.25H14.75C13.7875 33.25 12.9635 32.9073 12.2781 32.2219C11.5927 31.5365 11.25 30.7125 11.25 29.75V5.25C11.25 4.2875 11.5927 3.46354 12.2781 2.77812C12.9635 2.09271 13.7875 1.75 14.75 1.75H25.5562C26.0229 1.75 26.4677 1.8375 26.8906 2.0125C27.3135 2.1875 27.6854 2.43542 28.0063 2.75625L36.4937 11.2437C36.8146 11.5646 37.0625 11.9365 37.2375 12.3594C37.4125 12.7823 37.5 13.2271 37.5 13.6937V29.75C37.5 30.7125 37.1573 31.5365 36.4719 32.2219C35.7865 32.9073 34.9625 33.25 34 33.25ZM34 14H27.875C27.1458 14 26.526 13.7448 26.0156 13.2344C25.5052 12.724 25.25 12.1042 25.25 11.375V5.25H14.75V29.75H34V14ZM7.75 40.25C6.7875 40.25 5.96354 39.9073 5.27812 39.2219C4.59271 38.5365 4.25 37.7125 4.25 36.75V14C4.25 13.5042 4.41771 13.0885 4.75313 12.7531C5.08854 12.4177 5.50417 12.25 6 12.25C6.49583 12.25 6.91146 12.4177 7.24688 12.7531C7.58229 13.0885 7.75 13.5042 7.75 14V36.75H25.25C25.7458 36.75 26.1615 36.9177 26.4969 37.2531C26.8323 37.5885 27 38.0042 27 38.5C27 38.9958 26.8323 39.4115 26.4969 39.7469C26.1615 40.0823 25.7458 40.25 25.25 40.25H7.75Z" fill="#FFCC80"/>
</g>
</svg>
