<svg width="20" height="20" viewBox="0 0 20 20" fill="none" xmlns="http://www.w3.org/2000/svg">
<path d="M12.4791 7.52085C12.7708 7.81252 13.0069 8.16322 13.1875 8.57294C13.368 8.98266 13.4722 9.40974 13.5 9.85419C13.5 10.0625 13.4257 10.2396 13.2771 10.3854C13.1283 10.5313 12.9526 10.6042 12.75 10.6042C12.5358 10.6042 12.3538 10.5313 12.2039 10.3854C12.0541 10.2396 11.9791 10.0625 11.9791 9.85419C12.0069 9.57641 11.9757 9.31947 11.8854 9.08335C11.7951 8.84724 11.6666 8.64238 11.5 8.46877C11.3333 8.29516 11.1354 8.16669 10.9062 8.08335C10.6771 8.00002 10.4236 7.97224 10.1458 8.00002C9.93748 8.00002 9.7604 7.92571 9.61456 7.7771C9.46873 7.62835 9.39581 7.45266 9.39581 7.25002C9.39581 7.04169 9.46873 6.8646 9.61456 6.71877C9.7604 6.57294 9.93748 6.50002 10.1458 6.50002C10.5903 6.5278 11.0139 6.62849 11.4166 6.8021C11.8194 6.97571 12.1736 7.2153 12.4791 7.52085ZM9.99998 5.50002C9.76831 5.50002 9.54276 5.50731 9.32331 5.5219C9.10387 5.53648 8.88442 5.56322 8.66498 5.6021C8.45776 5.63127 8.2604 5.59377 8.0729 5.4896C7.8854 5.38544 7.76387 5.23266 7.70831 5.03127C7.65276 4.82988 7.67706 4.63891 7.78123 4.45835C7.8854 4.2778 8.04005 4.1719 8.24519 4.14065C8.54005 4.08856 8.83227 4.0521 9.12185 4.03127C9.41144 4.01044 9.70415 4.00002 9.99998 4.00002C11.8611 4.00002 13.5729 4.47571 15.1354 5.4271C16.6979 6.37849 17.8828 7.68835 18.6902 9.35669C18.7439 9.46613 18.7812 9.57308 18.8021 9.67752C18.8229 9.78196 18.8333 9.88946 18.8333 10C18.8333 10.1106 18.8229 10.2181 18.8021 10.3225C18.7812 10.427 18.75 10.5347 18.7083 10.6459C18.4618 11.1711 18.1571 11.6636 17.7944 12.1231C17.4314 12.5827 17.0347 13.0139 16.6041 13.4167C16.4514 13.5556 16.2743 13.6181 16.0729 13.6042C15.8715 13.5903 15.7014 13.4989 15.5625 13.33C15.4236 13.161 15.3646 12.977 15.3854 12.7779C15.4062 12.5788 15.493 12.4028 15.6458 12.25C16.0069 11.9306 16.3289 11.5834 16.6116 11.2084C16.8946 10.8334 17.1421 10.4306 17.3541 10C16.6736 8.59724 15.6701 7.49655 14.3437 6.69794C13.0173 5.89933 11.5694 5.50002 9.99998 5.50002ZM9.99998 16C8.18054 16 6.50692 15.5174 4.97915 14.5521C3.45137 13.5868 2.24949 12.3043 1.37352 10.7044C1.30505 10.5959 1.2604 10.4825 1.23956 10.364C1.21873 10.2456 1.20831 10.1241 1.20831 9.9994C1.20831 9.87481 1.21873 9.75349 1.23956 9.63544C1.2604 9.51738 1.30554 9.4028 1.37498 9.29169C1.69442 8.66669 2.06776 8.08349 2.49498 7.5421C2.92234 7.00072 3.41012 6.50752 3.95831 6.06252L2.39581 4.50002C2.24304 4.34724 2.16665 4.17363 2.16665 3.97919C2.16665 3.78474 2.24304 3.61113 2.39581 3.45835C2.54859 3.30558 2.72567 3.22919 2.92706 3.22919C3.12845 3.22919 3.30554 3.30558 3.45831 3.45835L16.5416 16.5417C16.6944 16.6945 16.7708 16.8681 16.7708 17.0625C16.7708 17.257 16.6944 17.4306 16.5416 17.5834C16.3889 17.7361 16.2118 17.8125 16.0104 17.8125C15.809 17.8125 15.6319 17.7361 15.4791 17.5834L13.2916 15.4167C12.7583 15.6111 12.2173 15.757 11.6687 15.8542C11.1201 15.9514 10.5639 16 9.99998 16ZM5.02081 7.14585C4.5347 7.53474 4.08331 7.96183 3.66665 8.4271C3.24998 8.89238 2.9097 9.41669 2.64581 10C3.32637 11.4028 4.32984 12.5035 5.65623 13.3021C6.98262 14.1007 8.43054 14.5 9.99998 14.5C10.364 14.5 10.7189 14.4757 11.0646 14.4271C11.4104 14.3785 11.7569 14.3125 12.1041 14.2292L11.1666 13.2917C10.9722 13.3611 10.7778 13.4132 10.5833 13.4479C10.3889 13.4827 10.1944 13.5 9.99998 13.5C9.02776 13.5 8.20137 13.1597 7.52081 12.4792C6.84026 11.7986 6.49998 10.9722 6.49998 10C6.49998 9.80558 6.52429 9.61113 6.5729 9.41669C6.62151 9.22224 6.66665 9.0278 6.70831 8.83335L5.02081 7.14585Z" fill="#6F6F71"/>
</svg>
