<svg width="20" height="20" viewBox="0 0 20 20" fill="none" xmlns="http://www.w3.org/2000/svg">
<path d="M12.5208 17.5625C12.3681 17.7153 12.2025 17.8264 12.0242 17.8958C11.846 17.9653 11.6585 18 11.4617 18C11.265 18 11.0764 17.9653 10.8958 17.8958C10.7153 17.8264 10.5486 17.7153 10.3958 17.5625L9.33333 16.5C9.18056 16.3611 9.06944 16.2083 9 16.0417C8.93056 15.875 8.89583 15.6944 8.89583 15.5C8.89583 15.3056 8.93403 15.1076 9.01042 14.9062C9.08681 14.7049 9.19444 14.5278 9.33333 14.375L2.54167 4.625L5.66667 1.5L16.0669 11.9002C16.2167 12.0501 16.3264 12.2142 16.3958 12.3925C16.4653 12.5707 16.5 12.7582 16.5 12.955C16.5 13.1517 16.4653 13.3403 16.3958 13.5208C16.3264 13.7014 16.2153 13.8681 16.0625 14.0208L12.5208 17.5625ZM10.4167 13.2917L12.875 10.8333L5.66667 3.625L4.5 4.79167L10.4167 13.2917ZM11.4583 16.5L15 12.9583L13.9375 11.8958L10.3958 15.4375L11.4583 16.5Z" fill="#1E1E1C"/>
</svg>
