<svg width="20" height="20" viewBox="0 0 20 20" fill="none" xmlns="http://www.w3.org/2000/svg">
<path d="M15.5052 12.25C15.2934 12.25 15.1146 12.1785 14.9687 12.0356C14.8229 11.8927 14.75 11.7156 14.75 11.5044C14.75 11.2931 14.8216 11.1146 14.9648 10.9687C15.1081 10.8229 15.2857 10.75 15.4975 10.75H16.2448C16.4566 10.75 16.6354 10.8215 16.7812 10.9644C16.9271 11.1073 17 11.2844 17 11.4956C17 11.7069 16.9284 11.8854 16.7852 12.0312C16.6419 12.1771 16.4643 12.25 16.2525 12.25H15.5052ZM15.5052 15.25C15.2934 15.25 15.1146 15.1785 14.9687 15.0356C14.8229 14.8927 14.75 14.7156 14.75 14.5044C14.75 14.2931 14.8216 14.1146 14.9648 13.9687C15.1081 13.8229 15.2857 13.75 15.4975 13.75H16.2448C16.4566 13.75 16.6354 13.8215 16.7812 13.9644C16.9271 14.1073 17 14.2844 17 14.4956C17 14.7069 16.9284 14.8854 16.7852 15.0312C16.6419 15.1771 16.4643 15.25 16.2525 15.25H15.5052ZM11.495 16C11.0817 16 10.7285 15.8531 10.4356 15.5594C10.1426 15.2656 9.99604 14.9125 9.99604 14.5H9.24812C9.03618 14.5 8.85847 14.4281 8.715 14.2844C8.57167 14.1406 8.5 13.9625 8.5 13.75V12.25C8.5 12.0375 8.57187 11.8594 8.71563 11.7156C8.85938 11.5719 9.0375 11.5 9.25 11.5H10C10 11.0875 10.1469 10.7344 10.4406 10.4406C10.7344 10.1469 11.0875 10 11.5 10H13C13.2125 10 13.3906 10.0718 13.5344 10.2154C13.6781 10.359 13.75 10.5369 13.75 10.7492V15.2442C13.75 15.4564 13.678 15.6354 13.534 15.7812C13.3898 15.9271 13.2113 16 12.9983 16H11.495ZM5.99313 13.75C5.16438 13.75 4.45833 13.4583 3.875 12.875C3.29167 12.2917 3 11.5833 3 10.75C3 9.91667 3.29167 9.20833 3.875 8.625C4.45833 8.04167 5.16667 7.75 6 7.75H7.375C7.6875 7.75 7.95312 7.64062 8.17187 7.42187C8.39062 7.20312 8.5 6.9375 8.5 6.625C8.5 6.3125 8.39062 6.04687 8.17187 5.82812C7.95312 5.60937 7.6875 5.5 7.375 5.5H4.75C4.5375 5.5 4.35937 5.42813 4.21562 5.28438C4.07187 5.14063 4 4.9625 4 4.75C4 4.5375 4.07187 4.35937 4.21562 4.21562C4.35937 4.07187 4.5375 4 4.75 4H7.375C8.11111 4 8.73264 4.25347 9.23958 4.76042C9.74653 5.26736 10 5.88889 10 6.625C10 7.36111 9.74653 7.98264 9.23958 8.48958C8.73264 8.99653 8.11111 9.25 7.375 9.25H6C5.5875 9.25 5.23437 9.39729 4.94062 9.69187C4.64687 9.98646 4.5 10.3406 4.5 10.7544C4.5 11.1681 4.64687 11.5209 4.94062 11.8127C5.23437 12.1047 5.5875 12.2506 6 12.2506H6.75C6.9625 12.2506 7.14062 12.322 7.28437 12.4648C7.42812 12.6077 7.5 12.7847 7.5 12.9958C7.5 13.2069 7.42778 13.3854 7.28333 13.5312C7.13903 13.6771 6.96014 13.75 6.74667 13.75H5.99313Z" fill="#1E1E1C"/>
</svg>
