<svg width="32" height="32" viewBox="0 0 32 32" fill="none" xmlns="http://www.w3.org/2000/svg">
<path d="M29.6 23.5113L18.6687 4.52752C18.3956 4.06243 18.0056 3.67679 17.5375 3.40885C17.0694 3.1409 16.5394 2.99994 16 2.99994C15.4606 2.99994 14.9306 3.1409 14.4625 3.40885C13.9944 3.67679 13.6044 4.06243 13.3312 4.52752L2.4 23.5113C2.13717 23.9611 1.99866 24.4728 1.99866 24.9938C1.99866 25.5148 2.13717 26.0264 2.4 26.4763C2.66966 26.9442 3.05896 27.3319 3.52795 27.5997C3.99694 27.8675 4.52873 28.0056 5.06875 28H26.9312C27.4708 28.0052 28.0021 27.8668 28.4706 27.599C28.9391 27.3313 29.328 26.9438 29.5975 26.4763C29.8607 26.0266 29.9997 25.5151 30.0001 24.9941C30.0005 24.4731 29.8624 23.9613 29.6 23.5113ZM27.8662 25.475C27.771 25.6376 27.6341 25.7719 27.4698 25.8641C27.3055 25.9564 27.1197 26.0033 26.9312 26H5.06875C4.88034 26.0033 4.69446 25.9564 4.53016 25.8641C4.36586 25.7719 4.22904 25.6376 4.13375 25.475C4.04743 25.3289 4.00189 25.1623 4.00189 24.9925C4.00189 24.8228 4.04743 24.6562 4.13375 24.51L15.065 5.52627C15.1622 5.36449 15.2997 5.23061 15.4639 5.13767C15.6282 5.04473 15.8138 4.99589 16.0025 4.99589C16.1912 4.99589 16.3768 5.04473 16.5411 5.13767C16.7053 5.23061 16.8428 5.36449 16.94 5.52627L27.8712 24.51C27.9568 24.6566 28.0015 24.8235 28.0006 24.9932C27.9997 25.1629 27.9533 25.3293 27.8662 25.475ZM15 18V13C15 12.7348 15.1054 12.4805 15.2929 12.2929C15.4804 12.1054 15.7348 12 16 12C16.2652 12 16.5196 12.1054 16.7071 12.2929C16.8946 12.4805 17 12.7348 17 13V18C17 18.2652 16.8946 18.5196 16.7071 18.7071C16.5196 18.8947 16.2652 19 16 19C15.7348 19 15.4804 18.8947 15.2929 18.7071C15.1054 18.5196 15 18.2652 15 18ZM17.5 22.5C17.5 22.7967 17.412 23.0867 17.2472 23.3334C17.0824 23.58 16.8481 23.7723 16.574 23.8858C16.2999 23.9994 15.9983 24.0291 15.7074 23.9712C15.4164 23.9133 15.1491 23.7705 14.9393 23.5607C14.7296 23.3509 14.5867 23.0836 14.5288 22.7927C14.4709 22.5017 14.5006 22.2001 14.6142 21.926C14.7277 21.6519 14.92 21.4176 15.1666 21.2528C15.4133 21.088 15.7033 21 16 21C16.3978 21 16.7794 21.1581 17.0607 21.4394C17.342 21.7207 17.5 22.1022 17.5 22.5Z" fill="#1C1C1C"/>
</svg>
