<svg width="20" height="20" viewBox="0 0 20 20" fill="none" xmlns="http://www.w3.org/2000/svg">
<g id="Icon/Small/Outline/External Arrow">
<path id="Vector" d="M14.1667 6.99996L5.08333 16.0833C4.93056 16.2361 4.73611 16.3125 4.5 16.3125C4.26389 16.3125 4.06944 16.2361 3.91667 16.0833C3.76389 15.9305 3.6875 15.7361 3.6875 15.5C3.6875 15.2638 3.76389 15.0694 3.91667 14.9166L13 5.83329H8.33333C8.09722 5.83329 7.89931 5.75343 7.73958 5.59371C7.57986 5.43399 7.5 5.23607 7.5 4.99996C7.5 4.76385 7.57986 4.56593 7.73958 4.40621C7.89931 4.24649 8.09722 4.16663 8.33333 4.16663H15C15.2361 4.16663 15.434 4.24649 15.5937 4.40621C15.7535 4.56593 15.8333 4.76385 15.8333 4.99996V11.6666C15.8333 11.9027 15.7535 12.1007 15.5937 12.2604C15.434 12.4201 15.2361 12.5 15 12.5C14.7639 12.5 14.566 12.4201 14.4062 12.2604C14.2465 12.1007 14.1667 11.9027 14.1667 11.6666V6.99996Z" fill="#1C1C1E"/>
</g>
</svg>
