<svg width="20" height="20" viewBox="0 0 20 20" fill="none" xmlns="http://www.w3.org/2000/svg">
<g id="Icon/Small/Outline/Generate">
<path id="Vector" d="M9.99479 2.10413C10.1019 2.10413 10.199 2.11454 10.286 2.13538C10.3731 2.15621 10.4583 2.18051 10.5417 2.20829L15.5417 4.12496C15.8333 4.23607 16.066 4.41767 16.2396 4.66975C16.4132 4.92197 16.5 5.20565 16.5 5.52079V8.24996C16.5 8.46246 16.4285 8.64058 16.2856 8.78434C16.1427 8.92808 15.9656 8.99996 15.7544 8.99996C15.5431 8.99996 15.3646 8.92808 15.2188 8.78434C15.0729 8.64058 15 8.46246 15 8.24996V5.52079L10 3.60413L5 5.52079V9.27079C5 9.99302 5.10069 10.6979 5.30208 11.3854C5.50347 12.0729 5.79167 12.7187 6.16667 13.3229C6.54167 13.927 6.99653 14.4757 7.53125 14.9687C8.06597 15.4618 8.66667 15.875 9.33333 16.2083C9.51194 16.3048 9.63993 16.4435 9.71729 16.6243C9.79465 16.8053 9.79861 16.993 9.72917 17.1875C9.65972 17.3819 9.53125 17.5208 9.34375 17.6041C9.15625 17.6875 8.96528 17.6875 8.77083 17.6041C7.17361 16.9236 5.89583 15.7986 4.9375 14.2291C3.97917 12.6597 3.5 11.0069 3.5 9.27079V5.52079C3.5 5.20565 3.58681 4.92197 3.76042 4.66975C3.93403 4.41767 4.16667 4.23607 4.45833 4.12496L9.45833 2.20829C9.55556 2.18051 9.64583 2.15621 9.72917 2.13538C9.8125 2.11454 9.90104 2.10413 9.99479 2.10413ZM13.9952 18C12.8873 18 11.9444 17.6095 11.1667 16.8285C10.3889 16.0477 10 15.1032 10 13.9952C10 12.8873 10.3905 11.9444 11.1715 11.1666C11.9523 10.3888 12.8967 9.99996 14.0048 9.99996C15.1127 9.99996 16.0556 10.3904 16.8333 11.1714C17.6111 11.9523 18 12.8967 18 14.0048C18 15.1127 17.6095 16.0555 16.8285 16.8333C16.0477 17.6111 15.1033 18 13.9952 18ZM14 14C14.3472 14 14.6424 13.8784 14.8854 13.6354C15.1285 13.3923 15.25 13.0972 15.25 12.75C15.25 12.4027 15.1285 12.1076 14.8854 11.8645C14.6424 11.6215 14.3472 11.5 14 11.5C13.6528 11.5 13.3576 11.6215 13.1146 11.8645C12.8715 12.1076 12.75 12.4027 12.75 12.75C12.75 13.0972 12.8715 13.3923 13.1146 13.6354C13.3576 13.8784 13.6528 14 14 14ZM14 16.5C14.3611 16.5 14.7118 16.4201 15.0521 16.2604C15.3924 16.1007 15.6806 15.8819 15.9167 15.6041C15.9861 15.5347 16.0069 15.4479 15.9792 15.3437C15.9514 15.2395 15.8889 15.1666 15.7917 15.125C15.5146 15 15.2266 14.9062 14.9277 14.8437C14.6287 14.7812 14.3194 14.75 14 14.75C13.6806 14.75 13.3713 14.7812 13.0723 14.8437C12.7734 14.9062 12.4854 15 12.2083 15.125C12.1111 15.1666 12.0486 15.2395 12.0208 15.3437C11.9931 15.4479 12.0139 15.5347 12.0833 15.6041C12.3194 15.8819 12.6076 16.1007 12.9479 16.2604C13.2882 16.4201 13.6389 16.5 14 16.5Z" fill="#1C1C1E"/>
</g>
</svg>
