<svg width="113" height="31" viewBox="0 0 113 31" fill="none" xmlns="http://www.w3.org/2000/svg">
<path id="Path 2359" d="M110.218 30.7412H2.83323C2.30606 30.7405 1.80067 30.5308 1.4279 30.158C1.05513 29.7853 0.845417 29.2799 0.844727 28.7527V2.1147C0.845417 1.58753 1.05513 1.08216 1.4279 0.709394C1.80067 0.336627 2.30606 0.126911 2.83323 0.126221H110.218C110.745 0.126911 111.25 0.336627 111.623 0.709394C111.996 1.08216 112.206 1.58753 112.206 2.1147V28.7523C112.206 29.2796 111.996 29.785 111.623 30.1579C111.25 30.5307 110.745 30.7405 110.218 30.7412ZM2.83323 0.920049C2.51729 0.920738 2.21447 1.04656 1.99106 1.26997C1.76766 1.49337 1.64186 1.79617 1.64117 2.11211V28.7497C1.64186 29.0657 1.76766 29.3685 1.99106 29.5919C2.21447 29.8153 2.51729 29.9411 2.83323 29.9418H110.218C110.534 29.9412 110.837 29.8154 111.06 29.592C111.283 29.3686 111.409 29.0657 111.41 28.7497V2.1147C111.409 1.79873 111.283 1.49587 111.06 1.27244C110.837 1.04902 110.534 0.923254 110.218 0.922664L2.83323 0.920049Z" fill="#3F3D56"/>
</svg>
