<svg width="113" height="96" viewBox="0 0 113 96" fill="none" xmlns="http://www.w3.org/2000/svg">
<path id="Path 2362" d="M110.357 95.8056H2.97215C2.44498 95.8049 1.93958 95.5952 1.56682 95.2224C1.19405 94.8496 0.984333 94.3443 0.983643 93.8171V1.9885C0.984333 1.46133 1.19405 0.955945 1.56682 0.583179C1.93958 0.210412 2.44498 0.000689951 2.97215 0H110.357C110.884 0.000689951 111.389 0.210412 111.762 0.583179C112.135 0.955945 112.345 1.46133 112.345 1.9885V93.8167C112.345 94.3439 112.135 94.8494 111.762 95.2221C111.389 95.5949 110.884 95.8046 110.357 95.8052V95.8056ZM2.97215 0.793834C2.65621 0.794523 2.35339 0.920335 2.12998 1.14374C1.90658 1.36714 1.78077 1.66995 1.78009 1.98589V93.8167C1.78077 94.1327 1.90658 94.4355 2.12998 94.6589C2.35339 94.8823 2.65621 95.0081 2.97215 95.0088H110.357C110.673 95.0082 110.976 94.8824 111.199 94.659C111.422 94.4355 111.548 94.1327 111.549 93.8167V1.9885C111.548 1.67256 111.422 1.36975 111.199 1.14635C110.975 0.922944 110.673 0.797132 110.357 0.796443L2.97215 0.793834Z" fill="#3F3D56"/>
</svg>
