<svg width="220" height="220" viewBox="0 0 220 220" fill="none" xmlns="http://www.w3.org/2000/svg">
<path d="M220 110C220 170.751 170.751 220 110 220C49.2487 220 0 170.751 0 110C0 49.2487 49.2487 0 110 0C170.751 0 220 49.2487 220 110ZM21.6862 110C21.6862 158.774 61.2257 198.314 110 198.314C158.774 198.314 198.314 158.774 198.314 110C198.314 61.2257 158.774 21.6862 110 21.6862C61.2257 21.6862 21.6862 61.2257 21.6862 110Z" fill="url(#paint0_linear_300_2171)"/>
<path d="M174.312 25.7385C175.652 23.9824 175.319 21.4659 173.515 20.1903C157.498 8.86213 138.719 2.00931 119.12 0.378723C98.1903 -1.36255 77.1995 2.92426 58.6284 12.7325C40.0573 22.5408 24.6823 37.4605 14.3203 55.7285C4.61706 72.8351 -0.31037 92.2082 0.0151052 111.824C0.0517553 114.033 1.94251 115.727 4.14855 115.61L17.8156 114.886C20.0216 114.769 21.7057 112.885 21.6888 110.676C21.5702 95.1969 25.5231 79.9328 33.1833 66.428C41.5025 51.7615 53.8464 39.7832 68.7562 31.9086C83.666 24.034 100.519 20.5923 117.322 21.9903C132.795 23.2776 147.63 28.6187 160.348 37.4435C162.162 38.7029 164.668 38.3741 166.008 36.618L174.312 25.7385Z" fill="url(#paint1_linear_300_2171)"/>
<defs>
<linearGradient id="paint0_linear_300_2171" x1="109.6" y1="-86" x2="110" y2="220" gradientUnits="userSpaceOnUse">
<stop offset="0.183088" stop-color="#313135"/>
<stop offset="0.795572" stop-color="#0F0F10" stop-opacity="0.05"/>
</linearGradient>
<linearGradient id="paint1_linear_300_2171" x1="172" y1="25.6" x2="16" y2="120.8" gradientUnits="userSpaceOnUse">
<stop stop-color="#FFC266"/>
<stop offset="1" stop-color="#1A1A1B" stop-opacity="0.5"/>
</linearGradient>
</defs>
</svg>
