<svg width="20" height="20" viewBox="0 0 20 20" fill="none" xmlns="http://www.w3.org/2000/svg">
<path d="M6.875 10.75L10.546 14.4211C10.6959 14.5709 10.7708 14.7465 10.7708 14.9479C10.7708 15.1493 10.6944 15.3297 10.5417 15.4892C10.3889 15.6353 10.2118 15.7084 10.0104 15.7084C9.80903 15.7084 9.63326 15.6332 9.48313 15.4829L4.52917 10.5227C4.45417 10.4476 4.39931 10.3662 4.36458 10.2786C4.32986 10.1909 4.3125 10.097 4.3125 9.99669C4.3125 9.89655 4.32986 9.80259 4.36458 9.71481C4.39931 9.62717 4.45139 9.54863 4.52083 9.47919L9.47917 4.52085C9.63194 4.36808 9.81021 4.29169 10.014 4.29169C10.2176 4.29169 10.3935 4.36808 10.5417 4.52085C10.6944 4.66905 10.7708 4.84495 10.7708 5.04856C10.7708 5.25231 10.6956 5.42947 10.545 5.58002L6.875 9.25002H15.2504C15.4628 9.25002 15.6408 9.32148 15.7846 9.4644C15.9282 9.60731 16 9.7844 16 9.99565C16 10.2069 15.9282 10.3854 15.7846 10.5313C15.6408 10.6771 15.4628 10.75 15.2504 10.75H6.875Z" fill="white"/>
</svg>
