<svg width="20" height="20" viewBox="0 0 20 20" fill="none" xmlns="http://www.w3.org/2000/svg">
<path d="M13.125 10.75H4.74958C4.53722 10.75 4.35917 10.6786 4.21542 10.5356C4.07181 10.3927 4 10.2156 4 10.0044C4 9.79315 4.07181 9.6146 4.21542 9.46877C4.35917 9.32294 4.53722 9.25002 4.74958 9.25002H13.125L9.45396 5.57898C9.3041 5.42912 9.22917 5.25349 9.22917 5.0521C9.22917 4.85071 9.30556 4.6703 9.45833 4.51085C9.61111 4.36474 9.78819 4.29169 9.98958 4.29169C10.191 4.29169 10.3667 4.36683 10.5169 4.5171L15.4708 9.47731C15.5458 9.55245 15.6007 9.63384 15.6354 9.72148C15.6701 9.80912 15.6875 9.90308 15.6875 10.0034C15.6875 10.1035 15.6701 10.1975 15.6354 10.2852C15.6007 10.3729 15.5486 10.4514 15.4792 10.5209L10.5208 15.4792C10.3681 15.632 10.1944 15.7049 10 15.6979C9.80556 15.691 9.63194 15.6145 9.47917 15.4684C9.32639 15.3089 9.25 15.1273 9.25 14.9236C9.25 14.72 9.32639 14.544 9.47917 14.3959L13.125 10.75Z" fill="white"/>
</svg>
