<svg width="24" height="24" viewBox="0 0 24 24" fill="none" xmlns="http://www.w3.org/2000/svg">
<path d="M5.70725 18.6C5.45242 18.6 5.2375 18.5142 5.0625 18.3428C4.8875 18.1713 4.8 17.9588 4.8 17.7053C4.8 17.4518 4.88625 17.2375 5.05875 17.0625C5.23125 16.8875 5.445 16.8 5.7 16.8H6V10.8C6 9.35 6.44583 8.075 7.3375 6.975C8.22917 5.875 9.38333 5.19167 10.8 4.925V3.6C10.8 3.26667 10.9167 2.98333 11.15 2.75C11.3833 2.51667 11.6667 2.4 12 2.4C12.3333 2.4 12.6167 2.51667 12.85 2.75C13.0833 2.98333 13.2 3.26667 13.2 3.6V4.925C14.6167 5.19167 15.7708 5.875 16.6625 6.975C17.5542 8.075 18 9.35 18 10.8V16.8H18.3C18.555 16.8 18.7687 16.8858 18.9412 17.0573C19.1137 17.2288 19.2 17.4412 19.2 17.6947C19.2 17.9482 19.1138 18.1625 18.9415 18.3375C18.769 18.5125 18.5553 18.6 18.3005 18.6H5.70725ZM11.9947 21.6C11.4982 21.6 11.075 21.4237 10.725 21.0712C10.375 20.7188 10.2 20.295 10.2 19.8H13.8C13.8 20.3 13.6232 20.725 13.2697 21.075C12.9162 21.425 12.4912 21.6 11.9947 21.6ZM7.8 16.8H16.2V10.8C16.2 9.63333 15.7917 8.64167 14.975 7.825C14.1583 7.00833 13.1667 6.6 12 6.6C10.8333 6.6 9.84167 7.00833 9.025 7.825C8.20833 8.64167 7.8 9.63333 7.8 10.8V16.8Z" fill="#1E1E1C"/>
</svg>
