<svg width="21" height="20" viewBox="0 0 21 20" fill="none" xmlns="http://www.w3.org/2000/svg">
<path d="M16.0052 12.25C15.7934 12.25 15.6146 12.1785 15.4688 12.0356C15.3229 11.8927 15.25 11.7156 15.25 11.5044C15.25 11.2931 15.3216 11.1146 15.4648 10.9688C15.6081 10.8229 15.7857 10.75 15.9975 10.75H16.7448C16.9566 10.75 17.1354 10.8215 17.2812 10.9644C17.4271 11.1073 17.5 11.2844 17.5 11.4956C17.5 11.7069 17.4284 11.8854 17.2852 12.0312C17.1419 12.1771 16.9643 12.25 16.7525 12.25H16.0052ZM16.0052 15.25C15.7934 15.25 15.6146 15.1785 15.4688 15.0356C15.3229 14.8927 15.25 14.7156 15.25 14.5044C15.25 14.2931 15.3216 14.1146 15.4648 13.9688C15.6081 13.8229 15.7857 13.75 15.9975 13.75H16.7448C16.9566 13.75 17.1354 13.8215 17.2812 13.9644C17.4271 14.1073 17.5 14.2844 17.5 14.4956C17.5 14.7069 17.4284 14.8854 17.2852 15.0312C17.1419 15.1771 16.9643 15.25 16.7525 15.25H16.0052ZM11.995 16C11.5817 16 11.2285 15.8531 10.9356 15.5594C10.6426 15.2656 10.496 14.9125 10.496 14.5H9.74813C9.53618 14.5 9.35847 14.4281 9.215 14.2844C9.07167 14.1406 9 13.9625 9 13.75V12.25C9 12.0375 9.07188 11.8594 9.21563 11.7156C9.35938 11.5719 9.5375 11.5 9.75 11.5H10.5C10.5 11.0875 10.6469 10.7344 10.9406 10.4406C11.2344 10.1469 11.5875 10 12 10H13.5C13.7125 10 13.8906 10.0718 14.0344 10.2154C14.1781 10.359 14.25 10.5369 14.25 10.7492V15.2442C14.25 15.4564 14.178 15.6354 14.034 15.7812C13.8898 15.9271 13.7113 16 13.4983 16H11.995ZM6.49313 13.75C5.66438 13.75 4.95833 13.4583 4.375 12.875C3.79167 12.2917 3.5 11.5833 3.5 10.75C3.5 9.91667 3.79167 9.20833 4.375 8.625C4.95833 8.04167 5.66667 7.75 6.5 7.75H7.875C8.1875 7.75 8.45312 7.64062 8.67188 7.42188C8.89062 7.20312 9 6.9375 9 6.625C9 6.3125 8.89062 6.04688 8.67188 5.82812C8.45312 5.60938 8.1875 5.5 7.875 5.5H5.25C5.0375 5.5 4.85938 5.42813 4.71563 5.28438C4.57188 5.14063 4.5 4.9625 4.5 4.75C4.5 4.5375 4.57188 4.35937 4.71563 4.21562C4.85938 4.07187 5.0375 4 5.25 4H7.875C8.61111 4 9.23264 4.25347 9.73958 4.76042C10.2465 5.26736 10.5 5.88889 10.5 6.625C10.5 7.36111 10.2465 7.98264 9.73958 8.48958C9.23264 8.99653 8.61111 9.25 7.875 9.25H6.5C6.0875 9.25 5.73438 9.39729 5.44062 9.69187C5.14687 9.98646 5 10.3406 5 10.7544C5 11.1681 5.14687 11.5209 5.44062 11.8127C5.73438 12.1047 6.0875 12.2506 6.5 12.2506H7.25C7.4625 12.2506 7.64062 12.322 7.78438 12.4648C7.92812 12.6077 8 12.7847 8 12.9958C8 13.2069 7.92778 13.3854 7.78333 13.5312C7.63903 13.6771 7.46014 13.75 7.24667 13.75H6.49313Z" fill="#FFCC80"/>
</svg>
