<svg width="43" height="42" viewBox="0 0 43 42" fill="none" xmlns="http://www.w3.org/2000/svg">
<g id="Frame">
<path id="Vector" d="M3.75 33.25V17.5C3.75 16.5375 4.09271 15.7135 4.77812 15.0281C5.46354 14.3427 6.2875 14 7.25 14H12.5V10.5C12.5 9.5375 12.8427 8.71354 13.5281 8.02812C14.2135 7.34271 15.0375 7 16 7H26.5C27.4625 7 28.2865 7.34271 28.9719 8.02812C29.6573 8.71354 30 9.5375 30 10.5V14H35.25C36.2125 14 37.0365 14.3427 37.7219 15.0281C38.4073 15.7135 38.75 16.5375 38.75 17.5V33.25C38.75 33.7458 38.5823 34.1615 38.2469 34.4969C37.9115 34.8323 37.4958 35 37 35H5.5C5.00417 35 4.58854 34.8323 4.25313 34.4969C3.91771 34.1615 3.75 33.7458 3.75 33.25ZM14.25 26.25C14.25 26.7458 14.0823 27.1615 13.7469 27.4969C13.4115 27.8323 12.9958 28 12.5 28C12.0042 28 11.5885 27.8323 11.2531 27.4969C10.9177 27.1615 10.75 26.7458 10.75 26.25H7.25V31.5H35.25V26.25H31.75C31.75 26.7458 31.5823 27.1615 31.2469 27.4969C30.9115 27.8323 30.4958 28 30 28C29.5042 28 29.0885 27.8323 28.7531 27.4969C28.4177 27.1615 28.25 26.7458 28.25 26.25H14.25ZM7.25 17.5V22.75H10.75C10.75 22.2542 10.9177 21.8385 11.2531 21.5031C11.5885 21.1677 12.0042 21 12.5 21C12.9958 21 13.4115 21.1677 13.7469 21.5031C14.0823 21.8385 14.25 22.2542 14.25 22.75H28.25C28.25 22.2542 28.4177 21.8385 28.7531 21.5031C29.0885 21.1677 29.5042 21 30 21C30.4958 21 30.9115 21.1677 31.2469 21.5031C31.5823 21.8385 31.75 22.2542 31.75 22.75H35.25V17.5H7.25ZM16 14H26.5V10.5H16V14Z" fill="#FFCC80"/>
</g>
</svg>
