<svg width="14" height="14" viewBox="0 0 14 14" fill="none" xmlns="http://www.w3.org/2000/svg">
<g id="Fill">
<mask id="mask0_413_70" style="mask-type:alpha" maskUnits="userSpaceOnUse" x="0" y="0" width="14" height="14">
<path id="Mask" fill-rule="evenodd" clip-rule="evenodd" d="M3.67278 12.1307L3.89948 12.2651C4.85252 12.8304 5.94497 13.1295 7.05882 13.1299H7.06134C10.4827 13.1299 13.2672 10.3466 13.2686 6.92565C13.2693 5.26789 12.6242 3.70909 11.4523 2.53639C10.2803 1.36362 8.72179 0.717397 7.06382 0.716858C3.63987 0.716858 0.855248 3.49985 0.853882 6.92059C0.853415 8.09292 1.18158 9.23463 1.80294 10.2224L1.95053 10.4572L1.32345 12.7466L3.67278 12.1307ZM10.8238 8.70113C10.7772 8.62327 10.6528 8.57663 10.4662 8.48326C10.2796 8.3899 9.36212 7.93869 9.19107 7.87639C9.02002 7.81423 8.89561 7.78313 8.77123 7.96979C8.64685 8.15648 8.28923 8.57663 8.18033 8.70113C8.07151 8.82559 7.96265 8.84117 7.77607 8.74781C7.58947 8.65448 6.98819 8.45748 6.27543 7.82206C5.72067 7.32748 5.34617 6.71673 5.23731 6.53C5.12848 6.34331 5.2257 6.24233 5.31911 6.14936C5.40307 6.06576 5.50575 5.9315 5.59906 5.82258C5.69236 5.7137 5.72344 5.63585 5.78566 5.51143C5.84786 5.38693 5.81674 5.27805 5.77011 5.18468C5.72344 5.09128 5.35026 4.17322 5.19477 3.79976C5.04326 3.43611 4.88942 3.48534 4.77488 3.47959C4.66617 3.47421 4.54164 3.47302 4.41726 3.47302C4.29285 3.47302 4.09068 3.51967 3.91963 3.70643C3.74858 3.89313 3.26651 4.3444 3.26651 5.26239C3.26651 6.18049 3.93519 7.06731 4.02849 7.19181C4.1218 7.31635 5.34433 9.20016 7.21625 10.0081C7.66147 10.2003 8.00906 10.315 8.28006 10.401C8.72711 10.543 9.13388 10.523 9.45543 10.4749C9.81394 10.4214 10.5595 10.0237 10.715 9.58809C10.8705 9.15233 10.8705 8.7789 10.8238 8.70113Z" fill="black"/>
</mask>
<g mask="url(#mask0_413_70)">
<path id="Gradient" d="M17.3167 -3.41663H-3.66663V17.5667H17.3167V-3.41663Z" fill="url(#paint0_linear_413_70)"/>
</g>
</g>
<defs>
<linearGradient id="paint0_linear_413_70" x1="6.82506" y1="17.5667" x2="6.82506" y2="-3.41663" gradientUnits="userSpaceOnUse">
<stop stop-color="#25CF43"/>
<stop offset="1" stop-color="#61FD7D"/>
</linearGradient>
</defs>
</svg>
