<svg width="43" height="42" viewBox="0 0 43 42" fill="none" xmlns="http://www.w3.org/2000/svg">
<g id="Frame">
<path id="Vector" d="M20.0875 25.375L27.35 20.7375C27.875 20.3875 28.1375 19.8917 28.1375 19.25C28.1375 18.6083 27.875 18.1125 27.35 17.7625L20.0875 13.125C19.5042 12.7458 18.9062 12.7167 18.2937 13.0375C17.6812 13.3583 17.375 13.8687 17.375 14.5687V23.9312C17.375 24.6313 17.6812 25.1417 18.2937 25.4625C18.9062 25.7833 19.5042 25.7542 20.0875 25.375ZM7.75 33.25C6.7875 33.25 5.96354 32.9073 5.27812 32.2219C4.59271 31.5365 4.25 30.7125 4.25 29.75V8.75C4.25 7.7875 4.59271 6.96354 5.27812 6.27812C5.96354 5.59271 6.7875 5.25 7.75 5.25H35.75C36.7125 5.25 37.5365 5.59271 38.2219 6.27812C38.9073 6.96354 39.25 7.7875 39.25 8.75V29.75C39.25 30.7125 38.9073 31.5365 38.2219 32.2219C37.5365 32.9073 36.7125 33.25 35.75 33.25H28.75V35C28.75 35.4958 28.5823 35.9115 28.2469 36.2469C27.9115 36.5823 27.4958 36.75 27 36.75H16.5C16.0042 36.75 15.5885 36.5823 15.2531 36.2469C14.9177 35.9115 14.75 35.4958 14.75 35V33.25H7.75ZM7.75 29.75H35.75V8.75H7.75V29.75Z" fill="#FFCC80"/>
</g>
</svg>
