<svg width="43" height="42" viewBox="0 0 43 42" fill="none" xmlns="http://www.w3.org/2000/svg">
<g id="Frame">
<path id="Vector" d="M23.5 19.25H35.6625C35.225 16.0417 33.8906 13.3219 31.6594 11.0906C29.4281 8.85938 26.7083 7.525 23.5 7.0875V19.25ZM20 34.9125V7.0875C16.4708 7.525 13.5469 9.06354 11.2281 11.7031C8.90937 14.3427 7.75 17.4417 7.75 21C7.75 24.5583 8.90937 27.6573 11.2281 30.2969C13.5469 32.9365 16.4708 34.475 20 34.9125ZM23.5 34.9125C26.7083 34.5042 29.4354 33.1771 31.6812 30.9312C33.9271 28.6854 35.2542 25.9583 35.6625 22.75H23.5V34.9125ZM21.75 38.5C19.3292 38.5 17.0542 38.0406 14.925 37.1219C12.7958 36.2031 10.9437 34.9562 9.36875 33.3813C7.79375 31.8062 6.54688 29.9542 5.62812 27.825C4.70937 25.6958 4.25 23.4208 4.25 21C4.25 18.5792 4.70937 16.3042 5.62812 14.175C6.54688 12.0458 7.79375 10.1937 9.36875 8.61875C10.9437 7.04375 12.7958 5.79688 14.925 4.87812C17.0542 3.95937 19.3292 3.5 21.75 3.5C24.1708 3.5 26.4385 3.95937 28.5531 4.87812C30.6677 5.79688 32.5198 7.05104 34.1094 8.64062C35.699 10.2302 36.9531 12.0823 37.8719 14.1969C38.7906 16.3115 39.25 18.5792 39.25 21C39.25 23.3917 38.7906 25.6521 37.8719 27.7812C36.9531 29.9104 35.7062 31.7698 34.1313 33.3594C32.5562 34.949 30.7042 36.2031 28.575 37.1219C26.4458 38.0406 24.1708 38.5 21.75 38.5Z" fill="#FFCC80"/>
</g>
</svg>
