<svg width="251" height="199" viewBox="0 0 251 199" fill="none" xmlns="http://www.w3.org/2000/svg">
<g id="Illustration - Deleted">
<g id="Group">
<path id="Blob" fill-rule="evenodd" clip-rule="evenodd" d="M69.5279 163.327C69.5279 163.327 16.0718 153.313 12.4485 140.097C8.82525 126.881 51.7602 120.515 51.7602 120.515C51.7602 120.515 72.3486 117.033 75.5012 114.212C78.6539 111.392 141.414 112.48 171.737 89.9866C202.061 67.494 212.076 56.088 227.067 68.8643C242.057 81.6406 238.428 119.522 221.901 141.425C205.374 163.327 139.627 166.977 139.627 166.977L69.5279 163.327Z" fill="#FBD7D5"/>
<g id="Deleted_2">
<path id="Whites" fill-rule="evenodd" clip-rule="evenodd" d="M166.456 149.583C166.456 149.583 165.042 150.562 164.371 148.716C163.7 146.87 163.279 145.568 163.279 145.568C163.279 145.568 161.836 144.119 161.083 144.119C160.33 144.119 157.861 142.413 158.114 141.072C158.368 139.731 161.286 139.883 162.116 139.883C162.945 139.883 162.317 137.843 162.317 137.224C162.317 136.605 163.291 131.345 165.607 132.132C167.923 132.919 169.18 134.303 168.257 136.702C170.672 136.586 172.87 135.474 173.152 140.198C172.959 141.934 173.005 142.335 174.064 143.621C175.124 144.908 175.555 146.844 174.674 147.503C173.793 148.161 172.36 148.414 171.882 148.716C171.403 149.018 171.149 149.675 171.149 150.761C171.149 151.846 169.485 149.955 169.485 149.955L167.923 148.289L166.456 149.583Z" fill="white"/>
<path id="Whites_2" d="M146.755 89.3483C148.362 106.52 149.701 123.716 150.771 140.93C150.898 142.964 150.975 145.171 149.811 146.846C149.03 147.969 147.794 148.685 146.561 149.281C142.048 151.463 137.075 152.515 132.116 153.261C118.597 155.293 104.754 155.17 91.2736 152.899C88.6059 152.45 85.8996 151.898 83.5476 150.565C81.1956 149.231 79.2196 146.98 78.8672 144.305C75.9326 122.025 74.2899 99.5757 73.9502 77.107C73.9256 75.4793 73.8682 73.7297 72.8906 72.426C71.8316 71.014 69.9392 70.4687 68.7429 69.17C66.6792 66.93 67.4556 63.105 69.6206 60.9627C71.7859 58.82 74.8929 57.9697 77.8776 57.344C86.5969 55.516 95.5719 54.904 104.46 55.5313C104.722 56.2463 103.644 56.6473 102.88 56.6483C94.5302 56.6583 86.1812 57.3403 77.9409 58.6853C74.9216 59.178 71.6292 59.9313 69.8002 62.378C78.1209 65.1133 87.0419 65.2693 95.8026 65.3363C111.463 65.456 127.234 65.3623 142.61 62.3963C143.979 62.1323 145.463 61.7737 146.312 60.6703C147.161 59.5673 146.761 57.5243 145.376 57.363C133.527 55.9847 121.557 55.6527 109.65 56.373C108.73 56.4287 107.376 55.877 107.826 55.0753C118.748 54.5577 129.706 54.7977 140.595 55.7933C143.519 56.061 146.598 56.4437 148.938 58.2133C151.421 60.0917 152.658 63.4707 151.973 66.503C151.288 69.5353 148.718 72.0587 145.667 72.6933" fill="white"/>
<path id="Shadow" fill-rule="evenodd" clip-rule="evenodd" d="M105.476 54.7273C105.869 43.9067 107.474 32.992 105.657 22.318C105.458 21.1457 105.214 19.9703 104.744 18.878C103.95 17.0327 102.503 15.4767 100.721 14.5517C100.174 14.2677 99.5653 14.0143 99.2317 13.4957C98.898 12.9773 99.0663 12.099 99.6747 12C102.168 12.399 104.201 14.3477 105.325 16.61C106.45 18.8723 106.804 21.431 107.062 23.9443C107.97 32.765 107.895 41.6867 106.84 50.4907C106.481 53.4867 106.021 56.6087 107.021 59.4553C106.719 59.3833 106.418 59.311 106.117 59.239C105.405 57.8767 105.42 56.2633 105.476 54.7273Z" fill="#E7EAEE"/>
<path id="Whites_3" d="M77.1596 163.208C76.5273 163.904 75.5433 164.275 74.6003 164.171C74.1259 164.118 73.8703 164.81 74.1419 165.197C74.4136 165.584 74.9436 165.691 75.421 165.705C75.898 165.72 76.3996 165.678 76.8296 165.883C75.2166 166.61 73.6036 167.338 71.9903 168.065C67.3476 171.486 74.3763 170.133 75.536 169.868C74.243 171.152 73.35 172.541 74.3436 172.583C73.452 172.976 75.669 171.994 75.052 172.739C74.4346 173.485 74.236 174.662 74.8753 175.389C75.9456 175.377 76.9016 174.388 76.862 173.334C78.91 173.727 81.012 173.845 83.092 173.684C84.3003 173.591 85.2203 172.263 84.9203 171.106C84.6199 169.95 83.23 169.218 82.069 169.561C83.5616 168.893 84.976 168.055 86.275 167.07C85.9223 166.541 85.5696 166.012 85.217 165.484C84.6793 164.677 84.127 163.855 83.3506 163.267C82.5743 162.679 81.5183 162.358 80.597 162.685C79.6756 163.013 79.0453 164.13 79.4676 165C79.18 165.354 78.5529 165.358 78.2619 165.006C77.9709 164.655 78.1 164.05 78.5103 163.844C78.877 163.66 78.9209 163.125 78.7059 162.779C78.4913 162.433 78.1063 162.233 77.7396 162.048C76.7583 161.554 75.4986 161.08 74.6366 161.756C74.988 161.963 75.4 162.07 75.8096 162.058C75.2536 162.385 74.698 162.712 74.1423 163.039C73.9463 163.219 74.3429 163.442 74.6103 163.419C75.4599 163.349 76.31 163.278 77.1596 163.208Z" fill="white"/>
<path id="Highlights" fill-rule="evenodd" clip-rule="evenodd" d="M74.6106 163.42C75.4603 163.349 76.31 163.279 77.1596 163.208C76.5273 163.905 75.5433 164.275 74.6006 164.171C74.126 164.119 73.8703 164.811 74.142 165.198C74.4136 165.584 74.9436 165.692 75.421 165.706C75.8983 165.721 76.3996 165.679 76.8296 165.883C75.2166 166.611 73.6036 167.338 71.9906 168.066C73.1726 168.207 74.3796 168.143 75.5396 167.878C74.2463 169.162 71.566 168.45 70.6343 170.008C72.4926 170.227 74.4036 170 76.1553 169.35C76.1453 169.971 75.4083 170.307 74.783 170.391C74.158 170.474 73.436 170.498 73.0443 170.984C72.79 171.3 72.2876 171.203 71.899 171.076C71.2543 170.866 70.5866 170.642 70.0953 170.18C69.604 169.718 69.3433 168.945 69.679 168.363C70.4153 167.087 73.024 167.842 73.464 166.439C73.574 166.088 73.4856 165.71 73.3986 165.353C73.1963 164.522 73.0016 163.666 73.117 162.819C73.2326 161.971 73.723 161.122 74.531 160.809C75.8886 160.283 77.2786 161.417 78.702 161.731C79.7736 161.968 80.9096 161.73 81.9806 161.971C83.5216 162.317 84.6526 163.574 85.6736 164.763C86.1363 165.302 86.6156 165.873 86.754 166.565C86.8923 167.258 86.5523 168.097 85.8566 168.267C85.224 168.421 84.9733 169.211 85.0966 169.841C85.2203 170.471 85.5926 171.027 85.7646 171.646C85.937 172.265 85.8266 173.056 85.2463 173.347C84.0226 173.963 82.7403 174.593 81.366 174.594C80.4456 174.594 79.546 174.309 78.626 174.281C77.7063 174.253 76.6686 174.575 76.281 175.397C75.8913 176.223 74.513 176.037 74.003 175.276C73.4933 174.515 73.589 173.523 73.7043 172.618C73.738 172.353 73.78 172.069 73.9616 171.87C74.1103 171.707 74.3296 171.628 74.542 171.562C75.4913 171.27 76.4923 171.141 77.486 171.183C76.5943 171.576 75.6693 171.994 75.052 172.74C74.4346 173.486 74.236 174.662 74.8753 175.39C75.9456 175.377 76.902 174.388 76.862 173.335C78.91 173.728 81.012 173.846 83.092 173.685C84.3003 173.591 85.2203 172.263 84.9203 171.107C84.62 169.951 83.23 169.219 82.069 169.561C83.5616 168.893 84.976 168.056 86.2753 167.071C85.9223 166.542 85.5696 166.013 85.217 165.484C84.6793 164.678 84.127 163.856 83.3506 163.268C82.5743 162.68 81.5183 162.359 80.597 162.686C79.6756 163.013 79.0453 164.13 79.4676 165.001C79.18 165.355 78.553 165.358 78.262 165.007C77.971 164.655 78.1 164.051 78.5103 163.845C78.877 163.661 78.921 163.126 78.706 162.78C78.4913 162.434 78.1063 162.233 77.7396 162.049C76.7583 161.555 75.4986 161.081 74.6366 161.757C74.988 161.964 75.4 162.07 75.8096 162.059C75.254 162.386 74.6983 162.712 74.1423 163.039C73.9463 163.22 74.343 163.442 74.6106 163.42Z" fill="#FFB61D"/>
<path id="Shadow_2" fill-rule="evenodd" clip-rule="evenodd" d="M102.74 52.7037C102.655 52.3747 102.779 51.9797 103.082 51.823C103.18 52.028 103.279 52.233 103.377 52.438C103.171 52.565 102.965 52.6917 102.76 52.8183L102.74 52.7037Z" fill="#E7EAEE"/>
<path id="Whites_4" d="M78.0846 167.641C78.2156 168.288 78.1393 168.971 77.8679 169.58C78.6253 169.658 79.3929 169.647 80.1473 169.546C79.6239 170.342 78.2826 170.565 77.5639 169.915C76.8453 169.266 77.1282 167.91 78.0846 167.641Z" fill="white"/>
<path id="Shadow_3" fill-rule="evenodd" clip-rule="evenodd" d="M103.636 37.2286C103.345 40.928 103.224 44.6387 103.273 48.3473C103.283 49.0733 103.308 49.8313 103.684 50.4696C103.795 50.6576 103.511 50.8746 103.286 50.8173C103.062 50.76 102.927 50.5547 102.826 50.3617C101.462 47.7497 102.324 44.6743 102.263 41.778C102.223 39.893 101.786 37.9503 102.425 36.1583C102.554 35.7963 103.186 35.8236 103.436 36.1273C103.686 36.431 103.666 36.849 103.636 37.2286Z" fill="#E7EAEE"/>
<path id="Path" d="M59.716 129.699C59.9633 130.128 59.967 130.704 59.7247 131.137C59.461 130.069 58.0697 129.548 57.2397 130.207C56.935 130.449 56.605 130.833 56.2537 130.68C56.4167 130.616 56.441 130.33 56.2917 130.235C56.9873 129.047 58.7307 128.774 59.716 129.699Z" fill="black"/>
<path id="Shape" fill-rule="evenodd" clip-rule="evenodd" d="M62.4409 128.624C62.4739 128.477 62.5066 128.33 62.5349 128.186C62.7013 127.34 62.6026 126.265 61.8233 125.9C61.2833 125.648 60.6979 125.857 60.1133 126.067C59.8943 126.145 59.6756 126.223 59.4593 126.277C58.2429 126.581 56.8616 126.01 56.2123 124.935C55.7206 124.121 54.3589 124.547 53.9073 125.384C53.6219 125.913 53.5463 126.512 53.4703 127.115C53.4256 127.466 53.3809 127.819 53.2946 128.159C53.0599 129.082 52.2229 130.031 51.3123 129.76C50.5869 129.545 49.7413 129.832 49.2959 130.445C48.8506 131.058 48.8373 131.953 49.2643 132.579C49.7829 133.339 50.7203 133.572 51.6426 133.801C51.9059 133.867 52.1683 133.932 52.4189 134.009C52.8509 134.142 53.2933 134.342 53.5406 134.721C53.7883 135.1 53.7449 135.696 53.3506 135.916C52.7043 136.277 52.7573 137.343 53.3426 137.796C53.9283 138.25 54.7946 138.165 55.4339 137.792C56.0733 137.419 56.5373 136.812 56.9843 136.221C57.6719 135.311 59.1213 135.109 60.0309 135.795C60.0263 135.001 60.4769 134.221 61.1659 133.83C61.8549 133.438 62.7543 133.452 63.4309 133.864C64.0236 133.624 63.9846 132.73 63.6173 132.205C63.4679 131.992 63.2843 131.804 63.1009 131.616C62.8336 131.341 62.5673 131.068 62.4113 130.721C62.1186 130.07 62.2819 129.337 62.4409 128.624ZM60.2099 133.234C60.3246 133.628 60.2616 134.071 60.0416 134.418L60.1053 134.483C59.7249 134.682 59.2389 134.661 58.8773 134.43L59.2609 133.441C59.5493 133.285 59.8826 133.212 60.2099 133.234Z" fill="white"/>
<path id="Shape_2" fill-rule="evenodd" clip-rule="evenodd" d="M165.809 88.0443C165.421 87.585 165.032 87.125 164.626 86.6837C163.371 85.322 161.834 84.0803 160.004 83.804C159.811 83.7747 159.616 83.7563 159.421 83.7383C159.028 83.7017 158.635 83.665 158.262 83.5387C157.764 83.37 157.331 83.0507 156.93 82.7097C156.387 82.2477 155.863 81.727 155.339 81.2047C153.796 79.669 152.243 78.123 150.148 78.0417C147.941 77.956 145.87 79.9373 145.855 82.1477C145.842 84.002 147.042 85.6163 148.186 87.075L168.081 112.442L180.416 128.17C182.009 130.201 184.102 132.449 186.657 132.095C188.953 131.776 190.495 129.079 189.84 126.853C189.589 125.998 189.094 125.251 188.597 124.503C188.164 123.851 187.731 123.197 187.457 122.469C187.022 121.309 187.026 120.064 187.03 118.813C187.033 117.856 187.036 116.895 186.842 115.967C186.412 113.911 185.059 112.184 183.682 110.6C182.936 109.742 182.147 108.472 182.859 107.587C183.707 106.534 183.284 104.979 182.748 103.737C181.03 99.751 178.534 96.102 175.444 93.0557C174.12 91.7513 172.195 90.4817 170.54 91.324C169.842 91.679 169.007 91.243 168.399 90.7497C167.428 89.9607 166.619 89.003 165.809 88.0443ZM180.381 104.556C180.513 105.23 180.387 105.993 179.896 106.474C179.776 106.592 179.625 106.694 179.457 106.701C179.169 106.713 178.951 106.455 178.781 106.222L171.073 95.6457C170.777 95.239 170.983 94.6063 171.415 94.348C171.847 94.0897 172.412 94.1507 172.86 94.3793C173.308 94.608 173.664 94.981 174.003 95.3524C176.075 97.6147 177.93 100.075 179.536 102.689C179.896 103.274 180.249 103.882 180.381 104.556Z" fill="white"/>
<path id="Stroke" fill-rule="evenodd" clip-rule="evenodd" d="M149.492 143.771C149.765 142.864 149.7 141.895 149.632 140.951L145.699 86.0627C146.496 86.924 146.645 88.1813 146.754 89.3483C148.362 106.52 149.701 123.716 150.771 140.93C150.898 142.964 150.975 145.171 149.811 146.846C149.03 147.969 147.794 148.685 146.561 149.281C142.048 151.463 137.075 152.515 132.116 153.261C118.597 155.293 104.754 155.17 91.2736 152.899C88.6059 152.45 85.8996 151.898 83.5476 150.565C81.1956 149.231 79.2196 146.98 78.8673 144.305C75.9326 122.025 74.2899 99.5757 73.9503 77.107C73.9256 75.4793 73.8683 73.7297 72.8906 72.426C72.3199 71.6653 71.5076 71.156 70.6926 70.6453C69.9946 70.2077 69.2946 69.769 68.7429 69.17C66.6793 66.93 67.4556 63.105 69.6206 60.9627C71.7859 58.82 74.8929 57.9697 77.8773 57.344C86.5969 55.516 95.5719 54.904 104.46 55.5313C104.722 56.2463 103.644 56.6473 102.88 56.6483C94.5303 56.6583 86.1813 57.3403 77.9409 58.6853C74.9216 59.178 71.6293 59.9313 69.8003 62.378C78.1209 65.1133 87.0419 65.2693 95.8026 65.3363C111.463 65.456 127.234 65.3623 142.61 62.3963C143.979 62.1323 145.463 61.7737 146.312 60.6703C147.16 59.5673 146.761 57.5243 145.376 57.363C133.527 55.9847 121.557 55.6527 109.65 56.373C108.73 56.4287 107.376 55.877 107.826 55.0753C118.748 54.5577 129.706 54.7977 140.595 55.7933C143.519 56.061 146.598 56.4437 148.938 58.2133C151.421 60.0917 152.658 63.4707 151.973 66.503C151.288 69.5353 148.718 72.0587 145.667 72.6933L145.539 80.1553C144.708 79.2997 144.819 78.007 144.926 76.7727C144.948 76.521 144.97 76.2717 144.983 76.029C145.062 74.5963 144.211 72.7283 142.803 73.021C120.517 77.6533 97.2969 77.763 74.9686 73.341C74.9926 94.6673 77.0103 115.936 79.0263 137.167C79.2666 139.699 79.5186 142.278 80.5149 144.619C81.5109 146.961 83.3883 149.07 85.8599 149.696C97.6069 152.67 109.799 153.887 121.904 153.293C130.176 152.888 138.618 151.57 145.825 147.5C147.383 146.62 148.977 145.481 149.492 143.771ZM69.0103 63.2907C68.2759 65.888 69.7899 68.7067 71.9799 70.2907C74.1699 71.875 76.9036 72.48 79.5639 72.97C100.969 76.9123 123.104 75.79 144.466 71.6187C146.094 71.3007 147.801 70.9253 149.037 69.8223C150.407 68.5997 150.954 66.651 150.844 64.8203C150.734 62.9897 150.044 61.2453 149.272 59.581C148.167 62.2807 144.846 63.178 141.964 63.6673C122.846 66.9117 103.338 67.4403 83.9706 66.447C81.7686 66.334 79.5629 66.201 77.3869 65.8467C74.4966 65.3757 71.6703 64.5133 69.0103 63.2907ZM80.9063 135.74C80.4856 135.373 80.0013 134.95 79.4709 135.09C79.2666 136.46 80.8789 137.31 82.1996 137.691C83.9469 138.196 85.7779 138.659 87.5646 138.323C88.2096 138.202 88.8513 137.968 89.3396 137.526C90.4359 136.536 90.4713 134.847 90.4213 133.363C89.9719 120.057 89.2369 106.761 88.2166 93.4873C88.0533 91.3653 87.7549 88.991 86.0963 87.675C85.4139 87.1333 84.5739 86.842 83.7516 86.56L78.0226 84.5957C77.2489 84.33 76.2389 84.1297 75.7439 84.7857C75.4366 85.1933 75.4853 85.7607 75.5479 86.269C77.3859 101.229 78.4109 116.29 78.6169 131.362C78.6453 133.441 80.4596 135.113 82.4079 135.793C84.5249 136.531 86.8286 136.41 89.0649 136.28C86.6529 137.916 83.1649 137.705 80.9639 135.79L80.9063 135.74ZM88.9359 134.504C87.4236 135.552 85.4123 135.415 83.6066 135.086C82.5369 134.892 81.3956 134.597 80.7026 133.752C79.9879 132.881 79.9336 131.656 79.9086 130.526C79.5729 115.408 78.4843 100.307 76.6479 85.2987L82.5446 87.3337C83.9443 87.817 85.4376 88.3687 86.2889 89.589C87.0266 90.646 87.1393 92.0073 87.2279 93.2967L88.3679 109.879C88.9313 118.077 89.4949 126.306 88.9359 134.504ZM114.034 139.236C112.236 138.754 110.389 138.457 108.531 138.35L108.436 138.344C107.078 138.267 105.547 138.179 104.709 137.123C104.312 136.623 104.148 135.984 104.001 135.364C101.078 123.07 100.8 110.326 100.536 97.695L100.409 91.6117C100.4 91.1903 100.384 90.744 100.152 90.391C99.9209 90.0383 99.3916 89.845 99.0629 90.1103L99.5943 110.969C99.6316 112.429 99.6686 113.888 99.7539 115.346C100.147 122.048 101.555 128.646 102.959 135.213C103.316 136.883 104.041 138.907 105.744 139.103L114.283 140.088C114.353 140.097 114.426 140.105 114.494 140.084C114.913 139.955 114.457 139.35 114.034 139.236ZM144.965 129.212C145.05 131.588 145.071 134.176 143.629 136.068C145.762 134.68 145.916 131.673 145.841 129.13L145.183 106.862C145.01 101.037 144.827 95.141 143.218 89.5403C142.925 88.5203 142.558 87.4697 141.788 86.7387C141.018 86.0077 139.73 85.7167 138.886 86.361C137.202 87.6473 134.963 87.6913 132.805 87.7337C132.47 87.74 132.138 87.7467 131.81 87.7577C129.362 87.8407 126.517 88.5523 125.587 90.816C125.015 92.2083 125.358 93.7817 125.681 95.257L125.703 95.3573C127.466 103.441 127.705 111.728 127.944 120.019C128.053 123.802 128.163 127.586 128.417 131.352C128.568 133.59 128.805 135.928 130.038 137.802C130.282 138.172 130.574 138.529 130.967 138.736C131.339 138.932 131.771 138.977 132.19 139.012C134.456 139.196 136.793 139.15 138.924 138.36C141.056 137.57 142.967 135.934 143.628 133.76C144.032 132.434 143.953 131.016 143.876 129.63L143.874 129.586C143.456 122.073 143.354 114.543 143.569 107.021C143.577 106.739 143.585 106.455 143.594 106.172C143.762 100.521 143.935 94.6777 141.583 89.56C141.269 88.876 140.886 88.1827 140.256 87.7703C140.223 87.749 140.189 87.7277 140.155 87.706C139.909 87.5507 139.642 87.3823 139.622 87.1027C140.119 86.744 140.854 86.916 141.304 87.3317C141.755 87.7477 141.985 88.3443 142.183 88.9243C142.957 91.192 143.468 93.549 143.702 95.9333C143.829 97.221 143.875 98.515 143.92 99.8083L144.965 129.212ZM126.875 89.9027C127.759 88.8807 129.261 88.7263 130.611 88.644L137.748 88.2087C138.464 88.165 139.243 88.1387 139.826 88.556C140.226 88.8417 140.468 89.294 140.674 89.7397C142.327 93.3153 142.505 97.3733 142.586 101.311C142.814 112.292 142.504 123.283 141.658 134.233C141.567 135.413 140.637 136.395 139.562 136.893C138.487 137.39 137.277 137.492 136.097 137.586L132.8 137.851C132.392 137.883 131.962 137.912 131.595 137.73C131.059 137.465 130.822 136.839 130.65 136.266C128.868 130.344 128.86 124.136 128.853 117.914C128.849 114.657 128.845 111.396 128.587 108.17C128.216 103.535 127.316 98.961 126.419 94.398L126.404 94.3223C126.107 92.8143 125.869 91.0653 126.875 89.9027ZM159.231 142.632C159.849 143.245 160.641 143.685 161.493 143.887C162.222 144.06 162.691 144.927 162.431 145.62C162.451 145.72 162.293 145.773 162.21 145.713C162.138 145.661 162.11 145.573 162.082 145.488L162.082 145.487C162.078 145.473 162.073 145.46 162.069 145.447C161.862 144.836 161.19 144.53 160.59 144.275C159.741 143.914 158.874 143.495 158.309 142.773C157.744 142.051 157.582 140.944 158.18 140.249C158.571 139.793 159.188 139.605 159.769 139.439C160.544 139.218 161.358 138.994 162.147 139.158L162.327 139.512C162.701 139.74 163.226 139.691 163.551 139.399C163.912 139.074 164.463 139.099 164.95 139.143L167.58 139.382C167.708 139.394 167.843 139.408 167.948 139.482C168.259 139.702 168.01 140.235 167.642 140.34C167.378 140.416 167.103 140.364 166.827 140.312H166.827C166.72 140.292 166.613 140.272 166.507 140.259C166.375 140.243 166.236 140.24 166.113 140.29C165.746 140.441 165.722 140.951 165.837 141.327C165.857 141.392 165.879 141.457 165.901 141.523C166.007 141.84 166.117 142.167 165.995 142.468C165.653 142.621 165.255 142.31 165.153 141.955C165.075 141.685 165.107 141.402 165.14 141.12C165.142 141.098 165.145 141.076 165.147 141.054C165.149 141.035 165.151 141.016 165.153 140.998C165.156 140.973 165.159 140.949 165.161 140.925C165.163 140.901 165.165 140.877 165.167 140.853C165.195 140.485 165.135 140.064 164.833 139.845C163.612 140.42 162.233 140.665 160.884 140.547C160.778 140.537 160.671 140.526 160.564 140.514C160.223 140.477 159.881 140.44 159.54 140.475C159.093 140.522 158.633 140.718 158.406 141.101C158.581 141.212 158.711 141.39 158.762 141.589L163.064 142.419C162.745 142.766 162.203 142.77 161.728 142.748L159.231 142.632ZM120.484 131.275C119.613 120.858 119.337 110.391 119.656 99.9427L119.664 99.7063C119.734 97.4167 119.806 95.0927 119.207 92.884C118.587 90.599 117.116 88.4107 114.901 87.5473C113.615 87.046 112.197 87.0267 110.816 87.0137C107.219 86.9803 103.591 86.9497 100.067 87.667C98.8996 87.9047 97.6229 88.3187 97.0619 89.365C96.6733 90.0893 96.7209 90.9583 96.7786 91.7777L99.9153 136.336C99.9756 137.192 100.053 138.097 100.556 138.793C101.078 139.517 101.962 139.878 102.811 140.158C106.416 141.347 110.294 141.707 114.058 141.203C113.715 140.718 113.052 140.606 112.461 140.534L105.108 139.646C104.367 139.556 103.604 139.459 102.957 139.09C101.391 138.195 101.074 136.122 100.927 134.332C99.7539 119.974 98.5799 105.613 97.9619 91.221C97.9286 90.4417 97.9666 89.5173 98.6209 89.0873C98.9523 88.8693 99.3689 88.838 99.7649 88.813L110.576 88.1307C111.797 88.0537 113.058 87.982 114.208 88.3987C115.799 88.9753 116.939 90.421 117.588 91.9777C118.58 94.353 118.6 97.0037 118.567 99.5757C118.543 101.427 118.5 103.28 118.456 105.134V105.134C118.289 112.22 118.122 119.314 119.064 126.329C119.11 126.668 119.157 127.011 119.205 127.355L119.206 127.357C119.766 131.384 120.365 135.683 118.188 139.055L118.167 139.087L118.151 139.111C117.988 139.362 117.819 139.623 117.811 139.919C117.802 140.238 118.088 140.583 118.397 140.498C118.518 140.465 118.614 140.375 118.701 140.286C120.918 138.018 120.747 134.427 120.484 131.275ZM103.728 61.1247C105.136 61.1797 106.633 61.5193 107.603 62.5753C107.792 62.7807 107.96 63.0123 108.128 63.243C108.478 63.724 108.826 64.202 109.351 64.4357C108.547 64.1473 107.67 64.0813 106.834 64.2467C106.544 64.3043 106.259 64.389 105.974 64.4733C105.524 64.607 105.075 64.7403 104.609 64.7657L105.539 63.9493C105.872 63.6573 106.248 63.3487 106.684 63.3633C106.756 62.622 106.183 61.917 105.486 61.7227C104.789 61.5287 104.028 61.7747 103.455 62.2273C102.882 62.68 102.472 63.3177 102.133 63.975C101.997 64.2363 101.813 64.542 101.526 64.5383C101.288 64.4183 101.298 64.057 101.413 63.8113C101.447 63.7403 101.486 63.671 101.525 63.602V63.6017H101.526C101.623 63.431 101.72 63.2607 101.726 63.0667C101.742 62.5707 101.195 62.2883 100.74 62.1317C100.285 61.975 99.7346 61.8353 99.3683 62.154C99.1019 62.3857 99.0403 62.777 98.9963 63.1337L98.8463 64.3453C98.0649 64.6197 97.2029 64.6443 96.4083 64.415C97.3489 63.829 98.3833 63.106 98.5576 61.9863C100.204 61.3513 101.972 61.0567 103.728 61.1247ZM62.5349 128.187C62.7013 127.341 62.6026 126.266 61.8233 125.901C61.2833 125.649 60.6979 125.858 60.1133 126.068C59.8943 126.146 59.6756 126.224 59.4593 126.278C58.2429 126.582 56.8616 126.011 56.2123 124.936C55.7206 124.122 54.3589 124.548 53.9073 125.385C53.6219 125.914 53.5463 126.513 53.4703 127.116C53.4256 127.467 53.3809 127.82 53.2946 128.16C53.0599 129.083 52.2229 130.032 51.3123 129.761C50.5869 129.546 49.7413 129.833 49.2959 130.446C48.8506 131.059 48.8373 131.954 49.2643 132.58C49.7829 133.34 50.7203 133.573 51.6426 133.802C51.9059 133.868 52.1683 133.933 52.4189 134.01C52.8509 134.143 53.2933 134.343 53.5406 134.722C53.7883 135.101 53.7449 135.697 53.3506 135.917C52.7043 136.278 52.7573 137.344 53.3426 137.797C53.9283 138.251 54.7946 138.166 55.4339 137.793C56.0733 137.42 56.5373 136.813 56.9843 136.222C57.6719 135.312 59.1213 135.11 60.0309 135.796C60.0263 135.002 60.4769 134.222 61.1659 133.831C61.8549 133.439 62.7543 133.453 63.4309 133.865C64.0236 133.625 63.9846 132.731 63.6173 132.206C63.4679 131.993 63.2843 131.805 63.1009 131.617C62.8336 131.342 62.5673 131.069 62.4113 130.722C62.1186 130.071 62.2819 129.338 62.4409 128.625H62.4413C62.4739 128.478 62.5066 128.331 62.5349 128.187ZM60.4726 126.726C60.9473 126.617 61.5133 126.672 61.8179 127.053C62.2139 127.548 61.9529 128.15 61.6806 128.778C61.4586 129.291 61.2286 129.822 61.3413 130.327C61.4306 130.727 61.7263 131.043 62.0099 131.338L63.3543 132.734C62.7849 133.263 61.9983 133.047 61.1909 132.824C60.4649 132.625 59.7223 132.42 59.1063 132.75C58.6553 132.991 58.3963 133.462 58.1466 133.917C58.1169 133.971 58.0876 134.024 58.0583 134.077C57.2809 135.467 56.1423 136.652 54.7856 137.482C54.6129 137.588 54.4216 137.692 54.2199 137.672C53.7279 137.624 53.6036 136.945 53.7276 136.465C53.8733 135.9 54.1703 135.375 54.4649 134.855C54.8903 134.104 55.3103 133.363 55.2616 132.521C54.7443 133.379 53.6193 133.706 52.6289 133.566C51.6389 133.426 50.7473 132.909 49.8843 132.403C49.2883 132.053 49.5016 131.048 50.0959 130.695C50.6899 130.342 51.4356 130.438 52.1193 130.537C52.8026 130.636 53.5553 130.713 54.1333 130.334C53.8483 129.065 53.9129 127.718 54.3176 126.482C54.4636 126.036 54.6766 125.576 55.0779 125.334C55.4793 125.092 56.1073 125.191 56.2743 125.63C56.6876 126.718 57.9453 127.409 59.0829 127.172C59.3299 127.121 59.5666 127.032 59.8036 126.944C60.0236 126.861 60.2439 126.779 60.4726 126.726ZM60.2099 133.235C60.3246 133.629 60.2616 134.072 60.0416 134.419L60.1053 134.484C59.7249 134.683 59.2389 134.662 58.8773 134.431L59.2609 133.442C59.5493 133.286 59.8826 133.213 60.2099 133.235ZM164.898 150.35C163.671 148.374 162.87 146.143 162.565 143.847C163.408 144.062 163.843 144.986 163.982 145.832C164.021 146.068 164.047 146.309 164.072 146.55C164.138 147.171 164.204 147.791 164.497 148.336C164.905 149.093 166.004 149.586 166.656 149.018C166.818 148.877 166.94 148.684 167.06 148.494C167.257 148.184 167.447 147.882 167.796 147.83C168.229 147.765 168.581 148.149 168.843 148.495L170.449 150.615C170.869 150.489 170.897 150.043 170.926 149.57C170.944 149.279 170.963 148.978 171.074 148.735C171.331 148.175 171.964 148.084 172.624 147.99C173.087 147.924 173.564 147.856 173.932 147.623C174.594 147.203 174.772 146.279 174.526 145.543C174.279 144.807 173.704 144.227 173.108 143.72C172.245 142.986 172.396 141.793 172.55 140.587C172.697 139.43 172.846 138.26 172.103 137.47C171.066 136.366 169.22 136.954 167.848 137.614L167.264 136.945C168.384 136.537 168.587 134.902 167.857 133.971C167.127 133.041 165.836 132.722 164.642 132.717C164.469 132.716 164.281 132.725 164.148 132.834C163.734 133.172 164.318 133.766 164.818 133.962L167.259 134.92C166.695 135.302 165.95 135.076 165.227 134.856C164.443 134.618 163.685 134.387 163.211 134.95C162.678 135.583 163.24 136.569 163.962 136.981C164.241 137.14 164.544 137.26 164.846 137.38C165.326 137.57 165.804 137.758 166.178 138.102C165.692 138.346 165.14 138.168 164.602 137.995C164.466 137.951 164.33 137.907 164.197 137.871C163.538 137.691 162.584 137.915 162.592 138.588C161.915 137.84 162.094 136.693 162.314 135.715C162.562 134.62 162.829 133.484 163.533 132.602C164.237 131.719 165.513 131.171 166.549 131.641C167.432 132.041 167.845 132.985 168.239 133.885L168.24 133.886C168.3 134.024 168.36 134.162 168.422 134.296C168.882 135.303 169.798 136.369 170.896 136.142C171.893 135.935 172.89 136.677 173.306 137.591C173.723 138.506 173.699 139.547 173.668 140.549C173.636 141.553 174.092 142.473 174.546 143.39C174.699 143.699 174.851 144.007 174.985 144.318C175.517 145.553 175.658 147.213 174.574 148.027C174.207 148.303 173.76 148.43 173.312 148.558C173.105 148.617 172.899 148.675 172.7 148.749C172.068 148.982 171.43 149.501 171.483 150.163C171.49 150.249 171.509 150.336 171.528 150.422C171.56 150.568 171.592 150.713 171.565 150.858C171.489 151.268 170.96 151.463 170.553 151.347C170.147 151.231 169.842 150.906 169.559 150.596L167.765 148.625C167.264 149.684 166.084 150.394 164.898 150.35ZM164.626 86.6847C163.371 85.3227 161.834 84.081 160.004 83.8047C159.811 83.7753 159.616 83.7573 159.421 83.739C159.028 83.7023 158.635 83.6657 158.262 83.5397C157.764 83.371 157.331 83.0513 156.93 82.7107C156.387 82.2487 155.863 81.7277 155.339 81.2057C153.796 79.6697 152.243 78.124 150.148 78.0427C147.941 77.9567 145.87 79.9383 145.855 82.1483C145.843 84.0027 147.042 85.617 148.186 87.0757L168.081 112.443L180.416 128.171C182.009 130.202 184.102 132.449 186.657 132.095C188.953 131.777 190.495 129.08 189.84 126.854C189.589 125.999 189.094 125.252 188.597 124.504C188.164 123.851 187.731 123.198 187.457 122.47C187.022 121.31 187.026 120.065 187.03 118.814C187.033 117.856 187.036 116.896 186.842 115.968C186.412 113.912 185.059 112.185 183.682 110.6C182.937 109.743 182.147 108.473 182.859 107.588C183.707 106.535 183.284 104.98 182.748 103.738C181.03 99.752 178.534 96.1027 175.444 93.0563C174.12 91.7523 172.195 90.4827 170.54 91.3247C169.842 91.6797 169.007 91.244 168.399 90.7503C167.428 89.9617 166.619 89.0037 165.809 88.0453C165.421 87.5857 165.032 87.126 164.626 86.6847ZM147.835 80.0097C148.653 79.2087 149.89 78.8627 151.005 79.1227C152.279 79.4197 153.265 80.4067 154.126 81.3923C156.399 83.9927 158.316 86.8773 160.228 89.7557C160.442 90.0773 160.655 90.3987 160.869 90.7193C168.914 102.784 177.713 114.344 187.198 125.311C188.126 126.384 189.126 127.707 188.763 129.079C188.353 130.632 186.307 131.235 184.799 130.685C183.291 130.135 182.219 128.814 181.225 127.553L148.416 85.889C147.764 85.0613 147.093 84.1933 146.877 83.1617C146.643 82.0403 147.017 80.8107 147.835 80.0097ZM174.431 104.333C173.77 103.479 173.063 102.639 172.165 102.039C171.732 101.75 171.243 101.5 170.755 101.251C169.505 100.613 168.259 99.9763 167.953 98.6777C167.856 98.2653 167.878 97.841 167.9 97.4153C167.917 97.083 167.934 96.7503 167.895 96.422C167.83 95.883 167.616 95.374 167.382 94.884C165.611 91.166 162.568 88.07 158.883 86.2373C158.272 85.9333 158.651 84.8737 159.32 84.7423C159.989 84.6107 160.627 85.0447 161.16 85.471C166.429 89.6853 170.28 95.2543 174.142 100.84C176.499 104.249 178.861 107.664 181.551 110.781C181.81 111.081 182.073 111.379 182.335 111.678C183.799 113.34 185.274 115.015 186.153 117.037C184.999 117.243 183.999 118.151 183.681 119.28C181.757 117.468 180.595 115.051 179.44 112.648C179.143 112.032 178.847 111.416 178.539 110.812C177.375 108.531 175.997 106.358 174.431 104.333ZM179.896 106.474C179.776 106.593 179.626 106.695 179.457 106.702C179.169 106.714 178.951 106.456 178.781 106.223L171.073 95.6467C170.777 95.2397 170.983 94.607 171.415 94.3487C171.847 94.0903 172.412 94.1513 172.86 94.38C173.308 94.6087 173.664 94.982 174.003 95.353C176.075 97.6153 177.93 100.076 179.536 102.689C179.896 103.275 180.249 103.883 180.381 104.557C180.513 105.231 180.387 105.994 179.896 106.474ZM181.025 105.438C181.163 104.895 180.929 104.332 180.686 103.827C178.942 100.191 176.493 96.8953 173.516 94.177C173.034 93.737 172.407 93.2817 171.788 93.4857C171.559 93.5607 171.373 93.716 171.186 93.872C171.077 93.963 170.968 94.054 170.85 94.13C170.529 94.3357 170.019 94.378 169.837 94.043C169.696 93.784 169.843 93.459 170.04 93.2393C170.717 92.4813 171.91 92.3773 172.863 92.7293C173.817 93.0813 174.582 93.8003 175.302 94.5187C177.893 97.1063 180.309 100.021 181.442 103.505C181.947 105.061 182.107 106.969 180.971 108.145C180.877 108.242 180.771 108.335 180.643 108.38C180.237 108.522 179.814 108.089 179.804 107.659C179.794 107.229 180.059 106.845 180.335 106.514C180.364 106.479 180.394 106.444 180.424 106.409C180.674 106.113 180.93 105.81 181.025 105.438ZM164.297 91.0453C165.346 92.5723 166.258 94.194 167.018 95.884C167.123 96.116 167.219 96.4057 167.063 96.6073C166.951 96.7537 166.717 96.7867 166.568 96.6767C164.381 94.018 162.411 91.1817 160.682 88.204C160.837 88.26 161.064 88.1773 161.05 88.0133C162.441 88.5803 163.446 89.8067 164.297 91.0453ZM171.961 103.935C171.768 103.656 171.605 103.21 171.896 103.036C173.177 103.616 174.054 104.813 174.853 105.972C176.018 107.662 177.144 109.379 178.23 111.121C178.49 111.538 178.714 112.163 178.315 112.45C177.634 112.141 177.176 111.497 176.752 110.882L171.961 103.935ZM184.7 119.775C184.597 119.731 184.526 119.635 184.478 119.534C184.187 118.926 184.822 118.112 185.482 118.247C185.51 118.839 185.345 119.44 185.018 119.934C184.985 119.856 184.898 119.833 184.811 119.81C184.773 119.8 184.734 119.79 184.7 119.775ZM186.194 121.202C185.992 121.422 185.6 121.421 185.399 121.201C185.186 120.644 185.443 119.947 185.967 119.662L186.194 121.202Z" fill="#00160A"/>
</g>
</g>
</g>
</svg>
