<svg width="24" height="24" viewBox="0 0 24 24" fill="none" xmlns="http://www.w3.org/2000/svg">
<path id="Path 1784" d="M19.1317 0.883335C18.2294 0.788716 17.3786 1.26889 16.4909 1.46521C14.6655 1.86529 12.7955 1.03607 10.9188 1.04315C9.3056 1.13487 7.73634 1.60322 6.33679 2.41066C5.20491 2.94558 4.17204 3.66872 3.28215 4.54928C2.38725 5.44403 1.86624 6.64571 1.82485 7.91051C1.94884 8.635 1.92655 9.37698 1.75929 10.0927C1.57012 10.4536 1.34551 10.7948 1.08877 11.1112C0.856536 11.484 0.708248 11.9029 0.654211 12.3388C0.600175 12.7747 0.641687 13.2171 0.775852 13.6354C1.15189 14.4639 1.66046 15.2256 2.28157 15.8906C3.48927 17.4399 4.24585 19.295 5.32951 20.9393C5.80234 21.653 6.3327 22.3269 6.91531 22.9543C7.01064 23.0654 7.12682 23.1568 7.25728 23.2232C7.38562 23.2683 7.5215 23.2881 7.65737 23.2813C9.95618 23.3469 12.3351 23.3976 14.4517 22.4957C15.1298 22.2606 15.7056 21.7979 16.0811 21.1863C16.3864 20.3472 16.4419 19.4375 16.2409 18.5675C16.1447 17.5985 16.1667 16.6214 16.3065 15.6578C16.3161 15.3323 16.4493 15.0227 16.679 14.792C16.8526 14.6842 17.0516 14.6239 17.2559 14.6174C17.4602 14.6109 17.6626 14.6582 17.8427 14.7548C18.2024 14.9441 18.5951 15.0626 18.9994 15.1038C19.7925 15.1038 20.2943 14.2016 20.4545 13.416C20.3671 12.7099 20.4716 11.9934 20.7571 11.3417C21.0426 10.6901 21.4985 10.1275 22.0768 9.71312C22.6217 9.02152 22.9959 8.21121 23.169 7.34793C23.3422 6.48465 23.3094 5.59271 23.0733 4.74448C22.5506 3.1095 20.9503 1.06512 19.1317 0.883335Z" fill="#2F2E41"/>
</svg>
