<svg width="112" height="32" viewBox="0 0 112 32" fill="none" xmlns="http://www.w3.org/2000/svg">
<path id="Path 2356" d="M109.396 31.2281H2.01194C1.48477 31.2274 0.979377 31.0177 0.606611 30.6449C0.233844 30.2721 0.0241275 29.7668 0.0234375 29.2396V2.60158C0.0240291 2.07438 0.233709 1.56895 0.606497 1.19616C0.979285 0.82337 1.48474 0.61369 2.01194 0.613098H109.396C109.924 0.613788 110.429 0.823505 110.802 1.19627C111.175 1.56904 111.384 2.07441 111.385 2.60158V29.2392C111.384 29.7664 111.175 30.2718 110.802 30.6445C110.429 31.0173 109.924 31.2274 109.396 31.2281ZM2.01194 1.40693C1.696 1.40762 1.39318 1.53344 1.16978 1.75684C0.94637 1.98025 0.820569 2.28305 0.819881 2.59899V29.2366C0.820569 29.5525 0.94637 29.8554 1.16978 30.0788C1.39318 30.3022 1.696 30.428 2.01194 30.4287H109.396C109.712 30.4281 110.015 30.3023 110.239 30.0789C110.462 29.8554 110.588 29.5526 110.589 29.2366V2.60158C110.588 2.28564 110.462 1.98284 110.239 1.75944C110.015 1.53603 109.712 1.41023 109.396 1.40954L2.01194 1.40693Z" fill="#3F3D56"/>
</svg>
