<svg width="32" height="32" viewBox="0 0 32 32" fill="none" xmlns="http://www.w3.org/2000/svg">
<path d="M28 8.88753C27.7646 9.00943 27.4904 9.03287 27.2378 8.95271C26.9851 8.87255 26.7746 8.69534 26.6525 8.46003C25.698 6.57439 24.2532 4.98065 22.47 3.84628C22.3589 3.77619 22.2626 3.68489 22.1868 3.57761C22.1109 3.47032 22.057 3.34915 22.0279 3.221C21.9989 3.09286 21.9954 2.96025 22.0177 2.83075C22.0399 2.70126 22.0874 2.57741 22.1575 2.46628C22.2276 2.35515 22.3189 2.25891 22.4262 2.18306C22.5335 2.10721 22.6546 2.05324 22.7828 2.02422C22.9109 1.9952 23.0435 1.99171 23.173 2.01394C23.3025 2.03617 23.4264 2.08369 23.5375 2.15378C25.6158 3.48445 27.3033 5.34323 28.4275 7.54003C28.5494 7.77543 28.5728 8.04959 28.4927 8.30227C28.4125 8.55495 28.2353 8.76546 28 8.88753ZM4.46375 9.00003C4.64696 8.99995 4.82662 8.94955 4.98313 8.85432C5.13964 8.75909 5.26698 8.6227 5.35125 8.46003C6.30576 6.57439 7.75053 4.98065 9.53375 3.84628C9.75819 3.70472 9.91721 3.4798 9.97581 3.221C10.0344 2.9622 9.98781 2.69072 9.84625 2.46628C9.70469 2.24184 9.47977 2.08283 9.22097 2.02422C8.96217 1.96562 8.69069 2.01222 8.46625 2.15378C6.38801 3.48445 4.70048 5.34323 3.57625 7.54003C3.4973 7.69243 3.4589 7.86258 3.46475 8.03412C3.47061 8.20566 3.52051 8.3728 3.60966 8.51946C3.69882 8.66613 3.82422 8.78738 3.9738 8.87154C4.12339 8.95571 4.29212 8.99996 4.46375 9.00003ZM27.7263 21.9925C27.9034 22.2963 27.9973 22.6415 27.9985 22.9932C27.9998 23.3448 27.9082 23.6906 27.7331 23.9956C27.5581 24.3007 27.3057 24.5541 27.0014 24.7304C26.6971 24.9068 26.3517 24.9998 26 25H20.9C20.6705 26.1303 20.0573 27.1465 19.1643 27.8764C18.2713 28.6063 17.1534 29.005 16 29.005C14.8466 29.005 13.7288 28.6063 12.8357 27.8764C11.9427 27.1465 11.3295 26.1303 11.1 25H6C5.64853 24.9993 5.30345 24.906 4.99951 24.7295C4.69558 24.553 4.44353 24.2995 4.26875 23.9946C4.09398 23.6896 4.00265 23.344 4.00396 22.9925C4.00528 22.6411 4.0992 22.2962 4.27625 21.9925C5.4025 20.0488 6 17.285 6 14C6 11.3479 7.05357 8.80433 8.92894 6.92896C10.8043 5.0536 13.3478 4.00003 16 4.00003C18.6522 4.00003 21.1957 5.0536 23.0711 6.92896C24.9464 8.80433 26 11.3479 26 14C26 17.2838 26.5975 20.0475 27.7263 21.9925ZM18.8275 25H13.1725C13.3797 25.5843 13.7628 26.09 14.2691 26.4477C14.7754 26.8054 15.3801 26.9974 16 26.9974C16.6199 26.9974 17.2246 26.8054 17.7309 26.4477C18.2372 26.09 18.6203 25.5843 18.8275 25ZM26 23C24.67 20.7163 24 17.6888 24 14C24 11.8783 23.1572 9.84347 21.6569 8.34317C20.1566 6.84288 18.1217 6.00003 16 6.00003C13.8783 6.00003 11.8434 6.84288 10.3431 8.34317C8.84286 9.84347 8 11.8783 8 14C8 17.69 7.3275 20.7175 6 23H26Z" fill="#1C1C1C"/>
</svg>
