<svg width="32" height="32" viewBox="0 0 32 32" fill="none" xmlns="http://www.w3.org/2000/svg">
<path d="M28.6663 12.2763L6.67625 4.12503L6.65625 4.11878C6.30229 3.99691 5.92123 3.97682 5.55642 4.06081C5.19162 4.1448 4.8577 4.32949 4.59267 4.59387C4.32764 4.85826 4.14213 5.19171 4.05724 5.55631C3.97235 5.92092 3.9915 6.30202 4.1125 6.65628C4.11402 6.66311 4.11611 6.6698 4.11875 6.67628L12.2762 28.6663C12.4102 29.0584 12.6643 29.3983 13.0025 29.6377C13.3407 29.8771 13.7457 30.0039 14.16 30H14.1975C14.62 29.9968 15.0303 29.8579 15.3679 29.6038C15.7055 29.3497 15.9525 28.9939 16.0725 28.5888L19.0175 19.0188L28.5875 16.0738C28.9896 15.95 29.3425 15.7026 29.5959 15.3668C29.8493 15.0309 29.9903 14.6237 29.9989 14.203C30.0075 13.7824 29.8832 13.3698 29.6437 13.0238C29.4042 12.6779 29.0617 12.4163 28.665 12.2763H28.6663ZM28 14.1625L18.43 17.1075C18.1185 17.2035 17.8351 17.3742 17.6046 17.6047C17.3741 17.8352 17.2035 18.1185 17.1075 18.43L14.1625 28L14.155 27.9788L6 6.00003L27.9775 14.1525L27.9975 14.16L28 14.1625Z" fill="#1C1C1C"/>
</svg>
