<svg width="67" height="4" viewBox="0 0 67 4" fill="none" xmlns="http://www.w3.org/2000/svg">
<path id="Path 2357" d="M1.40553 0.670654C1.04749 0.670654 0.704108 0.812893 0.450933 1.06607C0.197758 1.31924 0.055542 1.66262 0.055542 2.02067C0.055542 2.37871 0.197758 2.72209 0.450933 2.97527C0.704108 3.22844 1.04749 3.37068 1.40553 3.37068H65.0524C65.2297 3.37103 65.4053 3.33645 65.5693 3.26893C65.7332 3.20141 65.8822 3.10227 66.0078 2.97715C66.1334 2.85204 66.2331 2.70342 66.3013 2.53977C66.3695 2.37611 66.4047 2.20064 66.4051 2.02335C66.4054 1.84607 66.3709 1.67045 66.3034 1.50652C66.2358 1.3426 66.1367 1.19356 66.0116 1.06795C65.8865 0.942347 65.7378 0.842615 65.5742 0.774447C65.4105 0.706279 65.2351 0.671005 65.0578 0.670654H1.40553Z" fill="#E6E6E6"/>
</svg>
