<svg width="43" height="42" viewBox="0 0 43 42" fill="none" xmlns="http://www.w3.org/2000/svg">
<g id="cbi:ceiling-fair-semiflush">
<path id="Vector" d="M21.7881 17.8762C16.6038 17.8762 6.8125 18.69 6.8125 21.7612L6.865 27.3262C6.8125 29.9381 16.7613 30.9619 21.8013 30.9619C26.8675 30.9619 36.3175 30.1744 36.7375 27.2737L36.7769 21.7744C36.7769 18.69 26.9725 17.8762 21.7881 17.8762ZM21.7881 29.6494C12.9419 29.6494 8.125 27.9431 8.125 27.0769C8.125 26.3944 11.0388 25.2262 16.4594 24.7406C18.7431 24.6225 21.2238 24.57 23.6913 24.5437C31.33 24.7669 35.4644 26.2762 35.4644 27.09C35.4644 27.9431 30.6344 29.6494 21.7881 29.6494ZM21.8275 26.3287C21.5388 26.3287 19.0056 26.355 19.0056 27.3656C19.0056 28.3762 21.5388 28.4025 21.8275 28.4025C22.1163 28.4025 24.6625 28.3762 24.6625 27.3656C24.6625 26.355 22.1163 26.3287 21.8275 26.3287ZM21.0794 15.7631V17.8762H22.3919V15.7631C24.0194 15.6712 25.6731 15.1856 25.6731 14.07V13.5188C25.6731 12.2588 23.56 11.8125 21.7488 11.8125C19.9375 11.8125 17.8244 12.2588 17.8244 13.5188V14.07C17.8112 15.1856 19.4519 15.6581 21.0794 15.7631Z" fill="#FFCC80"/>
</g>
</svg>
