<svg width="90" height="90" viewBox="0 0 90 90" fill="none" xmlns="http://www.w3.org/2000/svg" xmlns:xlink="http://www.w3.org/1999/xlink">
<mask id="mask_0_i_332_493;121_76" style="mask-type:alpha" maskUnits="userSpaceOnUse" x="19.236328" y="17.61084" width="26.07093" height="26.067421">
<path d="M31.076,65.549L32.028,66.113C36.031,68.488 40.619,69.744 45.297,69.746L45.308,69.746C59.677,69.746 71.373,58.056 71.378,43.688C71.381,36.725 68.672,30.178 63.75,25.253C58.827,20.327 52.282,17.613 45.318,17.611C30.937,17.611 19.242,29.299 19.236,43.666C19.234,48.59 20.613,53.385 23.222,57.534L23.842,58.52L21.209,68.136L31.076,65.549ZM61.11,51.145C60.914,50.818 60.392,50.622 59.608,50.23C58.824,49.838 54.971,47.943 54.253,47.681C53.534,47.42 53.012,47.289 52.489,48.073C51.967,48.857 50.465,50.622 50.007,51.145C49.55,51.667 49.093,51.733 48.31,51.341C47.526,50.949 45,50.121 42.007,47.453C39.677,45.375 38.104,42.81 37.647,42.026C37.19,41.242 37.598,40.818 37.99,40.427C38.343,40.076 38.774,39.512 39.166,39.055C39.558,38.598 39.689,38.271 39.95,37.748C40.211,37.225 40.08,36.768 39.885,36.376C39.689,35.983 38.121,32.128 37.468,30.559C36.832,29.032 36.186,29.238 35.705,29.214C35.248,29.192 34.725,29.187 34.203,29.187C33.68,29.187 32.831,29.383 32.112,30.167C31.394,30.951 29.369,32.847 29.369,36.702C29.369,40.558 32.178,44.283 32.57,44.806C32.962,45.329 38.096,53.241 45.958,56.634C47.828,57.441 49.288,57.923 50.426,58.284C52.304,58.88 54.012,58.796 55.363,58.595C56.869,58.37 60,56.7 60.653,54.87C61.306,53.04 61.306,51.471 61.11,51.145Z" clip-rule="evenodd" fill-rule="evenodd" fill="#000000"/>
</mask>
<g mask="url(#mask_0_i_332_493;121_76)">
<rect  x="0.25" y="0.25" width="88.13" height="88.13" fill="url(#pf_0_i_332_493;121_77)"/>
</g>
<defs>
<linearGradient id="pf_0_i_332_493;121_77" x1="44.315" y1="88.38" x2="44.315" y2="0.25" gradientUnits="userSpaceOnUse">
<stop stop-color="#25CF43"/>
<stop offset="1" stop-color="#61FD7D"/>
</linearGradient>
</defs>
</svg>
