<svg width="520" height="520" viewBox="0 0 520 520" fill="none" xmlns="http://www.w3.org/2000/svg" xmlns:xlink="http://www.w3.org/1999/xlink">
<path d="M517.342,260C518.81,260 520.002,258.81 519.986,257.342C519.646,224.102 512.936,191.228 500.208,160.502C487.142,128.958 467.99,100.295 443.848,76.152C419.704,52.009 391.042,32.858 359.498,19.791C327.954,6.725 294.144,0 260,0C225.856,0 192.047,6.725 160.502,19.791C128.958,32.858 100.295,52.009 76.152,76.152C52.009,100.295 32.858,128.958 19.791,160.502C7.064,191.228 0.353,224.102 0.014,257.342C-0.001,258.81 1.19,260 2.658,260L2.658,260C4.126,260 5.315,258.81 5.33,257.342C5.67,224.8 12.243,192.618 24.703,162.537C37.502,131.637 56.262,103.561 79.911,79.911C103.561,56.262 131.637,37.502 162.537,24.703C193.436,11.904 226.554,5.316 260,5.316C293.446,5.316 326.564,11.904 357.464,24.703C388.364,37.502 416.44,56.262 440.088,79.911C463.738,103.561 482.498,131.637 495.298,162.537C507.758,192.618 514.33,224.8 514.67,257.342C514.686,258.81 515.874,260 517.342,260L517.342,260Z" fill="url(#pf_0_300_2178)"/>
<circle cx="410" cy="52" r="16" fill="#FFFFFF" stroke="#FFCC80" stroke-width="4" stroke-miterlimit="3.999327"/>
<defs>
<linearGradient id="pf_0_300_2178" x1="260" y1="0" x2="106.836" y2="434.909" gradientUnits="userSpaceOnUse">
<stop stop-color="#FFC266"/>
<stop offset="1" stop-color="#FFE0B2"/>
</linearGradient>
</defs>
</svg>
