<svg width="550" height="406" viewBox="0 0 550 406" fill="none" xmlns="http://www.w3.org/2000/svg" xmlns:xlink="http://www.w3.org/1999/xlink">
<path d="M108.713,210.411L101.467,133.601L79.861,134.346L96.965,210.196C95.569,211.368 94.565,212.937 94.085,214.694C93.606,216.452 93.674,218.314 94.282,220.032C94.89,221.749 96.007,223.24 97.485,224.305C98.963,225.371 100.731,225.959 102.552,225.993C104.374,226.026 106.162,225.502 107.678,224.492C109.193,223.481 110.365,222.032 111.034,220.338C111.704,218.643 111.841,216.785 111.426,215.011C111.011,213.237 110.065,211.632 108.713,210.411Z" fill="#FFB8B8"/>
<path d="M519.467,381.608C519.268,389.047 518.022,396.421 515.766,403.512C515.714,403.677 515.66,403.839 515.606,404.003L501.791,404.003C501.806,403.854 501.821,403.691 501.835,403.512C502.756,392.923 508.066,328.475 501.717,317.454C502.273,318.348 520.535,347.961 519.467,381.608Z" fill="#F0F0F0"/>
<path d="M517.25,402.977C517.009,403.321 516.757,403.665 516.5,404.004L494.828,404.004C494.993,403.712 495.183,403.367 495.403,402.977C498.984,396.514 509.581,377.199 519.418,357.167C529.989,335.644 539.688,313.304 538.871,305.219C539.122,307.042 546.435,362.633 517.25,402.977Z" fill="#F0F0F0"/>
<path d="M41.24,370.324C41.537,381.402 43.393,392.384 46.753,402.945C46.828,403.19 46.91,403.431 46.991,403.677L67.563,403.677C67.541,403.457 67.519,403.212 67.497,402.945C66.126,387.175 58.217,291.199 67.673,274.785C66.845,276.117 39.642,320.217 41.24,370.324Z" fill="#F0F0F0"/>
<path d="M42.784,402.945C42.956,403.19 43.135,403.435 43.318,403.676L58.751,403.676C58.634,403.468 58.498,403.223 58.341,402.945C55.791,398.344 48.245,384.586 41.24,370.324C33.715,354.997 26.806,339.089 27.388,333.331C27.208,334.629 21.999,374.216 42.784,402.945Z" fill="#F0F0F0"/>
<path d="M488.435,323.482L273.666,323.482C272.612,323.481 271.601,323.062 270.856,322.316C270.11,321.57 269.691,320.56 269.689,319.505L269.689,266.229C269.691,265.175 270.11,264.164 270.856,263.419C271.601,262.673 272.612,262.254 273.666,262.252L488.435,262.252C489.489,262.254 490.501,262.673 491.245,263.419C491.991,264.164 492.411,265.175 492.413,266.229L492.413,319.505C492.411,320.559 491.991,321.57 491.245,322.316C490.501,323.061 489.489,323.481 488.435,323.482ZM273.666,263.84C273.035,263.841 272.429,264.093 271.982,264.54C271.535,264.987 271.284,265.592 271.282,266.224L271.282,319.499C271.284,320.131 271.535,320.737 271.982,321.184C272.429,321.631 273.035,321.882 273.666,321.884L488.435,321.884C489.067,321.882 489.673,321.631 490.119,321.184C490.567,320.737 490.819,320.131 490.819,319.499L490.819,266.229C490.819,265.597 490.567,264.992 490.119,264.545C489.673,264.098 489.067,263.847 488.435,263.845L273.666,263.84Z" fill="#3F3D56"/>
<circle cx="253.394" cy="371.583" r="16.201" fill="#E6E6E6"/>
<path d="M290.811,361.341C290.095,361.341 289.408,361.626 288.902,362.132C288.396,362.638 288.111,363.325 288.111,364.041C288.111,364.757 288.396,365.444 288.902,365.951C289.408,366.457 290.095,366.741 290.811,366.741L418.105,366.741C418.459,366.742 418.811,366.673 419.138,366.538C419.466,366.403 419.764,366.205 420.016,365.954C420.267,365.704 420.466,365.407 420.603,365.08C420.739,364.752 420.809,364.401 420.81,364.047C420.811,363.692 420.742,363.341 420.607,363.013C420.472,362.685 420.273,362.387 420.023,362.136C419.773,361.885 419.476,361.685 419.148,361.549C418.821,361.413 418.47,361.342 418.115,361.341L290.811,361.341Z" fill="#E6E6E6"/>
<path d="M290.811,377.543C290.095,377.542 289.408,377.825 288.9,378.33C288.393,378.835 288.107,379.522 288.106,380.238C288.104,380.954 288.387,381.641 288.893,382.148C289.398,382.656 290.084,382.942 290.8,382.943L345.586,382.943C346.302,382.943 346.989,382.659 347.495,382.152C348.002,381.646 348.286,380.959 348.286,380.243C348.286,379.527 348.002,378.84 347.495,378.334C346.989,377.827 346.302,377.543 345.586,377.543L290.811,377.543Z" fill="#E6E6E6"/>
<circle cx="307.036" cy="292.609" r="16.201" fill="#E6E6E6"/>
<path d="M344.454,282.368C343.738,282.368 343.051,282.652 342.545,283.159C342.038,283.665 341.754,284.352 341.754,285.068C341.754,285.784 342.038,286.471 342.545,286.977C343.051,287.483 343.738,287.768 344.454,287.768L471.748,287.768C472.464,287.768 473.151,287.483 473.657,286.977C474.163,286.471 474.448,285.784 474.448,285.068C474.448,284.352 474.163,283.665 473.657,283.159C473.151,282.652 472.464,282.368 471.748,282.368L344.454,282.368Z" fill="#E6E6E6"/>
<path d="M344.454,298.569C343.738,298.569 343.051,298.854 342.545,299.36C342.038,299.866 341.754,300.553 341.754,301.269C341.754,301.985 342.038,302.672 342.545,303.178C343.051,303.685 343.738,303.969 344.454,303.969L399.229,303.969C399.945,303.969 400.632,303.685 401.138,303.178C401.645,302.672 401.929,301.985 401.929,301.269C401.929,300.553 401.645,299.866 401.138,299.36C400.632,298.854 399.945,298.569 399.229,298.569L344.454,298.569Z" fill="#E6E6E6"/>
<path d="M446.713,191.611L231.944,191.611C230.89,191.61 229.879,191.19 229.134,190.445C228.388,189.699 227.969,188.689 227.967,187.634L227.967,3.977C227.969,2.923 228.388,1.912 229.134,1.166C229.879,0.421 230.89,0.001 231.944,0L446.713,0C447.767,0.001 448.779,0.421 449.523,1.166C450.269,1.912 450.689,2.923 450.691,3.977L450.691,187.633C450.689,188.688 450.269,189.699 449.523,190.444C448.779,191.19 447.767,191.609 446.713,191.61L446.713,191.611ZM231.944,1.588C231.312,1.589 230.707,1.841 230.26,2.287C229.813,2.734 229.562,3.34 229.56,3.972L229.56,187.633C229.562,188.265 229.813,188.871 230.26,189.318C230.707,189.765 231.312,190.016 231.944,190.018L446.713,190.018C447.345,190.016 447.951,189.765 448.397,189.318C448.845,188.871 449.097,188.265 449.097,187.633L449.097,3.977C449.095,3.345 448.845,2.74 448.397,2.293C447.951,1.846 447.345,1.594 446.713,1.593L231.944,1.588Z" fill="#3F3D56"/>
<path d="M265.315,48.497C274.262,48.497 281.515,41.243 281.515,32.296C281.515,23.348 274.262,16.095 265.315,16.095C256.367,16.095 249.114,23.348 249.114,32.296C249.114,41.243 256.367,48.497 265.315,48.497Z" fill="#FFB547"/>
<path d="M302.732,21.495C302.016,21.495 301.329,21.78 300.823,22.286C300.316,22.792 300.032,23.479 300.032,24.195C300.032,24.911 300.316,25.598 300.823,26.104C301.329,26.611 302.016,26.895 302.732,26.895L430.026,26.895C430.742,26.895 431.428,26.611 431.935,26.104C432.441,25.598 432.726,24.911 432.726,24.195C432.726,23.479 432.441,22.792 431.935,22.286C431.428,21.78 430.742,21.495 430.026,21.495L302.732,21.495Z" fill="#CCCCCC"/>
<path d="M302.732,37.697C302.016,37.697 301.329,37.981 300.823,38.487C300.316,38.994 300.032,39.681 300.032,40.397C300.032,41.113 300.316,41.799 300.823,42.306C301.329,42.812 302.016,43.097 302.732,43.097L357.507,43.097C358.223,43.097 358.91,42.812 359.416,42.306C359.922,41.799 360.207,41.113 360.207,40.397C360.207,39.681 359.922,38.994 359.416,38.487C358.91,37.981 358.223,37.697 357.507,37.697L302.732,37.697Z" fill="#CCCCCC"/>
<path d="M173.735,388.403L157.344,388.403L147.658,252.062L147.286,286.706L111.524,382.07L97.369,370.895L120.837,275.903L109.662,223.005L182.675,223.005L173.735,388.403Z" fill="#2F2E41"/>
<circle cx="147.659" cy="35.257" r="19.371" fill="#FFB8B8"/>
<path d="M184.911,233.436C153.263,225.315 123.569,219.843 105.192,229.711C108.411,195.878 104.688,152.69 93.644,107.551C90.058,92.889 92.49,79.679 105.565,72.136L123.073,62.078L149.894,62.823L163.888,70.565C170.731,73.985 176.272,79.544 179.668,86.399C183.063,93.253 184.129,101.029 182.703,108.545C175.184,148.111 179.247,190.815 184.911,233.436Z" fill="#3F3D56"/>
<path d="M112.643,138.817L77.626,136.581C80.362,102.134 88.147,83.303 99.977,76.979L112.643,91.879L112.643,138.817Z" fill="#3F3D56"/>
<path d="M497.739,167.786L282.97,167.786C281.916,167.785 280.905,167.365 280.16,166.62C279.414,165.874 278.995,164.863 278.993,163.809L278.993,69.557C278.995,68.502 279.414,67.491 280.16,66.746C280.905,66 281.916,65.581 282.97,65.58L497.739,65.58C498.795,65.581 499.805,66 500.551,66.746C501.297,67.491 501.715,68.502 501.717,69.557L501.717,163.809C501.715,164.863 501.297,165.874 500.551,166.62C499.805,167.365 498.795,167.785 497.739,167.786Z" fill="#FFB547"/>
<path d="M326.708,98.431C325.992,98.431 325.305,98.716 324.799,99.222C324.293,99.728 324.008,100.415 324.008,101.131C324.008,101.847 324.293,102.534 324.799,103.04C325.305,103.547 325.992,103.831 326.708,103.831L454.003,103.831C454.719,103.831 455.406,103.547 455.912,103.04C456.418,102.534 456.703,101.847 456.703,101.131C456.703,100.415 456.418,99.728 455.912,99.222C455.406,98.716 454.719,98.431 454.003,98.431L326.708,98.431Z" fill="#FFFFFF"/>
<path d="M326.708,114.077C325.992,114.077 325.305,114.361 324.799,114.868C324.293,115.374 324.008,116.061 324.008,116.777C324.008,117.493 324.293,118.18 324.799,118.686C325.305,119.192 325.992,119.477 326.708,119.477L454.003,119.477C454.719,119.477 455.406,119.192 455.912,118.686C456.418,118.18 456.703,117.493 456.703,116.777C456.703,116.061 456.418,115.374 455.912,114.868C455.406,114.361 454.719,114.077 454.003,114.077L326.708,114.077Z" fill="#FFFFFF"/>
<path d="M326.708,129.533C325.992,129.533 325.305,129.818 324.799,130.324C324.293,130.831 324.008,131.517 324.008,132.233C324.008,132.949 324.293,133.636 324.799,134.143C325.305,134.649 325.992,134.933 326.708,134.933L381.483,134.933C382.199,134.933 382.886,134.649 383.393,134.143C383.899,133.636 384.183,132.949 384.183,132.233C384.183,131.517 383.899,130.831 383.393,130.324C382.886,129.818 382.199,129.533 381.483,129.533L326.708,129.533Z" fill="#FFFFFF"/>
<path d="M154.263,9.767C152.459,9.577 150.757,10.538 148.982,10.93C145.331,11.731 141.591,10.072 137.837,10.086C134.611,10.27 131.473,11.206 128.674,12.821C126.41,13.891 124.344,15.337 122.564,17.099C120.774,18.888 119.732,21.291 119.65,23.821C119.898,25.27 119.853,26.754 119.519,28.185C119.14,28.907 118.691,29.59 118.178,30.222C117.713,30.968 117.416,31.806 117.308,32.678C117.2,33.549 117.283,34.434 117.552,35.271C118.304,36.928 119.321,38.451 120.563,39.781C122.979,42.88 124.492,46.59 126.659,49.879C127.605,51.306 128.665,52.654 129.831,53.908C130.021,54.131 130.254,54.313 130.515,54.446C130.771,54.537 131.043,54.576 131.315,54.563C135.912,54.694 140.67,54.795 144.903,52.991C146.26,52.521 147.411,51.596 148.162,50.373C148.773,48.694 148.884,46.875 148.482,45.135C148.289,43.197 148.333,41.243 148.613,39.315C148.632,38.665 148.898,38.045 149.358,37.584C149.705,37.368 150.103,37.248 150.512,37.235C150.92,37.222 151.325,37.316 151.685,37.51C152.405,37.888 153.19,38.125 153.999,38.208C155.585,38.208 156.589,36.403 156.909,34.832C156.734,33.42 156.943,31.987 157.514,30.683C158.085,29.38 158.997,28.255 160.154,27.426C161.243,26.043 161.992,24.422 162.338,22.696C162.684,20.969 162.619,19.185 162.146,17.489C161.101,14.219 157.901,10.13 154.263,9.767Z" fill="#2F2E41"/>
<path d="M434.793,402.456L220.024,402.456C218.97,402.455 217.959,402.035 217.213,401.29C216.468,400.544 216.048,399.534 216.047,398.479L216.047,345.203C216.048,344.149 216.467,343.138 217.213,342.392C217.959,341.647 218.969,341.227 220.024,341.226L434.793,341.226C435.847,341.228 436.859,341.647 437.603,342.393C438.349,343.138 438.769,344.149 438.771,345.203L438.771,398.478C438.769,399.533 438.349,400.544 437.603,401.289C436.859,402.035 435.847,402.455 434.793,402.456ZM220.024,342.814C219.392,342.815 218.786,343.067 218.34,343.514C217.893,343.96 217.641,344.566 217.64,345.198L217.64,398.473C217.641,399.105 217.893,399.711 218.34,400.158C218.786,400.604 219.392,400.856 220.024,400.857L434.793,400.857C435.425,400.856 436.031,400.605 436.477,400.158C436.925,399.711 437.177,399.105 437.177,398.473L437.177,345.203C437.175,344.571 436.925,343.966 436.477,343.519C436.031,343.072 435.425,342.82 434.793,342.819L220.024,342.814Z" fill="#3F3D56"/>
<path d="M191.412,207.431L184.166,130.621L162.56,131.366L179.664,207.216C178.268,208.387 177.264,209.956 176.784,211.714C176.305,213.472 176.373,215.334 176.981,217.051C177.589,218.769 178.706,220.26 180.184,221.325C181.662,222.39 183.43,222.979 185.251,223.012C187.073,223.045 188.861,222.522 190.377,221.511C191.892,220.501 193.064,219.051 193.733,217.357C194.403,215.663 194.54,213.805 194.125,212.031C193.71,210.257 192.764,208.652 191.412,207.431Z" fill="#FFB8B8"/>
<path d="M191.616,132.111L158.834,139.562L157.344,85.919L175.97,86.664L191.616,132.111Z" fill="#3F3D56"/>
<path d="M156.825,387.062L180.603,387.061L180.604,387.061C184.622,387.061 188.476,388.657 191.318,391.499C194.16,394.34 195.756,398.194 195.756,402.213L195.756,402.705L156.826,402.707L156.825,387.062Z" fill="#2F2E41"/>
<path d="M97.106,368.235L117.095,381.112L117.096,381.113C120.474,383.289 122.849,386.719 123.699,390.646C124.549,394.574 123.804,398.679 121.627,402.057L121.361,402.471L88.633,381.388L97.106,368.235Z" fill="#2F2E41"/>
<rect  x="0" y="402.514" width="550" height="1.49" fill="#CACACA"/>
</svg>
