<svg width="36" height="24" viewBox="0 0 36 24" fill="none" xmlns="http://www.w3.org/2000/svg" xmlns:xlink="http://www.w3.org/1999/xlink">
<path d="M18,19C19.944,19 21.597,18.319 22.958,16.958C24.32,15.597 25,13.944 25,12C25,10.056 24.32,8.403 22.958,7.042C21.597,5.681 19.944,5 18,5C16.056,5 14.403,5.681 13.042,7.042C11.681,8.403 11,10.056 11,12C11,13.944 11.681,15.597 13.042,16.958C14.403,18.319 16.056,19 18,19ZM18,16C16.889,16 15.944,15.611 15.167,14.833C14.389,14.056 14,13.111 14,12C14,10.889 14.389,9.944 15.167,9.167C15.944,8.389 16.889,8 18,8C19.111,8 20.056,8.389 20.833,9.167C21.611,9.944 22,10.889 22,12C22,13.111 21.611,14.056 20.833,14.833C20.056,15.611 19.111,16 18,16ZM18,24C14.389,24 11.069,23.035 8.042,21.104C5.014,19.174 2.611,16.625 0.833,13.458C0.694,13.236 0.597,13.003 0.542,12.76C0.486,12.516 0.458,12.266 0.458,12.01C0.458,11.753 0.486,11.5 0.542,11.25C0.597,11 0.694,10.764 0.833,10.542C2.611,7.375 5.014,4.826 8.042,2.896C11.069,0.965 14.389,0 18,0C21.611,0 24.931,0.965 27.958,2.896C30.986,4.826 33.389,7.375 35.167,10.542C35.306,10.764 35.403,10.997 35.458,11.24C35.514,11.484 35.542,11.734 35.542,11.99C35.542,12.247 35.514,12.5 35.458,12.75C35.403,13 35.306,13.236 35.167,13.458C33.389,16.625 30.986,19.174 27.958,21.104C24.931,23.035 21.611,24 18,24ZM18,21C21.111,21 23.986,20.194 26.625,18.583C29.264,16.972 31.292,14.778 32.708,12C31.292,9.222 29.264,7.028 26.625,5.417C23.986,3.806 21.111,3 18,3C14.889,3 12.014,3.806 9.375,5.417C6.736,7.028 4.708,9.222 3.292,12C4.708,14.778 6.736,16.972 9.375,18.583C12.014,20.194 14.889,21 18,21Z" fill="#6F6F71"/>
</svg>
