<svg width="30" height="40" viewBox="0 0 30 40" fill="none" xmlns="http://www.w3.org/2000/svg" xmlns:xlink="http://www.w3.org/1999/xlink">
<path d="M1.414,33.2C0.904,33.2 0.475,33.029 0.125,32.686C-0.225,32.343 -0.4,31.918 -0.4,31.411C-0.4,30.904 -0.228,30.475 0.117,30.125C0.462,29.775 0.89,29.6 1.4,29.6L2,29.6L2,17.6C2,14.7 2.891,12.15 4.675,9.95C6.458,7.75 8.766,6.383 11.6,5.85L11.6,3.2C11.6,2.533 11.833,1.967 12.3,1.5C12.766,1.033 13.333,0.8 14,0.8C14.666,0.8 15.233,1.033 15.7,1.5C16.166,1.967 16.4,2.533 16.4,3.2L16.4,5.85C19.233,6.383 21.541,7.75 23.325,9.95C25.108,12.15 26,14.7 26,17.6L26,29.6L26.6,29.6C27.11,29.6 27.537,29.772 27.882,30.115C28.227,30.458 28.4,30.882 28.4,31.389C28.4,31.896 28.227,32.325 27.883,32.675C27.538,33.025 27.11,33.2 26.601,33.2L1.414,33.2ZM13.989,39.2C12.996,39.2 12.15,38.848 11.45,38.142C10.75,37.438 10.4,36.59 10.4,35.6L17.6,35.6C17.6,36.6 17.246,37.45 16.539,38.15C15.832,38.85 14.982,39.2 13.989,39.2ZM5.6,29.6L22.4,29.6L22.4,17.6C22.4,15.267 21.583,13.283 19.95,11.65C18.316,10.017 16.333,9.2 14,9.2C11.666,9.2 9.683,10.017 8.05,11.65C6.416,13.283 5.6,15.267 5.6,17.6L5.6,29.6Z" fill="#FFFFFF"/>
</svg>
