<svg width="28" height="32" viewBox="0 0 28 32" fill="none" xmlns="http://www.w3.org/2000/svg" xmlns:xlink="http://www.w3.org/1999/xlink">
<path d="M19.042,31.125C18.737,31.431 18.406,31.653 18.049,31.792C17.693,31.931 17.318,32 16.924,32C16.531,32 16.153,31.931 15.792,31.792C15.431,31.653 15.098,31.431 14.792,31.125L12.667,29C12.362,28.722 12.14,28.417 12.001,28.083C11.862,27.75 11.792,27.389 11.792,27C11.792,26.611 11.869,26.215 12.021,25.812C12.174,25.41 12.39,25.056 12.667,24.75L-0.916,5.25L5.334,-1L26.134,19.8C26.434,20.1 26.653,20.428 26.792,20.785C26.931,21.141 27.001,21.516 27.001,21.91C27.001,22.303 26.931,22.681 26.792,23.042C26.653,23.403 26.431,23.736 26.126,24.042L19.042,31.125ZM14.834,22.583L19.751,17.667L5.334,3.25L3.001,5.583L14.834,22.583ZM16.917,29L24.001,21.917L21.876,19.792L14.792,26.875L16.917,29Z" fill="#F0B761"/>
</svg>
