<svg width="32" height="32" viewBox="0 0 32 32" fill="none" xmlns="http://www.w3.org/2000/svg" xmlns:xlink="http://www.w3.org/1999/xlink">
<path d="M15.991,24C16.414,24 16.771,23.857 17.063,23.571C17.354,23.285 17.5,22.931 17.5,22.509C17.5,22.086 17.357,21.729 17.071,21.438C16.785,21.146 16.431,21 16.009,21C15.586,21 15.229,21.143 14.938,21.429C14.646,21.715 14.5,22.069 14.5,22.491C14.5,22.914 14.643,23.271 14.929,23.562C15.215,23.854 15.569,24 15.991,24ZM15.991,18C16.414,18 16.771,17.856 17.063,17.569C17.354,17.281 17.5,16.925 17.5,16.5L17.5,9.5C17.5,9.075 17.357,8.719 17.071,8.431C16.785,8.144 16.431,8 16.009,8C15.586,8 15.229,8.144 14.938,8.431C14.646,8.719 14.5,9.075 14.5,9.5L14.5,16.5C14.5,16.925 14.643,17.281 14.929,17.569C15.215,17.856 15.569,18 15.991,18ZM16.012,32C13.809,32 11.736,31.583 9.792,30.75C7.847,29.917 6.146,28.771 4.688,27.312C3.229,25.854 2.083,24.153 1.25,22.21C0.417,20.267 0,18.19 0,15.981C0,13.771 0.417,11.701 1.25,9.771C2.083,7.84 3.229,6.146 4.688,4.688C6.146,3.229 7.847,2.083 9.79,1.25C11.733,0.417 13.81,0 16.019,0C18.229,0 20.299,0.417 22.229,1.25C24.16,2.083 25.854,3.229 27.312,4.688C28.771,6.146 29.917,7.843 30.75,9.78C31.583,11.717 32,13.786 32,15.988C32,18.191 31.583,20.264 30.75,22.208C29.917,24.153 28.771,25.854 27.312,27.312C25.854,28.771 24.157,29.917 22.22,30.75C20.283,31.583 18.214,32 16.012,32ZM16,29C19.611,29 22.681,27.736 25.208,25.208C27.736,22.681 29,19.611 29,16C29,12.389 27.736,9.319 25.208,6.792C22.681,4.264 19.611,3 16,3C12.389,3 9.319,4.264 6.792,6.792C4.264,9.319 3,12.389 3,16C3,19.611 4.264,22.681 6.792,25.208C9.319,27.736 12.389,29 16,29Z" fill="#EC4F46"/>
</svg>
