<svg width="28" height="32" viewBox="0 0 28 32" fill="none" xmlns="http://www.w3.org/2000/svg" xmlns:xlink="http://www.w3.org/1999/xlink">
<path d="M20.042,31.125C19.736,31.431 19.405,31.653 19.048,31.792C18.692,31.931 18.317,32 17.923,32C17.53,32 17.153,31.931 16.792,31.792C16.431,31.653 16.097,31.431 15.792,31.125L13.667,29C13.361,28.722 13.139,28.417 13,28.083C12.861,27.75 12.792,27.389 12.792,27C12.792,26.611 12.868,26.215 13.021,25.812C13.174,25.41 13.389,25.056 13.667,24.75L0.083,5.25L6.333,-1L27.134,19.8C27.434,20.1 27.653,20.428 27.792,20.785C27.931,21.141 28,21.516 28,21.91C28,22.303 27.931,22.681 27.792,23.042C27.653,23.403 27.431,23.736 27.125,24.042L20.042,31.125ZM15.833,22.583L20.75,17.667L6.333,3.25L4,5.583L15.833,22.583ZM17.917,29L25,21.917L22.875,19.792L15.792,26.875L17.917,29Z" fill="#FFCC80"/>
</svg>
