<svg width="36" height="30" viewBox="0 0 36 30" fill="none" xmlns="http://www.w3.org/2000/svg" xmlns:xlink="http://www.w3.org/1999/xlink">
<path d="M22.958,9.042C23.542,9.625 24.014,10.326 24.375,11.146C24.736,11.965 24.945,12.819 25,13.708C25,14.125 24.852,14.479 24.554,14.771C24.257,15.063 23.905,15.208 23.5,15.208C23.072,15.208 22.708,15.063 22.408,14.771C22.108,14.479 21.958,14.125 21.958,13.708C22.014,13.153 21.952,12.639 21.771,12.167C21.59,11.694 21.333,11.285 21,10.938C20.667,10.59 20.271,10.333 19.813,10.167C19.354,10 18.847,9.944 18.292,10C17.875,10 17.521,9.851 17.229,9.554C16.938,9.257 16.792,8.905 16.792,8.5C16.792,8.083 16.938,7.729 17.229,7.438C17.521,7.146 17.875,7 18.292,7C19.181,7.056 20.028,7.257 20.833,7.604C21.639,7.951 22.347,8.431 22.958,9.042ZM18,5C17.537,5 17.086,5.015 16.647,5.044C16.208,5.073 15.769,5.126 15.33,5.204C14.916,5.263 14.521,5.188 14.146,4.979C13.771,4.771 13.528,4.465 13.417,4.063C13.306,3.66 13.354,3.278 13.563,2.917C13.771,2.556 14.08,2.344 14.49,2.281C15.08,2.177 15.665,2.104 16.244,2.063C16.823,2.021 17.408,2 18,2C21.722,2 25.146,2.951 28.271,4.854C31.396,6.757 33.766,9.377 35.381,12.713C35.488,12.932 35.563,13.146 35.604,13.355C35.646,13.564 35.667,13.779 35.667,14C35.667,14.221 35.646,14.436 35.604,14.645C35.563,14.854 35.5,15.069 35.417,15.292C34.924,16.342 34.314,17.327 33.589,18.246C32.863,19.165 32.07,20.028 31.208,20.833C30.903,21.111 30.549,21.236 30.146,21.208C29.743,21.181 29.403,20.998 29.125,20.66C28.847,20.322 28.729,19.954 28.771,19.556C28.813,19.158 28.986,18.806 29.292,18.5C30.014,17.861 30.658,17.167 31.223,16.417C31.789,15.667 32.284,14.861 32.708,14C31.347,11.194 29.34,8.993 26.688,7.396C24.035,5.799 21.139,5 18,5ZM18,26C14.361,26 11.014,25.035 7.958,23.104C4.903,21.174 2.499,18.609 0.747,15.409C0.61,15.192 0.521,14.965 0.479,14.728C0.438,14.491 0.417,14.248 0.417,13.999C0.417,13.75 0.438,13.507 0.479,13.271C0.521,13.035 0.611,12.806 0.75,12.583C1.389,11.333 2.136,10.167 2.99,9.084C3.845,8.001 4.82,7.015 5.917,6.125L2.792,3C2.486,2.694 2.333,2.347 2.333,1.958C2.333,1.569 2.486,1.222 2.792,0.917C3.097,0.611 3.451,0.458 3.854,0.458C4.257,0.458 4.611,0.611 4.917,0.917L31.083,27.083C31.389,27.389 31.542,27.736 31.542,28.125C31.542,28.514 31.389,28.861 31.083,29.167C30.778,29.472 30.424,29.625 30.021,29.625C29.618,29.625 29.264,29.472 28.958,29.167L24.583,24.833C23.517,25.222 22.435,25.514 21.338,25.708C20.24,25.903 19.128,26 18,26ZM8.042,8.292C7.07,9.069 6.167,9.924 5.333,10.854C4.5,11.785 3.82,12.833 3.292,14C4.653,16.806 6.66,19.007 9.313,20.604C11.965,22.201 14.861,23 18,23C18.728,23 19.438,22.951 20.129,22.854C20.821,22.757 21.514,22.625 22.208,22.458L20.333,20.583C19.945,20.722 19.556,20.826 19.167,20.896C18.778,20.965 18.389,21 18,21C16.056,21 14.403,20.319 13.042,18.958C11.681,17.597 11,15.944 11,14C11,13.611 11.049,13.222 11.146,12.833C11.243,12.444 11.333,12.056 11.417,11.667L8.042,8.292Z" fill="#FFFFFF"/>
</svg>
