<svg width="260" height="260" viewBox="0 0 260 260" fill="none" xmlns="http://www.w3.org/2000/svg">
<path d="M258.671 130C259.405 130 260.001 129.405 259.993 128.671C259.823 112.051 256.468 95.6141 250.104 80.2512C243.571 64.4788 233.995 50.1477 221.924 38.0761C209.852 26.0045 195.521 16.4288 179.749 9.89566C163.977 3.36255 147.072 -7.46234e-07 130 0C112.928 7.46234e-07 96.0235 3.36255 80.2511 9.89566C64.4788 16.4288 50.1477 26.0045 38.0761 38.0761C26.0045 50.1477 16.4288 64.4788 9.89566 80.2512C3.53213 95.6141 0.176701 112.051 0.00679345 128.671C-0.00071 129.405 0.59502 130 1.32901 130C2.06301 130 2.6573 129.405 2.66496 128.671C2.83477 112.4 6.1214 96.3088 12.3514 81.2683C18.7509 65.8185 28.1308 51.7804 39.9556 39.9556C51.7804 28.1308 65.8185 18.7509 81.2683 12.3514C96.7182 5.95183 113.277 2.65803 130 2.65803C146.723 2.65803 163.282 5.95182 178.732 12.3514C194.182 18.7509 208.22 28.1308 220.044 39.9556C231.869 51.7804 241.249 65.8185 247.649 81.2683C253.879 96.3088 257.165 112.4 257.335 128.671C257.343 129.405 257.937 130 258.671 130Z" fill="url(#paint0_linear_300_2177)"/>
<circle cx="205" cy="26" r="6" fill="white" stroke="#FFCC80" stroke-width="4"/>
<defs>
<linearGradient id="paint0_linear_300_2177" x1="130" y1="-4.56463e-06" x2="53.4182" y2="217.455" gradientUnits="userSpaceOnUse">
<stop stop-color="#FFC266"/>
<stop offset="1" stop-color="#FFE0B2"/>
</linearGradient>
</defs>
</svg>
