<svg width="24" height="24" viewBox="0 0 24 24" fill="none" xmlns="http://www.w3.org/2000/svg">
<path d="M5.70724 18.6C5.4524 18.6 5.23749 18.5142 5.06249 18.3427C4.88749 18.1712 4.79999 17.9587 4.79999 17.7052C4.79999 17.4517 4.88624 17.2375 5.05874 17.0625C5.23124 16.8875 5.44499 16.8 5.69999 16.8H5.99999V10.8C5.99999 9.34999 6.44582 8.07499 7.33749 6.97499C8.22915 5.87499 9.38332 5.19166 10.8 4.92499V3.59999C10.8 3.26666 10.9167 2.98333 11.15 2.74999C11.3833 2.51666 11.6667 2.39999 12 2.39999C12.3333 2.39999 12.6167 2.51666 12.85 2.74999C13.0833 2.98333 13.2 3.26666 13.2 3.59999V4.92499C14.6167 5.19166 15.7708 5.87499 16.6625 6.97499C17.5542 8.07499 18 9.34999 18 10.8V16.8H18.3C18.555 16.8 18.7687 16.8857 18.9412 17.0572C19.1137 17.2287 19.2 17.4412 19.2 17.6947C19.2 17.9482 19.1138 18.1625 18.9415 18.3375C18.769 18.5125 18.5553 18.6 18.3005 18.6H5.70724ZM11.9947 21.6C11.4982 21.6 11.075 21.4237 10.725 21.0712C10.375 20.7187 10.2 20.295 10.2 19.8H13.8C13.8 20.3 13.6232 20.725 13.2697 21.075C12.9162 21.425 12.4912 21.6 11.9947 21.6ZM7.79999 16.8H16.2V10.8C16.2 9.63333 15.7917 8.64166 14.975 7.82499C14.1583 7.00833 13.1667 6.59999 12 6.59999C10.8333 6.59999 9.84165 7.00833 9.02499 7.82499C8.20832 8.64166 7.79999 9.63333 7.79999 10.8V16.8Z" fill="white"/>
</svg>
