<svg width="21" height="20" viewBox="0 0 21 20" fill="none" xmlns="http://www.w3.org/2000/svg">
<path d="M13.0208 17.5625C12.8681 17.7153 12.7025 17.8264 12.5242 17.8958C12.346 17.9653 12.1585 18 11.9617 18C11.765 18 11.5764 17.9653 11.3958 17.8958C11.2153 17.8264 11.0486 17.7153 10.8958 17.5625L9.83333 16.5C9.68055 16.3611 9.56944 16.2083 9.5 16.0417C9.43055 15.875 9.39583 15.6944 9.39583 15.5C9.39583 15.3056 9.43403 15.1076 9.51041 14.9062C9.5868 14.7049 9.69444 14.5278 9.83333 14.375L3.04166 4.625L6.16666 1.5L16.5669 11.9002C16.7167 12.0501 16.8264 12.2142 16.8958 12.3925C16.9653 12.5707 17 12.7582 17 12.955C17 13.1517 16.9653 13.3403 16.8958 13.5208C16.8264 13.7014 16.7153 13.8681 16.5625 14.0208L13.0208 17.5625ZM10.9167 13.2917L13.375 10.8333L6.16666 3.625L5 4.79167L10.9167 13.2917ZM11.9583 16.5L15.5 12.9583L14.4375 11.8958L10.8958 15.4375L11.9583 16.5Z" fill="#FFCC80"/>
</svg>
