<svg width="21" height="20" viewBox="0 0 21 20" fill="none" xmlns="http://www.w3.org/2000/svg">
<g id="Icon/Small/Fill/Check">
<path id="Vector" d="M9.08334 11.5L7.29167 9.70832C7.13889 9.55554 6.94445 9.47916 6.70834 9.47916C6.47223 9.47916 6.27778 9.55554 6.125 9.70832C5.97223 9.8611 5.89584 10.0555 5.89584 10.2917C5.89584 10.5278 5.97223 10.7222 6.125 10.875L8.5 13.25C8.66667 13.4167 8.86112 13.5 9.08334 13.5C9.30556 13.5 9.5 13.4167 9.66667 13.25L14.375 8.54166C14.5278 8.38888 14.6042 8.19443 14.6042 7.95832C14.6042 7.72221 14.5278 7.52777 14.375 7.37499C14.2222 7.22221 14.0278 7.14582 13.7917 7.14582C13.5556 7.14582 13.3611 7.22221 13.2083 7.37499L9.08334 11.5ZM10.25 18.3333C9.09723 18.3333 8.01389 18.1146 7 17.6771C5.98612 17.2396 5.10417 16.6458 4.35417 15.8958C3.60417 15.1458 3.01042 14.2639 2.57292 13.25C2.13542 12.2361 1.91667 11.1528 1.91667 9.99999C1.91667 8.84721 2.13542 7.76388 2.57292 6.74999C3.01042 5.7361 3.60417 4.85416 4.35417 4.10416C5.10417 3.35416 5.98612 2.76041 7 2.32291C8.01389 1.88541 9.09723 1.66666 10.25 1.66666C11.4028 1.66666 12.4861 1.88541 13.5 2.32291C14.5139 2.76041 15.3958 3.35416 16.1458 4.10416C16.8958 4.85416 17.4896 5.7361 17.9271 6.74999C18.3646 7.76388 18.5833 8.84721 18.5833 9.99999C18.5833 11.1528 18.3646 12.2361 17.9271 13.25C17.4896 14.2639 16.8958 15.1458 16.1458 15.8958C15.3958 16.6458 14.5139 17.2396 13.5 17.6771C12.4861 18.1146 11.4028 18.3333 10.25 18.3333Z" fill="#FFCC80"/>
</g>
</svg>
