<svg width="27" height="27" viewBox="0 0 27 27" fill="none" xmlns="http://www.w3.org/2000/svg">
<g id="Fill">
<mask id="mask0_734_5" style="mask-type:alpha" maskUnits="userSpaceOnUse" x="0" y="0" width="27" height="27">
<path id="Mask" fill-rule="evenodd" clip-rule="evenodd" d="M6.53778 24.7744L7.01386 25.0567C9.01525 26.2438 11.3094 26.8719 13.6485 26.8728H13.6538C20.8385 26.8728 26.6862 21.028 26.689 13.8439C26.6904 10.3626 25.3358 7.08911 22.8747 4.62645C20.4135 2.16363 17.1407 0.806551 13.659 0.80542C6.46867 0.80542 0.620971 6.64969 0.618104 13.8332C0.617123 16.2952 1.30626 18.6927 2.61112 20.767L2.92106 21.2601L1.6042 26.0679L6.53778 24.7744ZM21.5549 17.5724C21.457 17.4089 21.1958 17.3109 20.8039 17.1149C20.412 16.9188 18.4854 15.9713 18.1262 15.8404C17.767 15.7099 17.5057 15.6446 17.2445 16.0366C16.9833 16.4286 16.2323 17.3109 16.0036 17.5724C15.7751 17.8337 15.5465 17.8665 15.1547 17.6704C14.7628 17.4744 13.5001 17.0607 12.0033 15.7263C10.8384 14.6877 10.0519 13.4051 9.82329 13.013C9.59476 12.621 9.79892 12.4089 9.99508 12.2137C10.1714 12.0381 10.387 11.7562 10.583 11.5274C10.7789 11.2988 10.8442 11.1353 10.9748 10.874C11.1054 10.6126 11.0401 10.3839 10.9422 10.1879C10.8442 9.99171 10.0605 8.06378 9.73396 7.27952C9.4158 6.51584 9.09273 6.61923 8.85221 6.60716C8.6239 6.59585 8.3624 6.59336 8.1012 6.59336C7.83993 6.59336 7.41539 6.69132 7.05618 7.08353C6.69698 7.47558 5.68463 8.42326 5.68463 10.351C5.68463 12.279 7.08885 14.1414 7.28479 14.4028C7.48073 14.6643 10.048 18.6203 13.9791 20.3171C14.914 20.7207 15.644 20.9616 16.2131 21.1421C17.1519 21.4402 18.0061 21.3982 18.6813 21.2973C19.4342 21.1849 20.9998 20.3498 21.3264 19.435C21.6529 18.5199 21.6529 17.7357 21.5549 17.5724Z" fill="black"/>
</mask>
<g mask="url(#mask0_734_5)">
<path id="Gradient" d="M35.1899 -7.875H-8.875V36.19H35.1899V-7.875Z" fill="url(#paint0_linear_734_5)"/>
</g>
</g>
<defs>
<linearGradient id="paint0_linear_734_5" x1="13.1575" y1="36.19" x2="13.1575" y2="-7.875" gradientUnits="userSpaceOnUse">
<stop stop-color="#25CF43"/>
<stop offset="1" stop-color="#61FD7D"/>
</linearGradient>
</defs>
</svg>
