<svg width="400" height="400" viewBox="0 0 400 400" fill="none" xmlns="http://www.w3.org/2000/svg" xmlns:xlink="http://www.w3.org/1999/xlink">
<rect  x="-1" y="305.92" width="400" height="0.2" fill="#EBEBEB"/>
<rect  x="332.424" y="318.792" width="26.496" height="0.2" fill="#EBEBEB"/>
<rect  x="257.024" y="320.968" width="6.952" height="0.2" fill="#EBEBEB"/>
<rect  x="316.272" y="311.368" width="15.352" height="0.2" fill="#EBEBEB"/>
<rect  x="40.968" y="312.712" width="34.552" height="0.2" fill="#EBEBEB"/>
<rect  x="82.648" y="312.712" width="5.064" height="0.2" fill="#EBEBEB"/>
<rect  x="104.176" y="316.088" width="74.944" height="0.2" fill="#EBEBEB"/>
<path d="M188.6,270.24L34.128,270.24C32.918,270.238 31.758,269.756 30.903,268.9C30.048,268.042 29.568,266.882 29.568,265.672L29.568,48.528C29.579,47.325 30.063,46.174 30.917,45.327C31.771,44.479 32.925,44.002 34.128,44L188.6,44C189.812,44 190.974,44.481 191.83,45.338C192.687,46.195 193.168,47.356 193.168,48.568L193.168,265.672C193.168,266.884 192.687,268.046 191.83,268.902C190.974,269.758 189.812,270.24 188.6,270.24ZM34.128,44.16C32.971,44.162 31.862,44.623 31.045,45.442C30.227,46.261 29.768,47.371 29.768,48.528L29.768,265.672C29.768,266.83 30.227,267.938 31.045,268.758C31.862,269.576 32.971,270.038 34.128,270.04L188.6,270.04C189.758,270.038 190.868,269.578 191.687,268.758C192.505,267.94 192.966,266.83 192.968,265.672L192.968,48.528C192.966,47.37 192.505,46.26 191.687,45.442C190.868,44.623 189.758,44.162 188.6,44.16L34.128,44.16Z" fill="#EBEBEB"/>
<path d="M361.648,270.24L207.168,270.24C205.957,270.238 204.797,269.756 203.94,268.9C203.084,268.044 202.602,266.882 202.6,265.672L202.6,48.528C202.613,47.324 203.099,46.174 203.954,45.326C204.809,44.478 205.964,44.002 207.168,44L361.648,44C362.85,44.004 364.002,44.482 364.854,45.329C365.706,46.177 366.189,47.326 366.2,48.528L366.2,265.672C366.2,266.88 365.721,268.04 364.868,268.896C364.015,269.752 362.857,270.236 361.648,270.24ZM207.168,44.16C206.01,44.162 204.9,44.623 204.082,45.442C203.263,46.26 202.802,47.37 202.8,48.528L202.8,265.672C202.802,266.83 203.263,267.94 204.082,268.758C204.9,269.578 206.01,270.038 207.168,270.04L361.648,270.04C362.806,270.038 363.916,269.578 364.734,268.758C365.553,267.94 366.014,266.83 366.016,265.672L366.016,48.528C366.014,47.37 365.553,46.26 364.734,45.442C363.916,44.623 362.806,44.162 361.648,44.16L207.168,44.16Z" fill="#EBEBEB"/>
<rect  x="340.976" y="139.248" width="110.224" height="72.184" transform="rotate(360 340.976 139.248)" fill="#E6E6E6"/>
<rect  x="339.4" y="139.248" width="112.016" height="72.184" transform="rotate(360 339.4 139.248)" fill="#F0F0F0"/>
<rect  x="340.976" y="153.408" width="110.224" height="14.168" transform="rotate(360 340.976 153.408)" fill="#E6E6E6"/>
<rect  x="333.808" y="153.408" width="112.016" height="14.168" transform="rotate(360 333.808 153.408)" fill="#F0F0F0"/>
<path d="M314.78,51.86L252.012,51.86L252.012,154.46L314.78,154.46L314.78,51.86Z" transform="rotate(180 283.396 103.16)" fill="#FAFAFA"/>
<path d="M311.56,134.536L298.456,71.776L278.008,71.776L291.112,134.536L311.56,134.536Z" fill="#FFFFFF"/>
<path d="M332.52,129.856C332.565,129.856 332.609,129.847 332.65,129.83C332.692,129.812 332.729,129.787 332.76,129.755C332.792,129.723 332.816,129.685 332.833,129.643C332.849,129.601 332.857,129.557 332.856,129.512L332.856,74.84C332.856,74.751 332.821,74.665 332.758,74.602C332.695,74.539 332.609,74.504 332.52,74.504C332.475,74.503 332.431,74.511 332.39,74.527C332.349,74.544 332.311,74.569 332.28,74.6C332.248,74.631 332.224,74.669 332.207,74.71C332.191,74.751 332.183,74.796 332.184,74.84L332.184,129.512C332.183,129.557 332.191,129.601 332.207,129.643C332.224,129.685 332.248,129.723 332.279,129.755C332.311,129.787 332.348,129.812 332.389,129.83C332.431,129.847 332.475,129.856 332.52,129.856Z" fill="#F0F0F0"/>
<path d="M286.72,134.536L273.616,71.776L265.64,71.776L278.752,134.536L286.72,134.536Z" fill="#FFFFFF"/>
<path d="M263.78,102.86L201.012,102.86L201.012,103.46L263.78,103.46L263.78,102.86Z" transform="rotate(180 232.396 103.16)" fill="#E6E6E6"/>
<g opacity="0.6">
<path d="M226.28,78.872L336.504,78.872L336.936,73.6L226.712,73.6L226.28,78.872Z" fill="#EBEBEB"/>
</g>
<g opacity="0.6">
<path d="M226.28,87.512L336.504,87.512L336.936,82.248L226.712,82.248L226.28,87.512Z" fill="#EBEBEB"/>
</g>
<g opacity="0.6">
<path d="M226.28,96.152L336.504,96.152L336.936,90.888L226.712,90.888L226.28,96.152Z" fill="#EBEBEB"/>
</g>
<g opacity="0.6">
<path d="M226.28,104.8L336.504,104.8L336.936,99.528L226.712,99.528L226.28,104.8Z" fill="#EBEBEB"/>
</g>
<g opacity="0.6">
<path d="M226.28,113.44L336.504,113.44L336.936,108.168L226.712,108.168L226.28,113.44Z" fill="#EBEBEB"/>
</g>
<g opacity="0.6">
<path d="M226.28,122.08L336.504,122.08L336.936,116.808L226.712,116.808L226.28,122.08Z" fill="#EBEBEB"/>
</g>
<rect  x="302.04" y="253.424" width="23.112" height="4.56" fill="#E6E6E6"/>
<rect  x="262.712" y="305.92" width="4.264" height="104.856" transform="rotate(360 262.712 305.92)" fill="#E6E6E6"/>
<rect  x="302.032" y="257.984" width="58.368" height="4.56" transform="rotate(360 302.032 257.984)" fill="#F5F5F5"/>
<rect  x="302.04" y="278.36" width="23.112" height="4.56" fill="#E6E6E6"/>
<rect  x="302.032" y="282.912" width="58.368" height="4.56" transform="rotate(360 302.032 282.912)" fill="#F5F5F5"/>
<rect  x="302.04" y="203.56" width="23.112" height="4.56" fill="#E6E6E6"/>
<rect  x="302.032" y="208.112" width="58.368" height="4.56" transform="rotate(360 302.032 208.112)" fill="#F5F5F5"/>
<rect  x="302.04" y="228.488" width="23.112" height="4.56" fill="#E6E6E6"/>
<rect  x="302.032" y="233.048" width="58.368" height="4.56" transform="rotate(360 302.032 233.048)" fill="#F5F5F5"/>
<rect  x="321.088" y="305.92" width="4.264" height="104.856" transform="rotate(360 321.088 305.92)" fill="#E6E6E6"/>
<rect  x="302.032" y="305.92" width="4.264" height="104.856" transform="rotate(360 302.032 305.92)" fill="#F5F5F5"/>
<rect  x="247.928" y="305.92" width="4.264" height="104.856" transform="rotate(360 247.928 305.92)" fill="#F5F5F5"/>
<rect  x="94.968" y="305.92" width="43.664" height="84.712" transform="rotate(360 94.968 305.92)" fill="#E6E6E6"/>
<path d="M62.96,305.92L51.296,305.92L51.296,294.224L75.184,294.224L62.96,305.92Z" fill="#FAFAFA"/>
<rect  x="214.008" y="305.92" width="43.664" height="84.712" transform="rotate(360 214.008 305.92)" fill="#E6E6E6"/>
<rect  x="180.528" y="301.888" width="129.224" height="80.688" transform="rotate(360 180.528 301.888)" fill="#FAFAFA"/>
<path d="M168.864,305.92L180.52,305.92L180.52,294.224L156.64,294.224L168.864,305.92Z" fill="#FAFAFA"/>
<rect  x="171.48" y="271.464" width="111.136" height="20.192" transform="rotate(360 171.48 271.464)" fill="#F0F0F0"/>
<rect  x="171.48" y="295.968" width="111.136" height="20.192" transform="rotate(360 171.48 295.968)" fill="#F0F0F0"/>
<path d="M81.464,249.52L150.352,249.52C151.324,249.52 152.256,249.906 152.943,250.593C153.63,251.28 154.016,252.212 154.016,253.184L154.016,253.432L77.808,253.432L77.808,253.184C77.808,252.214 78.193,251.283 78.878,250.596C79.564,249.909 80.494,249.522 81.464,249.52Z" transform="rotate(360 115.912 251.476)" fill="#FAFAFA"/>
<rect  x="171.48" y="246.952" width="111.136" height="20.192" transform="rotate(360 171.48 246.952)" fill="#F0F0F0"/>
<path d="M81.464,225.008L150.352,225.008C151.324,225.008 152.256,225.394 152.943,226.081C153.63,226.768 154.016,227.7 154.016,228.672L154.016,228.92L77.808,228.92L77.808,228.672C77.808,227.702 78.193,226.771 78.878,226.084C79.564,225.397 80.494,225.01 81.464,225.008Z" transform="rotate(360 115.912 226.964)" fill="#FAFAFA"/>
<path d="M81.464,274.032L150.352,274.032C151.324,274.032 152.256,274.418 152.943,275.105C153.63,275.792 154.016,276.724 154.016,277.696L154.016,277.944L77.808,277.944L77.808,277.696C77.808,276.726 78.193,275.795 78.878,275.108C79.564,274.421 80.494,274.034 81.464,274.032Z" transform="rotate(360 115.912 275.988)" fill="#FAFAFA"/>
<rect  x="168.48" y="139.248" width="110.224" height="72.184" transform="rotate(360 168.48 139.248)" fill="#E6E6E6"/>
<rect  x="166.912" y="139.248" width="112.016" height="72.184" transform="rotate(360 166.912 139.248)" fill="#F0F0F0"/>
<rect  x="168.48" y="153.408" width="110.224" height="14.168" transform="rotate(360 168.48 153.408)" fill="#E6E6E6"/>
<rect  x="161.304" y="153.408" width="112.016" height="14.168" transform="rotate(360 161.304 153.408)" fill="#F0F0F0"/>
<path d="M142.284,51.86L79.516,51.86L79.516,154.46L142.284,154.46L142.284,51.86Z" transform="rotate(180 110.9 103.16)" fill="#FAFAFA"/>
<path d="M139.064,134.536L125.96,71.776L105.512,71.776L118.616,134.536L139.064,134.536Z" fill="#FFFFFF"/>
<path d="M160.016,129.856C160.061,129.856 160.105,129.847 160.146,129.83C160.188,129.812 160.225,129.787 160.256,129.755C160.288,129.723 160.312,129.685 160.329,129.643C160.345,129.601 160.353,129.557 160.352,129.512L160.352,74.84C160.353,74.796 160.345,74.751 160.329,74.71C160.312,74.669 160.287,74.631 160.256,74.6C160.225,74.569 160.187,74.544 160.146,74.527C160.105,74.511 160.06,74.503 160.016,74.504C159.927,74.504 159.841,74.539 159.778,74.602C159.715,74.665 159.68,74.751 159.68,74.84L159.68,129.512C159.679,129.557 159.687,129.601 159.703,129.643C159.72,129.685 159.744,129.723 159.776,129.755C159.807,129.787 159.844,129.812 159.886,129.83C159.927,129.847 159.971,129.856 160.016,129.856Z" fill="#F0F0F0"/>
<path d="M114.224,134.536L101.12,71.776L93.144,71.776L106.248,134.536L114.224,134.536Z" fill="#FFFFFF"/>
<path d="M91.284,102.86L28.516,102.86L28.516,103.46L91.284,103.46L91.284,102.86Z" transform="rotate(180 59.9 103.16)" fill="#E6E6E6"/>
<g opacity="0.6">
<path d="M53.776,78.872L164,78.872L164.432,73.6L54.208,73.6L53.776,78.872Z" fill="#EBEBEB"/>
</g>
<g opacity="0.6">
<path d="M53.776,81.848L164,81.848L164.432,76.576L54.208,76.576L53.776,81.848Z" fill="#EBEBEB"/>
</g>
<g opacity="0.6">
<path d="M53.776,84.816L164,84.816L164.432,79.552L54.208,79.552L53.776,84.816Z" fill="#EBEBEB"/>
</g>
<g opacity="0.6">
<path d="M53.776,87.792L164,87.792L164.432,82.52L54.208,82.52L53.776,87.792Z" fill="#EBEBEB"/>
</g>
<g opacity="0.6">
<path d="M53.776,90.76L164,90.76L164.432,85.496L54.208,85.496L53.776,90.76Z" fill="#EBEBEB"/>
</g>
<g opacity="0.6">
<path d="M53.776,93.736L164,93.736L164.432,88.464L54.208,88.464L53.776,93.736Z" fill="#EBEBEB"/>
</g>
<rect  x="79.624" y="218.616" width="3.808" height="42.472" transform="rotate(360 79.624 218.616)" fill="#F5F5F5"/>
<rect  x="77.376" y="218.592" width="1.08" height="42.472" transform="rotate(360 77.376 218.592)" fill="#FAFAFA"/>
<rect  x="78.248" y="218.592" width="0.424" height="42.472" transform="rotate(360 78.248 218.592)" fill="#FAFAFA"/>
<path d="M63.632,217.656L91.824,217.656C91.824,218.598 91.45,219.502 90.784,220.168C90.118,220.834 89.214,221.208 88.272,221.208L67.192,221.208C66.25,221.208 65.346,220.834 64.68,220.168C64.014,219.502 63.64,218.598 63.64,217.656L63.632,217.656Z" transform="rotate(360 77.728 219.432)" fill="#F0F0F0"/>
<path d="M70.872,202.512C71.162,202.51 71.44,202.394 71.645,202.189C71.85,201.984 71.966,201.706 71.968,201.416L71.968,173.6C71.968,173.309 71.853,173.031 71.647,172.825C71.442,172.62 71.163,172.504 70.872,172.504C70.727,172.503 70.584,172.531 70.45,172.585C70.316,172.64 70.195,172.72 70.092,172.822C69.989,172.924 69.908,173.045 69.852,173.179C69.797,173.312 69.768,173.455 69.768,173.6L69.768,201.448C69.778,201.734 69.899,202.004 70.105,202.203C70.311,202.401 70.586,202.512 70.872,202.512Z" fill="#F0F0F0"/>
<path d="M60.656,186.24L94.776,186.24L90.848,162.4L64.584,162.4L60.656,186.24Z" fill="#E0E0E0"/>
<path d="M199,342.048C284.666,342.048 354.112,337.994 354.112,332.992C354.112,327.991 284.666,323.936 199,323.936C113.334,323.936 43.888,327.991 43.888,332.992C43.888,337.994 113.334,342.048 199,342.048Z" fill="#F5F5F5"/>
<path d="M82.827,161.897L82.027,161.897L82.027,176.689L82.827,176.689L82.827,161.897Z" transform="rotate(-8.24 82.427 169.293)" fill="#FFB547"/>
<path d="M84.101,184.279L83.301,184.279L83.301,189.847L84.101,189.847L84.101,184.279Z" transform="rotate(-8.24 83.701 187.063)" fill="#FFB547"/>
<path d="M269.168,252.128L97.84,252.128C95.933,252.094 94.106,251.355 92.712,250.053C91.317,248.752 90.454,246.98 90.288,245.08L81.872,128.176C81.794,127.274 81.905,126.366 82.199,125.511C82.493,124.655 82.963,123.87 83.579,123.207C84.195,122.543 84.943,122.016 85.774,121.66C86.606,121.303 87.503,121.125 88.408,121.136L259.736,121.136C261.642,121.17 263.468,121.908 264.862,123.208C266.257,124.508 267.121,126.277 267.288,128.176L275.704,245.08C275.782,245.982 275.671,246.89 275.377,247.746C275.083,248.603 274.613,249.388 273.998,250.052C273.382,250.716 272.634,251.243 271.803,251.601C270.971,251.958 270.074,252.138 269.168,252.128Z" fill="#FFB547"/>
<path d="M269.824,252.128L98.496,252.128C96.589,252.094 94.762,251.355 93.368,250.053C91.973,248.752 91.11,246.98 90.944,245.08L82.528,128.176C82.45,127.274 82.561,126.366 82.855,125.511C83.149,124.655 83.619,123.87 84.235,123.207C84.851,122.543 85.599,122.016 86.43,121.66C87.262,121.303 88.159,121.125 89.064,121.136L260.392,121.136C262.298,121.17 264.124,121.908 265.518,123.208C266.913,124.508 267.777,126.277 267.944,128.176L276.36,245.08C276.44,245.982 276.329,246.891 276.036,247.748C275.742,248.605 275.273,249.391 274.657,250.055C274.041,250.719 273.293,251.246 272.46,251.603C271.628,251.961 270.73,252.139 269.824,252.128Z" fill="#FFB547"/>
<g opacity="0.5">
<path d="M269.824,252.128L98.496,252.128C96.589,252.094 94.762,251.355 93.368,250.053C91.973,248.752 91.11,246.98 90.944,245.08L82.528,128.176C82.45,127.274 82.561,126.366 82.855,125.511C83.149,124.655 83.619,123.87 84.235,123.207C84.851,122.543 85.599,122.016 86.43,121.66C87.262,121.303 88.159,121.125 89.064,121.136L260.392,121.136C262.298,121.17 264.124,121.908 265.518,123.208C266.913,124.508 267.777,126.277 267.944,128.176L276.36,245.08C276.44,245.982 276.329,246.891 276.036,247.748C275.742,248.605 275.273,249.391 274.657,250.055C274.041,250.719 273.293,251.246 272.46,251.603C271.628,251.961 270.73,252.139 269.824,252.128Z" fill="#FFFFFF"/>
</g>
<path d="M260.648,124.656L89.32,124.656L88.744,124.656C84.368,125.016 85.264,131.68 89.68,131.68L261.296,131.68C265.72,131.68 265.656,125.016 261.224,124.656L260.648,124.656Z" fill="#FFB547"/>
<path d="M93.784,128.176C93.801,128.382 93.774,128.59 93.706,128.785C93.638,128.98 93.529,129.159 93.387,129.31C93.246,129.461 93.074,129.58 92.883,129.66C92.692,129.741 92.487,129.78 92.28,129.776C91.845,129.77 91.428,129.603 91.109,129.308C90.79,129.012 90.591,128.609 90.552,128.176C90.535,127.97 90.562,127.764 90.63,127.569C90.697,127.374 90.805,127.196 90.946,127.045C91.087,126.894 91.258,126.775 91.447,126.694C91.637,126.613 91.842,126.573 92.048,126.576C92.484,126.58 92.903,126.746 93.224,127.042C93.545,127.337 93.744,127.742 93.784,128.176Z" fill="#FAFAFA"/>
<path d="M99.28,128.176C99.297,128.382 99.27,128.59 99.202,128.785C99.134,128.98 99.025,129.159 98.883,129.31C98.742,129.461 98.57,129.58 98.379,129.66C98.188,129.741 97.983,129.78 97.776,129.776C97.341,129.77 96.924,129.603 96.605,129.308C96.286,129.012 96.088,128.609 96.048,128.176C96.031,127.97 96.058,127.764 96.126,127.569C96.193,127.374 96.301,127.196 96.442,127.045C96.583,126.894 96.754,126.775 96.944,126.694C97.133,126.613 97.338,126.573 97.544,126.576C97.98,126.58 98.399,126.746 98.72,127.042C99.041,127.337 99.24,127.742 99.28,128.176Z" fill="#FAFAFA"/>
<path d="M104.768,128.176C104.785,128.382 104.759,128.588 104.691,128.783C104.623,128.978 104.515,129.156 104.374,129.307C104.233,129.458 104.062,129.577 103.873,129.658C103.683,129.739 103.478,129.779 103.272,129.776C102.837,129.772 102.419,129.605 102.099,129.31C101.78,129.014 101.582,128.61 101.544,128.176C101.526,127.97 101.552,127.763 101.619,127.568C101.686,127.372 101.794,127.193 101.935,127.042C102.076,126.891 102.248,126.772 102.438,126.692C102.628,126.611 102.834,126.572 103.04,126.576C103.475,126.582 103.892,126.749 104.211,127.044C104.53,127.34 104.729,127.743 104.768,128.176Z" fill="#FAFAFA"/>
<path d="M265.28,240.464L101.4,240.464C100.708,240.452 100.044,240.184 99.539,239.711C99.033,239.238 98.721,238.594 98.664,237.904L91.744,141.768C91.713,141.438 91.753,141.105 91.861,140.792C91.968,140.479 92.141,140.192 92.368,139.95C92.595,139.709 92.871,139.519 93.177,139.392C93.483,139.266 93.813,139.206 94.144,139.216L258.064,139.216C258.755,139.226 259.419,139.492 259.925,139.964C260.43,140.436 260.742,141.079 260.8,141.768L267.728,237.904C267.758,238.238 267.716,238.575 267.605,238.891C267.494,239.208 267.317,239.497 267.085,239.74C266.853,239.982 266.572,240.172 266.261,240.297C265.95,240.422 265.615,240.479 265.28,240.464Z" fill="#FFFFFF"/>
<path d="M196.224,203.84L193.552,166.784L185.472,161.92L163.224,161.92L166.248,203.84L196.224,203.84Z" fill="#FFFFFF"/>
<path d="M196.224,204.224L166.248,204.224C166.149,204.226 166.053,204.19 165.98,204.123C165.907,204.056 165.862,203.963 165.856,203.864L162.84,161.944C162.836,161.891 162.844,161.838 162.861,161.789C162.879,161.739 162.908,161.694 162.944,161.656C162.979,161.616 163.023,161.585 163.071,161.563C163.119,161.541 163.171,161.529 163.224,161.528L185.472,161.528C185.542,161.53 185.611,161.55 185.672,161.584L193.752,166.448C193.807,166.479 193.853,166.523 193.886,166.576C193.919,166.629 193.939,166.689 193.944,166.752L196.6,203.808C196.606,203.862 196.599,203.916 196.581,203.968C196.563,204.019 196.534,204.065 196.496,204.104C196.461,204.141 196.419,204.171 196.373,204.192C196.326,204.213 196.275,204.224 196.224,204.224ZM166.624,203.424L195.8,203.424L193.176,166.984L185.4,162.304L163.64,162.304L166.624,203.424Z" fill="#FFB547"/>
<path d="M193.552,166.784L185.472,161.92L188.44,168.368L193.552,166.784Z" fill="#EBEBEB"/>
<path d="M188.44,168.752C188.366,168.752 188.294,168.73 188.232,168.691C188.17,168.651 188.12,168.595 188.088,168.528L185.12,162.08C185.086,162.004 185.075,161.92 185.091,161.838C185.107,161.756 185.148,161.681 185.208,161.624C185.272,161.57 185.351,161.537 185.434,161.53C185.517,161.522 185.6,161.541 185.672,161.584L193.752,166.448C193.817,166.487 193.87,166.544 193.904,166.612C193.938,166.68 193.952,166.756 193.944,166.832C193.934,166.906 193.903,166.975 193.855,167.032C193.807,167.088 193.743,167.13 193.672,167.152L188.552,168.752L188.44,168.752ZM186.352,162.896L188.648,167.896L192.648,166.672L186.352,162.896Z" fill="#FFB547"/>
<path d="M175.8,180.8C175.812,181.017 175.779,181.235 175.704,181.439C175.629,181.644 175.513,181.831 175.364,181.989C175.214,182.147 175.033,182.273 174.833,182.358C174.633,182.444 174.418,182.488 174.2,182.488C173.743,182.48 173.306,182.303 172.972,181.991C172.638,181.679 172.432,181.255 172.392,180.8C172.371,180.58 172.398,180.359 172.47,180.15C172.541,179.941 172.657,179.751 172.808,179.59C172.96,179.43 173.144,179.303 173.348,179.219C173.552,179.136 173.772,179.096 173.992,179.104C174.449,179.114 174.887,179.293 175.221,179.606C175.554,179.919 175.761,180.344 175.8,180.8Z" fill="#FFB547"/>
<path d="M186.76,180.8C186.78,181.019 186.752,181.24 186.68,181.447C186.608,181.655 186.492,181.845 186.341,182.005C186.189,182.164 186.006,182.29 185.802,182.373C185.599,182.457 185.38,182.496 185.16,182.488C184.703,182.48 184.264,182.303 183.929,181.992C183.594,181.68 183.386,181.256 183.344,180.8C183.331,180.582 183.363,180.364 183.437,180.158C183.512,179.953 183.628,179.765 183.777,179.606C183.927,179.447 184.108,179.321 184.309,179.234C184.51,179.148 184.726,179.104 184.944,179.104C185.404,179.11 185.844,179.288 186.18,179.601C186.516,179.915 186.722,180.342 186.76,180.8Z" fill="#FFB547"/>
<path d="M189.864,191.792C189.767,191.79 189.674,191.753 189.603,191.686C189.532,191.62 189.488,191.529 189.48,191.432C189.28,188.704 185.008,186.488 179.96,186.488C176.608,186.488 173.6,187.488 172.112,189.088C171.806,189.383 171.567,189.739 171.41,190.134C171.252,190.528 171.181,190.952 171.2,191.376C171.204,191.429 171.197,191.481 171.18,191.531C171.164,191.581 171.137,191.627 171.103,191.667C171.033,191.747 170.934,191.797 170.828,191.804C170.722,191.811 170.617,191.776 170.537,191.707C170.457,191.637 170.408,191.538 170.4,191.432C170.376,190.902 170.464,190.372 170.656,189.878C170.849,189.383 171.144,188.934 171.52,188.56C173.12,186.808 176.376,185.712 179.936,185.712C185.48,185.712 190,188.2 190.224,191.376C190.227,191.426 190.221,191.477 190.204,191.525C190.188,191.573 190.162,191.617 190.129,191.655C190.095,191.693 190.055,191.724 190.009,191.746C189.964,191.768 189.915,191.781 189.864,191.784L189.864,191.792Z" fill="#FFB547"/>
<path d="M169.536,177.376C169.438,177.374 169.345,177.337 169.272,177.272C169.199,177.199 169.158,177.099 169.158,176.996C169.158,176.893 169.199,176.793 169.272,176.72L170.976,174.888C171.049,174.818 171.147,174.778 171.248,174.778C171.35,174.778 171.447,174.818 171.52,174.888C171.556,174.924 171.584,174.966 171.604,175.013C171.623,175.059 171.633,175.11 171.633,175.16C171.633,175.211 171.623,175.261 171.604,175.307C171.584,175.354 171.556,175.396 171.52,175.432L169.816,177.264C169.779,177.301 169.736,177.329 169.688,177.349C169.639,177.368 169.588,177.377 169.536,177.376Z" fill="#FFB547"/>
<path d="M189.064,177.376C188.967,177.371 188.874,177.335 188.8,177.272L186.84,175.44C186.803,175.404 186.774,175.361 186.754,175.314C186.733,175.267 186.723,175.216 186.723,175.164C186.723,175.113 186.733,175.062 186.754,175.014C186.774,174.967 186.803,174.924 186.84,174.888C186.913,174.818 187.011,174.778 187.112,174.778C187.214,174.778 187.311,174.818 187.384,174.888L189.344,176.72C189.38,176.756 189.408,176.798 189.428,176.845C189.447,176.891 189.457,176.942 189.457,176.992C189.457,177.043 189.447,177.093 189.428,177.139C189.408,177.186 189.38,177.228 189.344,177.264C189.268,177.335 189.168,177.375 189.064,177.376Z" fill="#FFB547"/>
<path d="M160.808,212.12L162.616,212.12L165.224,215.592L164.976,212.12L166.8,212.12L167.248,218.392L165.4,218.392L162.808,214.944L163.056,218.392L161.232,218.392L160.808,212.12Z" fill="#FFB547"/>
<path d="M168.064,215.256C168.002,214.83 168.032,214.396 168.15,213.982C168.269,213.568 168.474,213.184 168.752,212.856C169.056,212.557 169.42,212.326 169.82,212.179C170.22,212.031 170.647,211.97 171.072,212C171.974,211.951 172.859,212.252 173.544,212.84C174.172,213.465 174.535,214.307 174.56,215.192C174.626,215.803 174.544,216.42 174.32,216.992C174.113,217.453 173.766,217.836 173.328,218.088C172.803,218.37 172.212,218.505 171.616,218.48C171.004,218.499 170.395,218.385 169.832,218.144C169.339,217.907 168.923,217.535 168.632,217.072C168.289,216.526 168.093,215.9 168.064,215.256ZM170.008,215.256C170,215.747 170.158,216.226 170.456,216.616C170.581,216.754 170.735,216.862 170.906,216.934C171.077,217.006 171.262,217.039 171.448,217.032C171.625,217.044 171.803,217.014 171.966,216.943C172.129,216.872 172.273,216.762 172.384,216.624C172.614,216.187 172.69,215.685 172.6,215.2C172.604,214.729 172.445,214.272 172.152,213.904C172.024,213.769 171.869,213.663 171.696,213.592C171.524,213.522 171.338,213.489 171.152,213.496C170.978,213.488 170.805,213.522 170.646,213.594C170.488,213.667 170.349,213.776 170.24,213.912C170.006,214.324 169.924,214.805 170.008,215.272L170.008,215.256Z" fill="#FFB547"/>
<path d="M178.32,212.12L181.2,212.12C181.675,212.105 182.148,212.184 182.592,212.352C182.944,212.499 183.256,212.727 183.504,213.016C183.756,213.31 183.949,213.649 184.072,214.016C184.202,214.41 184.282,214.818 184.312,215.232C184.373,215.755 184.333,216.285 184.192,216.792C184.082,217.143 183.887,217.462 183.624,217.72C183.405,217.952 183.129,218.123 182.824,218.216C182.452,218.324 182.067,218.383 181.68,218.392L178.808,218.392L178.32,212.12ZM180.36,213.544L180.608,216.968L181.08,216.968C181.372,216.987 181.664,216.941 181.936,216.832C182.115,216.728 182.247,216.559 182.304,216.36C182.396,216.005 182.417,215.635 182.368,215.272C182.383,214.784 182.234,214.305 181.944,213.912C181.796,213.778 181.621,213.676 181.431,213.612C181.241,213.549 181.04,213.526 180.84,213.544L180.36,213.544Z" fill="#FFB547"/>
<path d="M188.96,217.352L186.76,217.352L186.528,218.392L184.552,218.392L186.456,212.12L188.6,212.12L191.408,218.392L189.376,218.392L188.96,217.352ZM188.456,216L187.608,213.744L187.08,216L188.456,216Z" fill="#FFB547"/>
<path d="M190.496,212.12L196.384,212.12L196.496,213.672L194.52,213.672L194.856,218.392L192.92,218.392L192.584,213.672L190.608,213.672L190.496,212.12Z" fill="#FFB547"/>
<path d="M200.896,217.352L198.696,217.352L198.464,218.392L196.488,218.392L198.392,212.12L200.504,212.12L203.304,218.392L201.28,218.392L200.896,217.352ZM200.392,216L199.536,213.744L199,216L200.392,216Z" fill="#FFB547"/>
<path d="M281.952,138.464C282.664,138.104 283.552,137.664 284.304,137.208C285.056,136.752 285.904,136.312 286.704,135.832C288.264,134.864 289.848,133.912 291.344,132.856C294.349,130.8 297.165,128.482 299.76,125.928C300.088,125.624 300.376,125.288 300.688,124.96L301.144,124.472L301.368,124.232L301.48,124.104C301.368,124.32 301.48,124.256 301.48,124.048C301.55,123.762 301.59,123.47 301.6,123.176C301.581,121.475 301.386,119.78 301.016,118.12C300.304,114.536 299.224,110.84 298.16,107.224L301.264,105.864C303.223,109.333 304.859,112.975 306.152,116.744C306.878,118.781 307.341,120.902 307.528,123.056C307.577,123.726 307.555,124.399 307.464,125.064C307.345,126.005 307.011,126.905 306.488,127.696L306.352,127.88L306.248,128.008L306.128,128.16L305.88,128.464L305.384,129.064C305.056,129.456 304.736,129.864 304.384,130.24C301.648,133.276 298.596,136.011 295.28,138.4C293.68,139.584 291.984,140.72 290.248,141.752C289.392,142.272 288.52,142.768 287.632,143.256C286.744,143.744 285.88,144.192 284.856,144.672L281.952,138.464Z" fill="#FFB573"/>
<path d="M274.832,326.544C275.431,326.529 276.026,326.448 276.608,326.304C276.637,326.295 276.664,326.278 276.685,326.256C276.706,326.234 276.721,326.206 276.728,326.176C276.732,326.145 276.727,326.114 276.714,326.086C276.702,326.058 276.681,326.033 276.656,326.016C276.424,325.864 274.392,324.552 273.608,324.904C273.521,324.945 273.446,325.007 273.392,325.086C273.337,325.165 273.304,325.256 273.296,325.352C273.265,325.503 273.272,325.659 273.319,325.806C273.365,325.953 273.448,326.086 273.56,326.192C273.927,326.459 274.379,326.584 274.832,326.544ZM276.152,326.08C274.992,326.312 274.112,326.272 273.752,325.96C273.68,325.886 273.627,325.796 273.599,325.696C273.571,325.597 273.569,325.492 273.592,325.392C273.595,325.35 273.609,325.309 273.633,325.274C273.657,325.238 273.69,325.21 273.728,325.192C274.152,325.008 275.328,325.6 276.152,326.08Z" fill="#FFB547"/>
<path d="M276.6,326.304L276.68,326.304C276.703,326.29 276.723,326.27 276.737,326.246C276.751,326.222 276.759,326.195 276.76,326.168C276.76,326.08 276.76,324.152 276.024,323.512C275.936,323.427 275.83,323.363 275.713,323.326C275.597,323.288 275.473,323.278 275.352,323.296C275.226,323.297 275.104,323.341 275.006,323.421C274.909,323.501 274.842,323.612 274.816,323.736C274.664,324.536 275.88,325.936 276.52,326.304C276.546,326.312 276.574,326.312 276.6,326.304ZM275.456,323.592C275.586,323.592 275.711,323.641 275.808,323.728C276.23,324.35 276.448,325.088 276.432,325.84C275.792,325.328 275.032,324.24 275.128,323.784C275.128,323.712 275.184,323.616 275.384,323.592L275.456,323.592Z" fill="#FFB547"/>
<path d="M275.976,118.456C275.176,122.456 273.576,130.456 276.336,133.136C276.336,133.136 275.248,137.136 267.864,137.136C259.736,137.136 263.984,133.136 263.984,133.136C268.416,132.08 268.296,128.792 267.528,125.696L275.976,118.456Z" fill="#FFB573"/>
<path d="M262.424,134.736C261.152,134.912 262.24,131.608 262.752,131.264C263.952,130.464 279.44,129.352 279.336,131.264C279.272,132.064 278.888,133.664 278.216,134.192C277.544,134.72 273.56,133.072 262.424,134.736Z" fill="#263238"/>
<path d="M264.952,133.6C263.936,133.944 264.032,130.616 264.376,130.216C265.176,129.288 277.712,126.072 278.08,127.888C278.224,128.688 278.296,130.288 277.864,130.856C277.432,131.424 273.752,130.488 264.952,133.6Z" fill="#263238"/>
<path d="M260.288,111.288C260.238,111.29 260.187,111.28 260.142,111.26C260.096,111.239 260.055,111.207 260.024,111.168C259.78,110.853 259.465,110.6 259.105,110.429C258.745,110.258 258.35,110.174 257.952,110.184C257.91,110.19 257.868,110.187 257.828,110.175C257.787,110.164 257.749,110.145 257.716,110.119C257.684,110.093 257.656,110.06 257.636,110.023C257.616,109.986 257.604,109.946 257.6,109.904C257.593,109.822 257.618,109.74 257.671,109.676C257.723,109.611 257.798,109.57 257.88,109.56C258.384,109.534 258.886,109.631 259.344,109.841C259.802,110.051 260.203,110.369 260.512,110.768C260.566,110.833 260.591,110.916 260.584,111C260.576,111.084 260.536,111.162 260.472,111.216C260.418,111.255 260.354,111.28 260.288,111.288Z" fill="#263238"/>
<path d="M258.736,115.2C258.373,116.476 257.835,117.696 257.136,118.824C257.429,118.993 257.756,119.095 258.093,119.124C258.431,119.153 258.77,119.108 259.088,118.992L258.736,115.2Z" fill="#FF5652"/>
<path d="M259.128,114.232C259.184,114.768 258.936,115.232 258.584,115.264C258.232,115.296 257.904,114.896 257.856,114.352C257.808,113.808 258.048,113.352 258.392,113.32C258.736,113.288 259.072,113.688 259.128,114.232Z" fill="#263238"/>
<path d="M258.552,113.336L257.224,113.088C257.224,113.088 257.984,114.032 258.552,113.336Z" fill="#263238"/>
<path d="M284.36,326.152L277.656,326.152L278.184,310.632L284.888,310.632L284.36,326.152Z" fill="#FFB573"/>
<path d="M277.128,325.376L284.656,325.376C284.786,325.373 284.912,325.418 285.011,325.502C285.11,325.586 285.174,325.703 285.192,325.832L286.048,331.784C286.065,331.935 286.05,332.087 286.004,332.231C285.957,332.375 285.881,332.508 285.78,332.621C285.678,332.733 285.554,332.823 285.416,332.885C285.277,332.946 285.127,332.977 284.976,332.976C282.352,332.936 281.088,332.776 277.776,332.776C275.736,332.776 272.76,332.992 269.952,332.992C267.144,332.992 266.984,330.208 268.16,329.96C273.408,328.824 274.24,327.272 276.008,325.784C276.323,325.522 276.719,325.378 277.128,325.376Z" fill="#263238"/>
<g opacity="0.2">
<path d="M284.888,310.632L278.184,310.632L277.912,318.632L284.616,318.632L284.888,310.632Z" fill="#000000"/>
</g>
<path d="M257.696,142.4C253.594,140.805 249.575,139.003 245.656,137C241.608,135.022 237.751,132.673 234.136,129.984C233.17,129.227 232.256,128.407 231.4,127.528C231.176,127.288 230.952,127.064 230.736,126.784C230.482,126.498 230.247,126.196 230.032,125.88C229.442,125.02 229.074,124.028 228.96,122.992C228.872,122.009 229.006,121.02 229.352,120.096C229.629,119.354 230.009,118.653 230.48,118.016C231.253,116.959 232.165,116.012 233.192,115.2C235.005,113.757 236.962,112.505 239.032,111.464C240.024,110.936 241.032,110.464 242.056,110.024C243.08,109.584 244.088,109.168 245.184,108.792L246.6,111.872C243.112,114.072 239.496,116.496 236.84,119.2C236.246,119.802 235.722,120.471 235.28,121.192C234.896,121.824 234.904,122.296 234.968,122.256C235.032,122.216 234.968,122.256 235.08,122.336L235.4,122.68C235.52,122.824 235.688,122.968 235.84,123.12C236.518,123.744 237.237,124.321 237.992,124.848C239.643,126.017 241.364,127.086 243.144,128.048C244.944,129.056 246.8,130.008 248.688,130.92C252.464,132.728 256.368,134.464 260.2,136.048L257.696,142.4Z" fill="#FFB573"/>
<path d="M248.6,109.72L249.704,107.32L244.648,105.6C244.648,105.6 243.048,110.328 244.944,112.504C245.736,112.379 246.485,112.059 247.123,111.574C247.762,111.088 248.269,110.451 248.6,109.72Z" fill="#FFB573"/>
<path d="M249.68,102.128L245.656,100.96L244.648,105.568L249.68,107.32L249.68,102.128Z" fill="#FFB573"/>
<path d="M301.68,107.552L302.264,101.952L297.08,103.2C297.08,103.2 297,108.464 299.744,109.296L301.68,107.552Z" fill="#FFB573"/>
<path d="M299.768,98.008L296.384,99.584L297.08,103.16L302.264,101.936L299.768,98.008Z" fill="#FFB573"/>
<path d="M277.032,110.6C277.28,117.248 277.52,120.056 274.52,123.776C270,129.376 261.784,128.216 259.56,121.776C257.56,115.984 257.496,106.088 263.704,102.824C265.069,102.098 266.596,101.733 268.142,101.764C269.687,101.794 271.199,102.219 272.535,102.998C273.87,103.777 274.984,104.884 275.771,106.215C276.558,107.545 276.992,109.055 277.032,110.6Z" fill="#FFB573"/>
<path d="M274.136,123.768C280.664,120.944 284.952,114.968 283.144,105.704C281.408,96.816 275.408,95.936 272.928,97.776C270.448,99.616 264.264,96.872 260.552,99.992C254.152,105.408 260.2,111.192 263.368,114.688C265.256,118.576 267.736,126.528 274.136,123.768Z" fill="#263238"/>
<path d="M271.424,104.112C272.22,105.134 273.298,105.9 274.525,106.315C275.752,106.731 277.073,106.779 278.327,106.452C279.58,106.126 280.711,105.439 281.578,104.478C282.446,103.516 283.013,102.321 283.21,101.041C283.406,99.761 283.224,98.451 282.684,97.273C282.145,96.096 281.273,95.102 280.175,94.414C279.077,93.727 277.802,93.375 276.507,93.404C275.212,93.433 273.954,93.84 272.888,94.576C271.43,95.647 270.456,97.253 270.182,99.041C269.907,100.829 270.354,102.653 271.424,104.112Z" fill="#FFB547"/>
<path d="M273.12,98.4C272.184,93.04 277.248,88.912 284.032,90.904C290.816,92.896 287.232,98.904 285.832,103.704C284.432,108.504 288.096,113.08 289.616,109.424C291.136,105.768 288.576,104.624 288.576,104.624C288.576,104.624 295.776,106.488 289.088,114.608C282.4,122.728 276.344,113.76 277.984,108.472C279.312,104.224 274.008,103.464 273.12,98.4Z" fill="#263238"/>
<path d="M266.344,100.424C263.248,98.824 258.008,97.504 255.024,102.528C253.616,104.928 254.16,108.128 254.16,108.128L263.272,108.728L266.344,100.424Z" fill="#263238"/>
<path d="M253.088,106.544C253.034,106.54 252.984,106.515 252.948,106.475C252.912,106.434 252.894,106.382 252.896,106.328C252.896,106.192 253.128,102.976 255.072,100.96C259.768,96.08 265.272,100.16 266.84,101.48C266.874,101.516 266.893,101.563 266.895,101.612C266.896,101.661 266.879,101.709 266.848,101.746C266.816,101.784 266.772,101.808 266.723,101.815C266.674,101.822 266.625,101.811 266.584,101.784C265.072,100.488 259.808,96.608 255.384,101.232C253.544,103.144 253.32,106.32 253.32,106.352C253.319,106.38 253.312,106.408 253.3,106.434C253.287,106.46 253.269,106.482 253.248,106.501C253.226,106.519 253.2,106.532 253.172,106.54C253.145,106.547 253.116,106.549 253.088,106.544Z" fill="#263238"/>
<path d="M264.48,114.4C264.444,115.659 263.978,116.867 263.16,117.824C262.056,119.12 260.76,118.48 260.496,117.024C260.232,115.736 260.496,113.504 261.888,112.728C263.28,111.952 264.496,112.944 264.48,114.4Z" fill="#FFB573"/>
<path d="M263.04,175.296C263.04,175.296 263.472,221.816 267.504,247.736C270.768,268.672 276.792,317.088 276.792,317.088L285.936,317.088C285.936,317.088 286.824,270.344 285.136,249.64C280.952,197.24 291.76,187.44 283.04,175.296L263.04,175.296Z" fill="#263238"/>
<g opacity="0.1">
<path d="M263.04,175.296C263.04,175.296 263.472,221.816 267.504,247.736C270.768,268.672 276.792,317.088 276.792,317.088L285.936,317.088C285.936,317.088 286.824,270.344 285.136,249.64C280.952,197.24 291.76,187.44 283.04,175.296L263.04,175.296Z" fill="#FFFFFF"/>
</g>
<g opacity="0.3">
<path d="M267.848,196.4C271.048,210.44 268.496,232.552 266.744,242.288C264.888,227.504 263.952,208.344 263.488,194.288C265.144,191.616 266.712,191.44 267.848,196.4Z" fill="#000000"/>
</g>
<path d="M275.544,317.264L287.184,317.264L287.792,313.184L275.48,312.768L275.544,317.264Z" fill="#FFB547"/>
<path d="M278.864,136C279.96,133.824 285.848,132.456 289.064,132.464L291.464,143.152C291.464,143.152 285.064,152.664 282.392,151.656C279.248,150.496 276.52,140.696 278.864,136Z" fill="#FFB547"/>
<g opacity="0.4">
<path d="M278.864,136C279.96,133.824 285.848,132.456 289.064,132.464L291.464,143.152C291.464,143.152 285.064,152.664 282.392,151.656C279.248,150.496 276.52,140.696 278.864,136Z" fill="#000000"/>
</g>
<path d="M272.08,314.648C272.093,314.625 272.1,314.599 272.1,314.572C272.1,314.545 272.093,314.519 272.08,314.496C272.065,314.465 272.041,314.44 272.01,314.424C271.98,314.409 271.946,314.403 271.912,314.408C271.576,314.464 268.616,314.928 268.216,315.776C268.173,315.853 268.151,315.94 268.151,316.028C268.151,316.116 268.173,316.203 268.216,316.28C268.285,316.406 268.383,316.514 268.503,316.594C268.623,316.673 268.761,316.722 268.904,316.736C269.872,316.832 271.304,315.488 272.024,314.672L272.08,314.648ZM268.528,315.88C268.8,315.432 270.336,315.016 271.504,314.8C270.448,315.872 269.52,316.472 268.976,316.4C268.882,316.391 268.792,316.358 268.713,316.305C268.635,316.252 268.572,316.18 268.528,316.096C268.51,316.066 268.501,316.031 268.501,315.996C268.501,315.961 268.51,315.926 268.528,315.896C268.528,315.896 268.52,315.888 268.528,315.88Z" fill="#FFB547"/>
<path d="M272.08,314.648C272.093,314.625 272.1,314.599 272.1,314.572C272.1,314.545 272.093,314.519 272.08,314.496C272.032,314.44 270.848,313.072 269.752,313C269.594,312.987 269.435,313.006 269.285,313.057C269.135,313.108 268.997,313.189 268.88,313.296C268.552,313.592 268.584,313.848 268.664,314.008C269.008,314.696 271.136,314.936 271.992,314.752C272.014,314.743 272.034,314.729 272.049,314.711C272.064,314.693 272.075,314.671 272.08,314.648ZM268.952,313.64C268.987,313.586 269.03,313.537 269.08,313.496C269.163,313.417 269.263,313.356 269.372,313.319C269.481,313.282 269.597,313.268 269.712,313.28C270.456,313.463 271.125,313.874 271.624,314.456C270.672,314.536 269.136,314.248 268.928,313.832C268.915,313.801 268.91,313.767 268.914,313.733C268.918,313.699 268.931,313.667 268.952,313.64Z" fill="#FFB547"/>
<path d="M279.064,311.808L272.936,314.536L270.208,308.848L266.64,301.408L266.216,300.544L272.344,297.816L272.816,298.792L276.272,306L279.064,311.808Z" fill="#FFB573"/>
<g opacity="0.2">
<path d="M276.272,306L270.208,308.848L266.64,301.408L272.816,298.792L276.272,306Z" fill="#000000"/>
</g>
<path d="M255.856,175.296C255.856,175.296 236.28,224 241.584,246.88C246.384,267.592 267.584,306.816 267.584,306.816L275.8,302.704C275.8,302.704 262.688,255.352 261.272,245.064C258.504,225.064 276.288,196.8 276.288,175.296L255.856,175.296Z" fill="#263238"/>
<g opacity="0.1">
<path d="M255.856,175.296C255.856,175.296 236.28,224 241.584,246.88C246.384,267.592 267.584,306.816 267.584,306.816L275.8,302.704C275.8,302.704 262.688,255.352 261.272,245.064C258.504,225.064 276.288,196.8 276.288,175.296L255.856,175.296Z" fill="#FFFFFF"/>
</g>
<path d="M271.848,313.68L277.928,309.256C278.031,309.176 278.159,309.136 278.289,309.145C278.419,309.154 278.541,309.211 278.632,309.304L282.832,313.616C282.934,313.729 283.011,313.861 283.058,314.006C283.105,314.15 283.121,314.303 283.105,314.454C283.089,314.605 283.042,314.75 282.966,314.882C282.89,315.013 282.787,315.127 282.664,315.216C280.512,316.72 279.4,317.344 276.728,319.288C275.08,320.488 271.8,323.136 269.528,324.792C267.256,326.448 265.528,324.288 266.328,323.4C269.912,319.4 270.664,316.92 271.224,314.672C271.311,314.279 271.531,313.928 271.848,313.68Z" fill="#263238"/>
<path d="M267.056,308.552L277.64,303.712L276.288,299.4L264.952,304.568L267.056,308.552Z" fill="#FFB547"/>
<path d="M261.048,135.488C260.176,133.216 252.528,130.688 248.688,129.888L247,142.464C247,142.464 253.272,151.472 256.016,150.728C259.264,149.848 262.936,140.36 261.048,135.488Z" fill="#FFB547"/>
<g opacity="0.4">
<path d="M261.048,135.488C260.176,133.216 252.528,130.688 248.688,129.888L247,142.464C247,142.464 253.272,151.472 256.016,150.728C259.264,149.848 262.936,140.36 261.048,135.488Z" fill="#000000"/>
</g>
<path d="M252.656,134.856C252.656,134.856 249.456,135.976 255.856,175.296L283.056,175.296C282.6,164.224 282.584,157.392 287.856,134.656C284.045,133.87 280.181,133.362 276.296,133.136C272.184,132.84 268.056,132.84 263.944,133.136C258.672,133.6 252.656,134.856 252.656,134.856Z" fill="#FFB547"/>
<g opacity="0.4">
<path d="M252.656,134.856C252.656,134.856 249.456,135.976 255.856,175.296L283.056,175.296C282.6,164.224 282.584,157.392 287.856,134.656C284.045,133.87 280.181,133.362 276.296,133.136C272.184,132.84 268.056,132.84 263.944,133.136C258.672,133.6 252.656,134.856 252.656,134.856Z" fill="#000000"/>
</g>
<path d="M283.48,173.704L284.704,176.104C284.8,176.296 284.576,176.488 284.264,176.488L255.72,176.488C255.472,176.488 255.272,176.368 255.256,176.208L255.008,173.808C255.008,173.64 255.208,173.496 255.472,173.496L283,173.496C283.091,173.482 283.185,173.493 283.27,173.53C283.355,173.567 283.428,173.627 283.48,173.704Z" fill="#FFB547"/>
<g opacity="0.3">
<path d="M283.48,173.704L284.704,176.104C284.8,176.296 284.576,176.488 284.264,176.488L255.72,176.488C255.472,176.488 255.272,176.368 255.256,176.208L255.008,173.808C255.008,173.64 255.208,173.496 255.472,173.496L283,173.496C283.091,173.482 283.185,173.493 283.27,173.53C283.355,173.567 283.428,173.627 283.48,173.704Z" fill="#FFFFFF"/>
</g>
<path d="M279.8,176.8L280.536,176.8C280.688,176.8 280.8,176.72 280.784,176.632L280.44,173.432C280.44,173.336 280.304,173.264 280.16,173.264L279.416,173.264C279.272,173.264 279.16,173.336 279.168,173.432L279.512,176.632C279.504,176.704 279.632,176.8 279.8,176.8Z" fill="#263238"/>
<path d="M261.888,176.8L262.624,176.8C262.768,176.8 262.88,176.72 262.872,176.632L262.528,173.432C262.528,173.336 262.392,173.264 262.24,173.264L261.504,173.264C261.352,173.264 261.248,173.336 261.256,173.432L261.6,176.632C261.608,176.704 261.736,176.8 261.888,176.8Z" fill="#263238"/>
</svg>
