<svg width="14" height="24" viewBox="0 0 14 24" fill="none" xmlns="http://www.w3.org/2000/svg" xmlns:xlink="http://www.w3.org/1999/xlink">
<path d="M9.2,12L1.4,4.2C1.033,3.833 0.85,3.367 0.85,2.8C0.85,2.233 1.033,1.767 1.4,1.4C1.766,1.033 2.233,0.85 2.8,0.85C3.366,0.85 3.833,1.033 4.2,1.4L13.4,10.6C13.6,10.8 13.741,11.017 13.825,11.25C13.908,11.483 13.95,11.733 13.95,12C13.95,12.267 13.908,12.517 13.825,12.75C13.741,12.983 13.6,13.2 13.4,13.4L4.2,22.6C3.833,22.967 3.366,23.15 2.8,23.15C2.233,23.15 1.766,22.967 1.4,22.6C1.033,22.233 0.85,21.767 0.85,21.2C0.85,20.633 1.033,20.167 1.4,19.8L9.2,12Z" fill="#6F6F71"/>
</svg>
