<svg width="24" height="14" viewBox="0 0 24 14" fill="none" xmlns="http://www.w3.org/2000/svg" xmlns:xlink="http://www.w3.org/1999/xlink">
<path d="M12,5.6L4.2,13.4C3.833,13.767 3.366,13.95 2.8,13.95C2.233,13.95 1.766,13.767 1.4,13.4C1.033,13.033 0.85,12.567 0.85,12C0.85,11.433 1.033,10.967 1.4,10.6L10.6,1.4C11,1 11.466,0.8 12,0.8C12.533,0.8 13,1 13.4,1.4L22.6,10.6C22.966,10.967 23.15,11.433 23.15,12C23.15,12.567 22.966,13.033 22.6,13.4C22.233,13.767 21.766,13.95 21.2,13.95C20.633,13.95 20.166,13.767 19.8,13.4L12,5.6Z" fill="#FFCC80"/>
</svg>
