<svg width="42" height="42" viewBox="0 0 42 42" fill="none" xmlns="http://www.w3.org/2000/svg" xmlns:xlink="http://www.w3.org/1999/xlink">
<path d="M20.001,-0.364C14.47,-0.364 13.776,-0.339 11.604,-0.24C9.436,-0.141 7.957,0.202 6.662,0.706C5.323,1.226 4.186,1.921 3.055,3.054C1.922,4.186 1.226,5.322 0.704,6.661C0.2,7.956 -0.144,9.436 -0.242,11.603C-0.339,13.775 -0.364,14.47 -0.364,20C-0.364,25.53 -0.34,26.222 -0.241,28.395C-0.142,30.562 0.202,32.042 0.705,33.337C1.225,34.676 1.921,35.812 3.053,36.944C4.185,38.077 5.321,38.774 6.659,39.295C7.955,39.798 9.435,40.141 11.602,40.241C13.774,40.339 14.468,40.364 19.998,40.364C25.529,40.364 26.221,40.339 28.393,40.241C30.56,40.141 32.042,39.798 33.337,39.295C34.676,38.774 35.811,38.077 36.942,36.944C38.075,35.812 38.771,34.676 39.292,33.337C39.793,32.042 40.137,30.562 40.238,28.395C40.336,26.223 40.361,25.53 40.361,20C40.361,14.47 40.336,13.776 40.238,11.603C40.137,9.436 39.793,7.956 39.292,6.661C38.771,5.322 38.075,4.186 36.942,3.054C35.809,1.921 34.677,1.225 33.336,0.706C32.038,0.202 30.557,-0.141 28.39,-0.24C26.218,-0.339 25.526,-0.364 19.994,-0.364L20.001,-0.364ZM18.174,3.306C18.716,3.305 19.321,3.306 20.001,3.306C25.437,3.306 26.082,3.326 28.229,3.423C30.214,3.514 31.292,3.846 32.01,4.125C32.96,4.494 33.637,4.935 34.35,5.648C35.062,6.36 35.504,7.039 35.873,7.989C36.152,8.706 36.484,9.784 36.575,11.769C36.672,13.916 36.694,14.561 36.694,19.995C36.694,25.43 36.672,26.075 36.575,28.221C36.484,30.207 36.152,31.284 35.873,32.001C35.504,32.952 35.062,33.628 34.35,34.341C33.637,35.053 32.96,35.495 32.01,35.864C31.293,36.144 30.214,36.475 28.229,36.565C26.082,36.663 25.437,36.684 20.001,36.684C14.563,36.684 13.919,36.663 11.772,36.565C9.787,36.474 8.709,36.142 7.991,35.863C7.041,35.494 6.362,35.053 5.649,34.34C4.936,33.628 4.495,32.95 4.125,32C3.847,31.283 3.514,30.205 3.424,28.22C3.327,26.073 3.307,25.428 3.307,19.99C3.307,14.552 3.327,13.911 3.424,11.764C3.515,9.779 3.847,8.701 4.125,7.983C4.494,7.033 4.936,6.354 5.649,5.642C6.362,4.929 7.041,4.488 7.991,4.118C8.709,3.838 9.787,3.507 11.772,3.416C13.651,3.331 14.379,3.305 18.174,3.301L18.174,3.306ZM30.87,6.687C29.521,6.687 28.427,7.781 28.427,9.13C28.427,10.479 29.521,11.574 30.87,11.574C32.219,11.574 33.314,10.479 33.314,9.13C33.314,7.781 32.219,6.687 30.87,6.687L30.87,6.687ZM20.001,9.543C14.225,9.543 9.543,14.225 9.543,20C9.543,25.775 14.225,30.455 20.001,30.455C25.776,30.455 30.456,25.775 30.456,20C30.456,14.225 25.775,9.543 20,9.543L20.001,9.543ZM20.001,13.212C23.749,13.212 26.788,16.251 26.788,20C26.788,23.749 23.749,26.788 20.001,26.788C16.252,26.788 13.213,23.749 13.213,20C13.213,16.251 16.252,13.212 20.001,13.212L20.001,13.212Z" fill="#FFFFFF"/>
</svg>
