<svg width="60" height="60" viewBox="0 0 60 60" fill="none" xmlns="http://www.w3.org/2000/svg" xmlns:xlink="http://www.w3.org/1999/xlink">
<path d="M56.988,7.385L52.465,7.385L52.465,2.875C52.465,2.272 52.226,1.693 51.799,1.266C51.372,0.84 50.794,0.6 50.19,0.6L2.725,0.6C2.122,0.6 1.543,0.84 1.116,1.266C0.69,1.693 0.45,2.272 0.45,2.875L0.45,16.417C0.45,17.675 1.468,18.692 2.725,18.692L50.19,18.692C50.489,18.692 50.785,18.633 51.061,18.519C51.337,18.405 51.588,18.237 51.799,18.026C52.01,17.815 52.178,17.564 52.292,17.288C52.407,17.012 52.465,16.716 52.465,16.417L52.465,11.908L54.727,11.908L54.727,25.938L27.082,32.316C26.583,32.431 26.137,32.711 25.818,33.112C25.499,33.513 25.326,34.011 25.327,34.523L25.327,41.339C24.716,41.377 24.143,41.646 23.723,42.091C23.303,42.536 23.068,43.125 23.065,43.737L23.065,56.971C23.065,58.314 24.151,59.4 25.494,59.4L29.683,59.4C31.026,59.4 32.112,58.314 32.112,56.971L32.112,43.737C32.109,43.125 31.874,42.536 31.454,42.091C31.034,41.646 30.461,41.377 29.85,41.339L29.85,36.319L57.495,29.941C57.994,29.827 58.439,29.546 58.757,29.146C59.076,28.746 59.25,28.25 59.25,27.738L59.25,9.646C59.25,9.046 59.012,8.471 58.588,8.047C58.163,7.623 57.588,7.385 56.988,7.385Z" fill="#FFCC80"/>
</svg>
