<svg width="28" height="28" viewBox="0 0 28 28" fill="none" xmlns="http://www.w3.org/2000/svg" xmlns:xlink="http://www.w3.org/1999/xlink">
<path d="M10.001,20C7.223,20 4.861,19.028 2.917,17.083C0.972,15.139 0,12.778 0,10C0,7.222 0.972,4.861 2.917,2.917C4.861,0.972 7.222,0 10,0C12.778,0 15.139,0.972 17.083,2.917C19.028,4.861 20,7.223 20,10.001C20,11.123 19.826,12.181 19.479,13.175C19.132,14.17 18.653,15.083 18.042,15.917L26.958,24.833C27.264,25.139 27.417,25.486 27.417,25.875C27.417,26.264 27.264,26.611 26.958,26.917C26.653,27.222 26.299,27.375 25.896,27.375C25.493,27.375 25.139,27.222 24.833,26.917L15.917,18.042C15.083,18.653 14.17,19.132 13.175,19.479C12.181,19.826 11.123,20 10.001,20ZM10,17C11.944,17 13.597,16.319 14.958,14.958C16.319,13.597 17,11.944 17,10C17,8.056 16.319,6.403 14.958,5.042C13.597,3.681 11.944,3 10,3C8.056,3 6.403,3.681 5.042,5.042C3.681,6.403 3,8.056 3,10C3,11.944 3.681,13.597 5.042,14.958C6.403,16.319 8.056,17 10,17Z" fill="#6F6F71"/>
</svg>
