<svg width="20" height="12" viewBox="0 0 20 12" fill="none" xmlns="http://www.w3.org/2000/svg" xmlns:xlink="http://www.w3.org/1999/xlink">
<path d="M10,10.958C9.778,10.958 9.57,10.924 9.375,10.854C9.181,10.785 9,10.667 8.833,10.5L1.167,2.833C0.861,2.528 0.708,2.139 0.708,1.667C0.708,1.194 0.861,0.806 1.167,0.5C1.472,0.194 1.861,0.042 2.333,0.042C2.806,0.042 3.195,0.194 3.5,0.5L10,7L16.5,0.5C16.806,0.194 17.195,0.042 17.667,0.042C18.139,0.042 18.528,0.194 18.833,0.5C19.139,0.806 19.292,1.194 19.292,1.667C19.292,2.139 19.139,2.528 18.833,2.833L11.167,10.5C11,10.667 10.82,10.785 10.625,10.854C10.431,10.924 10.222,10.958 10,10.958Z" fill="#FFFFFF"/>
</svg>
