<svg width="28" height="28" viewBox="0 0 28 28" fill="none" xmlns="http://www.w3.org/2000/svg" xmlns:xlink="http://www.w3.org/1999/xlink">
<path d="M3,28C2.175,28 1.469,27.706 0.881,27.119C0.294,26.531 0,25.825 0,25L0,3C0,2.175 0.294,1.469 0.881,0.881C1.469,0.294 2.175,0 3,0L12.5,0C12.925,0 13.281,0.143 13.569,0.429C13.856,0.715 14,1.069 14,1.491C14,1.914 13.856,2.271 13.569,2.563C13.281,2.854 12.925,3 12.5,3L3,3L3,25L12.5,25C12.925,25 13.281,25.143 13.569,25.429C13.856,25.715 14,26.069 14,26.491C14,26.914 13.856,27.271 13.569,27.562C13.281,27.854 12.925,28 12.5,28L3,28ZM22.25,15.5L11.498,15.5C11.074,15.5 10.718,15.357 10.431,15.071C10.144,14.785 10,14.431 10,14.009C10,13.586 10.144,13.229 10.431,12.938C10.718,12.646 11.074,12.5 11.498,12.5L22.25,12.5L19.917,10.167C19.611,9.861 19.458,9.506 19.458,9.101C19.458,8.697 19.611,8.342 19.917,8.039C20.222,7.735 20.576,7.583 20.979,7.583C21.382,7.583 21.736,7.736 22.042,8.042L26.958,12.958C27.264,13.254 27.417,13.599 27.417,13.993C27.417,14.386 27.264,14.736 26.958,15.042L22.042,19.958C21.736,20.264 21.389,20.41 21,20.396C20.611,20.382 20.257,20.222 19.938,19.917C19.646,19.611 19.5,19.257 19.5,18.854C19.5,18.451 19.653,18.097 19.958,17.792L22.25,15.5Z" fill="#EC4F46"/>
</svg>
