<svg width="60" height="70" viewBox="0 0 60 70" fill="none" xmlns="http://www.w3.org/2000/svg" xmlns:xlink="http://www.w3.org/1999/xlink">
<path d="M42.088,67.763C41.446,68.404 40.751,68.871 40.001,69.163C39.253,69.454 38.466,69.6 37.639,69.6C36.813,69.6 36.021,69.454 35.263,69.163C34.504,68.871 33.804,68.404 33.163,67.763L28.7,63.3C28.058,62.717 27.592,62.075 27.3,61.375C27.008,60.675 26.863,59.917 26.863,59.1C26.863,58.283 27.023,57.452 27.344,56.606C27.665,55.76 28.117,55.017 28.7,54.375L0.175,13.425L13.3,0.3L56.981,43.981C57.61,44.61 58.071,45.3 58.363,46.049C58.654,46.797 58.8,47.584 58.8,48.411C58.8,49.237 58.654,50.029 58.363,50.788C58.071,51.546 57.604,52.246 56.963,52.888L42.088,67.763ZM33.25,49.825L43.575,39.5L13.3,9.225L8.4,14.125L33.25,49.825ZM37.625,63.3L52.5,48.425L48.038,43.963L33.163,58.838L37.625,63.3Z" fill="#FFCC80"/>
</svg>
