<svg width="70" height="70" viewBox="0 0 70 70" fill="none" xmlns="http://www.w3.org/2000/svg" xmlns:xlink="http://www.w3.org/1999/xlink">
<path d="M64.135,70C67.374,70 70.026,67.369 69.754,64.142C69.151,56.956 67.44,49.895 64.672,43.212C61.154,34.719 55.998,27.003 49.497,20.503C42.997,14.002 35.281,8.846 26.788,5.328C20.105,2.56 13.044,0.849 5.858,0.246C2.63,-0.026 0,2.626 0,5.865L0,5.865C0,9.104 2.632,11.7 5.855,12.025C11.499,12.595 17.039,13.987 22.299,16.166C29.368,19.094 35.792,23.386 41.203,28.797C46.614,34.208 50.906,40.632 53.834,47.701C56.013,52.961 57.405,58.501 57.975,64.145C58.3,67.368 60.896,70 64.135,70L64.135,70Z" fill="#FFCC80"/>
</svg>
