<svg width="440" height="440" viewBox="0 0 440 440" fill="none" xmlns="http://www.w3.org/2000/svg" xmlns:xlink="http://www.w3.org/1999/xlink">
<path d="M440,220C440,341.502 341.502,440 220,440C98.497,440 0,341.502 0,220C0,98.497 98.497,0 220,0C341.502,0 440,98.497 440,220ZM43.372,220C43.372,317.548 122.451,396.628 220,396.628C317.548,396.628 396.628,317.548 396.628,220C396.628,122.451 317.548,43.372 220,43.372C122.451,43.372 43.372,122.451 43.372,220Z" fill="url(#pf_0_300_2172)"/>
<path d="M348.624,51.477C351.304,47.965 350.638,42.932 347.03,40.381C314.996,17.724 277.438,4.019 238.24,0.757C196.381,-2.725 154.399,5.849 117.257,25.465C80.115,45.082 49.365,74.921 28.641,111.457C9.234,145.67 -0.621,184.416 0.03,223.648C0.104,228.066 3.885,231.454 8.297,231.22L35.631,229.772C40.043,229.538 43.411,225.77 43.378,221.352C43.14,190.394 51.046,159.866 66.367,132.856C83.005,103.523 107.693,79.566 137.512,63.817C167.332,48.068 201.038,41.185 234.644,43.981C265.59,46.555 295.26,57.237 320.696,74.887C324.324,77.406 329.336,76.748 332.016,73.236L348.624,51.477Z" fill="url(#pf_0_300_2173)"/>
<defs>
<linearGradient id="pf_0_300_2172" x1="219.2" y1="-172" x2="220" y2="440" gradientUnits="userSpaceOnUse">
<stop offset="0.183" stop-color="#313135"/>
<stop offset="0.796" stop-color="#0F0F10" stop-opacity="0.05"/>
</linearGradient>
<linearGradient id="pf_0_300_2173" x1="344" y1="51.2" x2="32" y2="241.6" gradientUnits="userSpaceOnUse">
<stop stop-color="#FFC266"/>
<stop offset="1" stop-color="#1A1A1B" stop-opacity="0.5"/>
</linearGradient>
</defs>
</svg>
