<svg width="48" height="48" viewBox="0 0 48 48" fill="none" xmlns="http://www.w3.org/2000/svg" xmlns:xlink="http://www.w3.org/1999/xlink">
<path d="M11.414,37.2C10.905,37.2 10.475,37.029 10.125,36.686C9.775,36.343 9.6,35.918 9.6,35.411C9.6,34.904 9.772,34.475 10.117,34.125C10.462,33.775 10.89,33.6 11.4,33.6L12,33.6L12,21.6C12,18.7 12.892,16.15 14.675,13.95C16.458,11.75 18.767,10.383 21.6,9.85L21.6,7.2C21.6,6.533 21.833,5.967 22.3,5.5C22.767,5.033 23.333,4.8 24,4.8C24.667,4.8 25.233,5.033 25.7,5.5C26.167,5.967 26.4,6.533 26.4,7.2L26.4,9.85C29.233,10.383 31.542,11.75 33.325,13.95C35.108,16.15 36,18.7 36,21.6L36,33.6L36.6,33.6C37.11,33.6 37.538,33.772 37.882,34.115C38.227,34.458 38.4,34.882 38.4,35.389C38.4,35.896 38.228,36.325 37.883,36.675C37.538,37.025 37.111,37.2 36.601,37.2L11.414,37.2ZM23.989,43.2C22.996,43.2 22.15,42.848 21.45,42.142C20.75,41.438 20.4,40.59 20.4,39.6L27.6,39.6C27.6,40.6 27.246,41.45 26.539,42.15C25.832,42.85 24.982,43.2 23.989,43.2ZM15.6,33.6L32.4,33.6L32.4,21.6C32.4,19.267 31.583,17.283 29.95,15.65C28.317,14.017 26.333,13.2 24,13.2C21.667,13.2 19.683,14.017 18.05,15.65C16.417,17.283 15.6,19.267 15.6,21.6L15.6,33.6Z" fill="#FFFFFF"/>
<circle cx="36" cy="18" r="6" fill="#EC4F46"/>
</svg>
