<svg width="60" height="38" viewBox="0 0 60 38" fill="none" xmlns="http://www.w3.org/2000/svg" xmlns:xlink="http://www.w3.org/1999/xlink">
<path d="M29.576,11.753C19.208,11.753 -0.375,13.38 -0.375,19.523L-0.27,30.652C-0.375,35.876 19.523,37.924 29.603,37.924C39.735,37.924 58.635,36.349 59.475,30.547L59.554,19.549C59.554,13.38 39.945,11.753 29.576,11.753ZM29.576,35.299C11.884,35.299 2.25,31.886 2.25,30.154C2.25,28.789 8.077,26.452 18.919,25.481C23.486,25.245 28.448,25.14 33.383,25.087C48.66,25.534 56.929,28.552 56.929,30.18C56.929,31.886 47.269,35.299 29.576,35.299ZM29.655,28.657C29.078,28.657 24.011,28.71 24.011,30.731C24.011,32.752 29.078,32.805 29.655,32.805C30.233,32.805 35.325,32.752 35.325,30.731C35.325,28.71 30.233,28.657 29.655,28.657ZM28.159,7.526L28.159,11.753L30.784,11.753L30.784,7.526C34.039,7.342 37.346,6.371 37.346,4.14L37.346,3.037C37.346,0.517 33.12,-0.375 29.498,-0.375C25.875,-0.375 21.649,0.517 21.649,3.037L21.649,4.14C21.622,6.371 24.904,7.316 28.159,7.526Z" fill="#FFCC80"/>
</svg>
