<svg width="28" height="32" viewBox="0 0 28 32" fill="none" xmlns="http://www.w3.org/2000/svg" xmlns:xlink="http://www.w3.org/1999/xlink">
<path d="M19.976,31.125C19.67,31.431 19.339,31.653 18.983,31.792C18.626,31.931 18.251,32 17.858,32C17.464,32 17.087,31.931 16.726,31.792C16.365,31.653 16.031,31.431 15.726,31.125L13.601,29C13.295,28.722 13.073,28.417 12.934,28.083C12.795,27.75 12.726,27.389 12.726,27C12.726,26.611 12.802,26.215 12.955,25.812C13.108,25.41 13.323,25.056 13.601,24.75L0.018,5.25L6.268,-1L27.068,19.8C27.368,20.1 27.587,20.428 27.726,20.785C27.865,21.141 27.934,21.516 27.934,21.91C27.934,22.303 27.865,22.681 27.726,23.042C27.587,23.403 27.365,23.736 27.059,24.042L19.976,31.125ZM15.768,22.583L20.684,17.667L6.268,3.25L3.934,5.583L15.768,22.583ZM17.851,29L24.934,21.917L22.809,19.792L15.726,26.875L17.851,29Z" fill="#F0B761"/>
</svg>
