<svg width="28" height="28" viewBox="0 0 28 28" fill="none" xmlns="http://www.w3.org/2000/svg" xmlns:xlink="http://www.w3.org/1999/xlink">
<path d="M25.792,27.958C22.431,27.708 19.243,26.882 16.229,25.479C13.215,24.076 10.514,22.181 8.125,19.792C5.736,17.403 3.854,14.708 2.479,11.708C1.104,8.708 0.278,5.528 0,2.167C-0.056,1.583 0.115,1.076 0.512,0.646C0.909,0.215 1.405,0 2,0L7.667,0C8.139,0 8.549,0.146 8.896,0.438C9.243,0.729 9.472,1.097 9.583,1.542L10.583,5.958C10.639,6.319 10.618,6.667 10.521,7C10.424,7.333 10.264,7.611 10.042,7.833L6,11.917C6.556,12.972 7.194,13.986 7.917,14.958C8.639,15.931 9.444,16.847 10.332,17.707C11.166,18.541 12.056,19.313 13,20.021C13.944,20.729 14.944,21.361 16,21.917L20.125,17.917C20.347,17.694 20.625,17.535 20.958,17.438C21.292,17.34 21.639,17.319 22,17.375L26.458,18.333C26.931,18.472 27.306,18.715 27.583,19.063C27.861,19.41 28,19.819 28,20.292L28,25.958C28,26.554 27.778,27.05 27.333,27.446C26.889,27.843 26.375,28.014 25.792,27.958ZM4.625,9L7.542,6.083L6.827,3L3.083,3C3.222,4.056 3.417,5.076 3.667,6.063C3.917,7.049 4.236,8.028 4.625,9ZM18.958,23.333C19.933,23.729 20.927,24.043 21.94,24.276C22.952,24.509 23.972,24.694 25,24.833L25,21.083L21.875,20.417L18.958,23.333Z" fill="#FFCC80"/>
</svg>
