<svg width="28" height="24" viewBox="0 0 28 24" fill="none" xmlns="http://www.w3.org/2000/svg" xmlns:xlink="http://www.w3.org/1999/xlink">
<path d="M25.01,16.5C24.587,16.5 24.229,16.357 23.938,16.071C23.646,15.785 23.5,15.431 23.5,15.009C23.5,14.586 23.643,14.229 23.93,13.938C24.216,13.646 24.571,13.5 24.995,13.5L26.49,13.5C26.913,13.5 27.271,13.643 27.562,13.929C27.854,14.215 28,14.569 28,14.991C28,15.414 27.857,15.771 27.57,16.063C27.284,16.354 26.929,16.5 26.505,16.5L25.01,16.5ZM25.01,22.5C24.587,22.5 24.229,22.357 23.938,22.071C23.646,21.785 23.5,21.431 23.5,21.009C23.5,20.586 23.643,20.229 23.93,19.938C24.216,19.646 24.571,19.5 24.995,19.5L26.49,19.5C26.913,19.5 27.271,19.643 27.562,19.929C27.854,20.215 28,20.569 28,20.991C28,21.414 27.857,21.771 27.57,22.062C27.284,22.354 26.929,22.5 26.505,22.5L25.01,22.5ZM16.99,24C16.163,24 15.457,23.706 14.871,23.119C14.285,22.531 13.992,21.825 13.992,21L12.496,21C12.072,21 11.717,20.856 11.43,20.569C11.143,20.281 11,19.925 11,19.5L11,16.5C11,16.075 11.144,15.719 11.431,15.431C11.719,15.144 12.075,15 12.5,15L14,15C14,14.175 14.294,13.469 14.881,12.881C15.469,12.294 16.175,12 17,12L20,12C20.425,12 20.781,12.144 21.069,12.431C21.356,12.718 21.5,13.074 21.5,13.498L21.5,22.488C21.5,22.913 21.356,23.271 21.068,23.562C20.78,23.854 20.423,24 19.997,24L16.99,24ZM5.986,19.5C4.329,19.5 2.917,18.917 1.75,17.75C0.583,16.583 0,15.167 0,13.5C0,11.833 0.583,10.417 1.75,9.25C2.917,8.083 4.333,7.5 6,7.5L8.75,7.5C9.375,7.5 9.906,7.281 10.344,6.844C10.781,6.406 11,5.875 11,5.25C11,4.625 10.781,4.094 10.344,3.656C9.906,3.219 9.375,3 8.75,3L3.5,3C3.075,3 2.719,2.856 2.431,2.569C2.144,2.281 2,1.925 2,1.5C2,1.075 2.144,0.719 2.431,0.431C2.719,0.144 3.075,0 3.5,0L8.75,0C10.222,0 11.465,0.507 12.479,1.521C13.493,2.535 14,3.778 14,5.25C14,6.722 13.493,7.965 12.479,8.979C11.465,9.993 10.222,10.5 8.75,10.5L6,10.5C5.175,10.5 4.469,10.795 3.881,11.384C3.294,11.973 3,12.681 3,13.509C3,14.336 3.294,15.042 3.881,15.625C4.469,16.209 5.175,16.501 6,16.501L7.5,16.501C7.925,16.501 8.281,16.644 8.569,16.93C8.856,17.215 9,17.569 9,17.992C9,18.414 8.856,18.771 8.567,19.063C8.278,19.354 7.92,19.5 7.493,19.5L5.986,19.5Z" fill="#F0B761"/>
</svg>
