<svg width="60" height="60" viewBox="0 0 60 60" fill="none" xmlns="http://www.w3.org/2000/svg" xmlns:xlink="http://www.w3.org/1999/xlink">
<path d="M42.965,27.878C40.086,28.429 37.023,27.464 34.798,24.96L30.908,20.585C29.377,18.862 28.519,16.542 28.519,14.107L28.519,12.717L20.382,7.721C19.841,7.388 19.504,6.733 19.535,6.033C19.566,5.332 19.933,4.712 20.505,4.425L25.324,2.013C27.202,1.082 29.234,0.6 31.296,0.6L33.144,0.6C36.891,0.6 40.494,2.208 43.22,5.091L47.774,9.915C50.244,12.533 51.163,16.312 50.489,19.792L52.102,21.618L52.919,20.699C53.879,19.62 55.431,19.62 56.38,20.699L58.83,23.456C59.79,24.536 59.79,26.281 58.83,27.349L49.846,37.457C48.886,38.536 47.335,38.536 46.385,37.457L43.935,34.7C42.975,33.62 42.975,31.875 43.935,30.807L44.752,29.888L42.965,27.878ZM3.547,43.911L27.386,21.572C27.743,22.135 28.152,22.675 28.591,23.18L32.48,27.556C33.093,28.245 33.746,28.843 34.44,29.359L14.522,56.258C13.042,58.257 10.847,59.405 8.54,59.405C4.231,59.405 0.75,55.477 0.75,50.642C0.75,48.046 1.781,45.577 3.547,43.911Z" fill="#FFCC80"/>
</svg>
