<svg width="42" height="42" viewBox="0 0 42 42" fill="none" xmlns="http://www.w3.org/2000/svg" xmlns:xlink="http://www.w3.org/1999/xlink">
<path d="M-1,20C-1,30.383 6.583,39.017 16.5,40.767L16.617,40.673C16.578,40.665 16.539,40.658 16.5,40.65L16.5,25.833L11.25,25.833L11.25,20L16.5,20L16.5,15.333C16.5,10.083 19.883,7.167 24.667,7.167C26.183,7.167 27.817,7.4 29.333,7.633L29.333,13L26.65,13C24.083,13 23.5,14.283 23.5,15.917L23.5,20L29.1,20L28.167,25.833L23.5,25.833L23.5,40.65C23.461,40.658 23.422,40.665 23.383,40.673L23.5,40.767C33.417,39.017 41,30.383 41,20C41,8.45 31.55,-1 20,-1C8.45,-1 -1,8.45 -1,20Z" clip-rule="evenodd" fill-rule="evenodd" fill="#FFFFFF"/>
</svg>
