<svg width="400" height="400" viewBox="0 0 400 400" fill="none" xmlns="http://www.w3.org/2000/svg" xmlns:xlink="http://www.w3.org/1999/xlink">
<path d="M81.056,360.128C21.288,325.6 21.288,269.68 81.056,235.2C140.824,200.72 237.72,200.696 297.48,235.2C357.24,269.704 357.248,325.648 297.48,360.152C237.712,394.656 140.824,394.632 81.056,360.128Z" fill="#F5F5F5"/>
<path d="M219.944,322.576L223.392,324.568L110.104,342.192L110.104,339.664L219.944,322.576Z" fill="#E0E0E0"/>
<path d="M71.208,352.8C63.496,357.304 63.496,364.6 71.208,369.104C78.92,373.608 91.424,373.608 99.144,369.104C106.864,364.6 106.856,357.304 99.144,352.8C91.432,348.296 78.92,348.264 71.208,352.8Z" fill="#E0E0E0"/>
<path d="M189.12,287.2C170.464,298.096 170.464,315.752 189.12,326.64C207.776,337.528 238.016,337.528 256.664,326.64C275.312,315.752 275.312,298.096 256.664,287.2C238.016,276.304 207.8,276.344 189.12,287.2Z" fill="#E0E0E0"/>
<path d="M268.8,289.136C274.112,288.672 280,288.336 284.2,291.616C286.176,293.144 287.544,295.296 289.048,297.288C290.664,299.424 292.463,301.415 294.424,303.24C295.422,304.24 296.576,305.072 297.84,305.704C299.256,306.289 300.781,306.562 302.312,306.504C308.712,306.504 314.656,302.968 319.584,298.84C320.904,297.736 322.248,296.44 322.592,294.776C323.168,292 320.824,289.48 318.432,287.96C311.696,283.672 303.312,281.208 295.648,279.16C287.479,276.866 279.029,275.727 270.544,275.776C265.262,275.877 260.006,276.556 254.872,277.8C251.768,278.552 247.272,279.48 244.872,281.744C244.323,282.21 243.919,282.825 243.711,283.515C243.502,284.204 243.497,284.939 243.696,285.632C244.296,287.232 246.136,287.864 247.784,288.248C254.616,289.864 261.88,289.736 268.8,289.136Z" fill="#E0E0E0"/>
<path d="M93.16,135.2L93.16,138.256C93.16,139.224 93.84,139.616 94.672,139.128L97.624,137.424L97.624,130.872L94.672,132.576C94.232,132.864 93.866,133.252 93.604,133.708C93.341,134.164 93.189,134.675 93.16,135.2Z" fill="#E0E0E0"/>
<path d="M97.624,235.48L85.304,242.6C84.863,242.886 84.497,243.272 84.234,243.726C83.971,244.181 83.82,244.692 83.792,245.216L83.792,248.28C83.792,249.24 84.464,249.632 85.304,249.152L97.624,242.04L97.624,235.48Z" fill="#E0E0E0"/>
<path d="M83.8,132.568L83.8,135.632C83.8,136.592 84.472,136.984 85.312,136.504L97.632,129.384L97.632,122.832L85.312,129.952C84.871,130.238 84.505,130.624 84.242,131.078C83.979,131.533 83.828,132.044 83.8,132.568Z" fill="#E0E0E0"/>
<path d="M90.456,167.2L76.456,175.288C76.017,175.575 75.651,175.962 75.389,176.416C75.126,176.87 74.974,177.38 74.944,177.904L74.944,180.968C74.944,181.928 75.624,182.32 76.456,181.84L90.456,173.76C90.897,173.472 91.263,173.085 91.526,172.629C91.789,172.173 91.94,171.661 91.968,171.136L91.968,168.08C91.968,167.072 91.296,166.68 90.456,167.2Z" fill="#E0E0E0"/>
<path d="M97.624,203.296L85.304,210.416C84.863,210.702 84.497,211.088 84.234,211.542C83.971,211.997 83.82,212.507 83.792,213.032L83.792,216.096C83.792,217.056 84.464,217.448 85.304,216.968L97.624,209.848L97.624,203.296Z" fill="#E0E0E0"/>
<path d="M83.8,100.384L83.8,103.44C83.8,104.408 84.472,104.8 85.312,104.32L97.632,97.2L97.632,90.648L85.312,97.768C84.871,98.053 84.503,98.439 84.24,98.893C83.977,99.348 83.827,99.859 83.8,100.384Z" fill="#E0E0E0"/>
<path d="M97.624,283.76L85.304,290.88C84.863,291.166 84.497,291.552 84.234,292.007C83.971,292.461 83.82,292.972 83.792,293.496L83.792,296.56C83.792,297.52 84.464,297.912 85.304,297.432L97.624,290.312L97.624,283.76Z" fill="#E0E0E0"/>
<path d="M69.768,197.136L69.768,200.192C69.768,201.16 70.44,201.552 71.28,201.064L85.272,192.984C85.714,192.699 86.082,192.313 86.346,191.858C86.61,191.404 86.763,190.893 86.792,190.368L86.792,187.304C86.792,186.344 86.112,185.952 85.272,186.432L71.28,194.512C70.839,194.8 70.473,195.187 70.21,195.643C69.947,196.099 69.796,196.61 69.768,197.136Z" fill="#E0E0E0"/>
<path d="M83.8,164.752L83.8,167.816C83.8,168.776 84.472,169.168 85.312,168.688L97.632,161.576L97.632,155.016L85.312,162.136C84.871,162.422 84.505,162.808 84.242,163.262C83.979,163.717 83.828,164.228 83.8,164.752Z" fill="#E0E0E0"/>
<path d="M82.6,216.8L82.6,213.744C82.6,212.776 81.92,212.384 81.088,212.872L67.088,220.952C66.649,221.239 66.283,221.626 66.021,222.08C65.758,222.534 65.606,223.044 65.576,223.568L65.576,226.632C65.576,227.592 66.256,227.984 67.088,227.504L81.088,219.424C81.528,219.135 81.894,218.748 82.156,218.292C82.419,217.836 82.571,217.325 82.6,216.8Z" fill="#E0E0E0"/>
<path d="M76.456,294.448L90.456,286.368C90.897,286.08 91.263,285.693 91.526,285.237C91.789,284.781 91.94,284.269 91.968,283.744L91.968,280.688C91.968,279.72 91.296,279.328 90.456,279.816L76.456,287.896C76.017,288.183 75.651,288.57 75.389,289.024C75.126,289.478 74.974,289.988 74.944,290.512L74.944,293.6C74.944,294.536 75.624,294.928 76.456,294.448Z" fill="#E0E0E0"/>
<path d="M82.672,91.312L68.672,99.392C68.231,99.678 67.865,100.064 67.602,100.519C67.339,100.973 67.188,101.484 67.16,102.008L67.16,105.072C67.16,106.032 67.832,106.424 68.672,105.944L82.672,97.864C83.112,97.576 83.478,97.188 83.74,96.732C84.003,96.276 84.155,95.765 84.184,95.24L84.184,92.184C84.184,91.2 83.504,90.824 82.672,91.312Z" fill="#E0E0E0"/>
<path d="M90.456,102.792L76.456,110.872C76.016,111.16 75.65,111.548 75.388,112.004C75.125,112.46 74.973,112.971 74.944,113.496L74.944,116.552C74.944,117.52 75.624,117.912 76.456,117.424L90.456,109.344C90.897,109.058 91.263,108.672 91.526,108.217C91.789,107.763 91.94,107.252 91.968,106.728L91.968,103.664C91.968,102.704 91.296,102.312 90.456,102.792Z" fill="#E0E0E0"/>
<path d="M90.456,134.976L76.456,143.064C76.016,143.35 75.65,143.736 75.387,144.191C75.124,144.646 74.972,145.156 74.944,145.68L74.944,148.744C74.944,149.704 75.624,150.096 76.456,149.616L90.456,141.528C90.897,141.242 91.263,140.856 91.526,140.401C91.789,139.947 91.94,139.436 91.968,138.912L91.968,135.848C91.968,134.888 91.296,134.496 90.456,134.976Z" fill="#E0E0E0"/>
<path d="M76.456,230.08L90.456,221.992C90.898,221.707 91.265,221.321 91.528,220.866C91.791,220.412 91.942,219.901 91.968,219.376L91.968,216.312C91.968,215.352 91.296,214.96 90.456,215.44L76.456,223.528C76.016,223.814 75.65,224.2 75.387,224.655C75.124,225.11 74.972,225.62 74.944,226.144L74.944,229.208C74.944,230.168 75.624,230.56 76.456,230.08Z" fill="#E0E0E0"/>
<path d="M97.624,251.576L85.304,258.696C84.863,258.981 84.495,259.367 84.232,259.821C83.969,260.276 83.818,260.787 83.792,261.312L83.792,264.368C83.792,265.336 84.464,265.728 85.304,265.248L97.624,258.128L97.624,251.576Z" fill="#E0E0E0"/>
<path d="M228.4,67.104L228.4,70.16C228.374,70.688 228.224,71.203 227.961,71.661C227.698,72.12 227.33,72.51 226.888,72.8L223.936,74.504L223.936,67.936L226.888,66.232C227.72,65.752 228.4,66.136 228.4,67.104Z" fill="#E0E0E0"/>
<path d="M223.936,172.56L236.264,165.448C237.064,164.96 237.776,165.352 237.776,166.32L237.776,169.376C237.747,169.901 237.595,170.412 237.332,170.868C237.07,171.324 236.704,171.711 236.264,172L223.936,179.112L223.936,172.56Z" fill="#E0E0E0"/>
<path d="M237.776,53.672L237.776,56.728C237.747,57.253 237.595,57.764 237.332,58.22C237.07,58.676 236.704,59.063 236.264,59.352L223.936,66.464L223.936,59.912L236.264,52.8C237.096,52.312 237.776,52.704 237.776,53.672Z" fill="#E0E0E0"/>
<path d="M231.104,96L245.104,87.912C245.904,87.432 246.616,87.824 246.616,88.784L246.616,91.848C246.588,92.372 246.436,92.882 246.173,93.337C245.91,93.791 245.544,94.178 245.104,94.464L231.104,102.552C230.264,103.032 229.592,102.64 229.592,101.68L229.592,98.616C229.62,98.092 229.771,97.581 230.034,97.126C230.297,96.672 230.664,96.286 231.104,96Z" fill="#E0E0E0"/>
<path d="M223.936,140.376L236.264,133.264C237.064,132.776 237.776,133.168 237.776,134.136L237.776,137.192C237.747,137.717 237.595,138.228 237.332,138.684C237.07,139.14 236.704,139.527 236.264,139.816L223.936,146.928L223.936,140.376Z" fill="#E0E0E0"/>
<path d="M237.776,21.48L237.776,24.544C237.754,25.075 237.605,25.593 237.342,26.055C237.079,26.517 236.709,26.91 236.264,27.2L223.936,34.32L223.936,27.728L236.264,20.608C237.096,20.128 237.776,20.52 237.776,21.48Z" fill="#E0E0E0"/>
<path d="M223.936,220.84L236.264,213.728C237.064,213.24 237.776,213.632 237.776,214.6L237.776,217.656C237.747,218.181 237.595,218.692 237.332,219.148C237.07,219.604 236.704,219.992 236.264,220.28L223.936,227.392L223.936,220.84Z" fill="#E0E0E0"/>
<path d="M251.8,102.04L251.8,105.104C251.77,105.628 251.618,106.138 251.355,106.592C251.093,107.046 250.727,107.433 250.288,107.72L236.288,115.8C235.448,116.288 234.776,115.896 234.776,114.928L234.776,111.872C234.804,111.346 234.955,110.835 235.218,110.379C235.481,109.923 235.847,109.535 236.288,109.248L250.288,101.168C251.12,100.688 251.8,101.08 251.8,102.04Z" fill="#E0E0E0"/>
<path d="M237.776,85.856L237.776,88.912C237.748,89.437 237.596,89.949 237.333,90.405C237.071,90.86 236.704,91.248 236.264,91.536L223.936,98.648L223.936,92.096L236.264,84.984C237.096,84.496 237.776,84.888 237.776,85.856Z" fill="#E0E0E0"/>
<path d="M239,136.488L239,133.432C239.028,132.907 239.18,132.395 239.443,131.939C239.705,131.484 240.072,131.096 240.512,130.808L254.512,122.728C255.352,122.248 256.024,122.632 256.024,123.6L256.024,126.664C255.996,127.188 255.845,127.699 255.582,128.153C255.319,128.608 254.953,128.994 254.512,129.28L240.512,137.36C239.64,137.848 239,137.456 239,136.488Z" fill="#E0E0E0"/>
<path d="M245.104,207.088L231.104,215.2C230.264,215.68 229.592,215.288 229.592,214.328L229.592,211.2C229.62,210.675 229.771,210.165 230.034,209.71C230.297,209.256 230.664,208.87 231.104,208.584L245.104,200.504C245.904,200.016 246.616,200.408 246.616,201.376L246.616,204.432C246.592,204.963 246.442,205.48 246.18,205.942C245.917,206.403 245.548,206.796 245.104,207.088Z" fill="#E0E0E0"/>
<path d="M231.104,31.592L245.104,23.512C245.904,23.032 246.616,23.424 246.616,24.384L246.616,27.448C246.586,27.972 246.434,28.482 246.172,28.936C245.909,29.39 245.543,29.777 245.104,30.064L231.104,38.144C230.264,38.632 229.592,38.24 229.592,37.272L229.592,34.216C229.62,33.691 229.771,33.179 230.034,32.723C230.297,32.267 230.663,31.88 231.104,31.592Z" fill="#E0E0E0"/>
<path d="M231.104,63.776L245.104,55.696C245.904,55.216 246.616,55.608 246.616,56.568L246.616,59.632C246.586,60.156 246.434,60.666 246.172,61.12C245.909,61.574 245.543,61.961 245.104,62.248L231.104,70.336C230.264,70.816 229.592,70.424 229.592,69.456L229.592,66.4C229.62,65.874 229.771,65.363 230.034,64.907C230.297,64.451 230.663,64.064 231.104,63.776Z" fill="#E0E0E0"/>
<path d="M245.104,142.712L231.104,150.8C230.264,151.28 229.592,150.888 229.592,149.92L229.592,146.864C229.62,146.338 229.771,145.827 230.034,145.371C230.297,144.915 230.663,144.528 231.104,144.24L245.104,136.16C245.904,135.68 246.616,136.072 246.616,137.032L246.616,140.096C246.586,140.62 246.434,141.13 246.172,141.584C245.909,142.038 245.543,142.425 245.104,142.712Z" fill="#E0E0E0"/>
<path d="M223.936,188.656L236.264,181.536C237.064,181.056 237.776,181.448 237.776,182.408L237.776,185.472C237.746,185.996 237.594,186.506 237.331,186.96C237.069,187.414 236.703,187.801 236.264,188.088L223.936,195.2L223.936,188.656Z" fill="#E0E0E0"/>
<path d="M110.104,222.048L211.096,280.384L211.096,36.288L110.104,94.632L110.104,222.048Z" fill="#EDB393"/>
<g opacity="0.4">
<path d="M110.104,222.048L211.096,280.384L211.096,36.288L110.104,94.632L110.104,222.048Z" fill="#000000"/>
</g>
<path d="M211.096,280.384L110.104,222.048L110.104,338.672L211.096,280.384Z" fill="#E0E0E0"/>
<path d="M211.096,280.384L215.816,283.096L215.816,33.56L211.096,36.288L211.096,280.384Z" fill="#EDB393"/>
<g opacity="0.4">
<path d="M211.096,280.384L215.816,283.096L215.816,33.56L211.096,36.288L211.096,280.384Z" fill="#FFFFFF"/>
</g>
<g opacity="0.1">
<path d="M211.096,280.384L215.816,283.096L215.816,33.56L211.096,36.288L211.096,280.384Z" fill="#000000"/>
</g>
<path d="M215.816,283.096L223.936,278.408L223.936,16.44L102.272,86.68L102.28,348.648L110.104,344.128L110.104,94.632L215.816,33.56L215.816,283.096Z" fill="#EDB393"/>
<g opacity="0.7">
<path d="M215.816,283.096L223.936,278.408L223.936,16.44L102.272,86.68L102.28,348.648L110.104,344.128L110.104,94.632L215.816,33.56L215.816,283.096Z" fill="#FFFFFF"/>
</g>
<path d="M223.936,16.44L102.272,86.68L97.624,83.976L219.288,13.744L223.936,16.44Z" fill="#EDB393"/>
<g opacity="0.85">
<path d="M223.936,16.44L102.272,86.68L97.624,83.976L219.288,13.744L223.936,16.44Z" fill="#FFFFFF"/>
</g>
<path d="M102.272,348.648L102.272,86.68L97.624,83.976L97.552,345.92L102.272,348.648Z" fill="#EDB393"/>
<g opacity="0.6">
<path d="M97.624,83.976L97.552,345.92L102.272,348.648L102.272,86.68Z" fill="#FFFFFF"/>
</g>
<path d="M268.88,71.2C269.776,71.122 270.679,71.173 271.56,71.352C272.409,71.515 273.222,71.829 273.96,72.28C274.659,72.707 275.256,73.28 275.712,73.96C276.123,74.623 276.391,75.365 276.498,76.138C276.606,76.911 276.551,77.698 276.336,78.448C276.15,79.018 275.881,79.557 275.536,80.048C275.203,80.53 274.828,80.983 274.416,81.4L273.248,82.568C272.895,82.92 272.573,83.303 272.288,83.712C272.033,84.075 271.883,84.501 271.856,84.944C271.834,85.149 271.76,85.344 271.64,85.512C271.584,85.592 271.51,85.659 271.424,85.706C271.338,85.753 271.242,85.78 271.144,85.784L268.944,85.968C268.839,85.977 268.734,85.966 268.634,85.934C268.534,85.903 268.441,85.852 268.36,85.784C268.278,85.723 268.211,85.643 268.165,85.551C268.119,85.46 268.096,85.359 268.096,85.256C268.061,84.567 268.167,83.878 268.408,83.232C268.633,82.662 268.932,82.124 269.296,81.632C269.647,81.157 270.038,80.713 270.464,80.304C270.888,79.896 271.264,79.504 271.632,79.144C271.962,78.811 272.254,78.444 272.504,78.048C272.722,77.708 272.82,77.306 272.784,76.904C272.759,76.551 272.648,76.209 272.461,75.908C272.275,75.607 272.018,75.355 271.712,75.176C270.95,74.735 270.065,74.558 269.192,74.672C268.41,74.725 267.663,75.019 267.055,75.513C266.446,76.007 266.005,76.677 265.792,77.432C265.731,77.613 265.642,77.783 265.528,77.936C265.382,78.065 265.195,78.136 265,78.136L262.664,78.328C262.582,78.338 262.498,78.332 262.418,78.308C262.338,78.285 262.264,78.245 262.2,78.192C262.133,78.139 262.078,78.073 262.039,77.997C262.001,77.921 261.979,77.837 261.976,77.752C261.948,77.019 262.102,76.291 262.424,75.632C262.756,74.86 263.222,74.153 263.8,73.544C264.451,72.895 265.202,72.354 266.024,71.944C266.917,71.508 267.888,71.255 268.88,71.2ZM271.408,87.512C271.615,87.5 271.819,87.569 271.976,87.704C272.056,87.768 272.122,87.848 272.169,87.939C272.216,88.03 272.243,88.13 272.248,88.232L272.464,90.776C272.478,90.982 272.412,91.186 272.28,91.344C272.215,91.424 272.133,91.49 272.041,91.537C271.948,91.583 271.847,91.61 271.744,91.616L269.264,91.824C269.162,91.834 269.059,91.823 268.961,91.792C268.863,91.76 268.773,91.708 268.696,91.64C268.616,91.576 268.55,91.496 268.501,91.405C268.453,91.314 268.424,91.215 268.416,91.112L268.208,88.568C268.196,88.466 268.206,88.362 268.238,88.264C268.269,88.166 268.322,88.076 268.392,88C268.455,87.919 268.535,87.852 268.626,87.803C268.717,87.755 268.817,87.727 268.92,87.72L271.408,87.512Z" fill="#EDB393"/>
<path d="M286.8,98.792C287.481,98.981 288.131,99.27 288.728,99.648C289.302,99.997 289.809,100.447 290.224,100.976C290.611,101.488 290.884,102.078 291.024,102.704C291.176,103.374 291.149,104.072 290.944,104.728C290.811,105.254 290.572,105.747 290.24,106.176C289.947,106.547 289.603,106.873 289.216,107.144C288.836,107.404 288.435,107.632 288.016,107.824L286.832,108.368C286.476,108.528 286.136,108.721 285.816,108.944C285.524,109.141 285.296,109.419 285.16,109.744C285.087,109.89 284.976,110.014 284.84,110.104C284.776,110.148 284.704,110.176 284.627,110.187C284.551,110.198 284.473,110.192 284.4,110.168L282.728,109.696C282.648,109.676 282.573,109.64 282.508,109.589C282.443,109.538 282.39,109.473 282.352,109.4C282.309,109.333 282.282,109.257 282.274,109.178C282.266,109.098 282.276,109.018 282.304,108.944C282.473,108.428 282.745,107.951 283.104,107.544C283.428,107.182 283.796,106.862 284.2,106.592C284.591,106.338 285.003,106.118 285.432,105.936C285.856,105.752 286.232,105.576 286.608,105.4C286.942,105.249 287.259,105.061 287.552,104.84C287.811,104.64 287.995,104.358 288.072,104.04C288.158,103.768 288.174,103.48 288.12,103.2C288.065,102.921 287.942,102.659 287.76,102.44C287.322,101.907 286.72,101.533 286.048,101.376C285.456,101.198 284.824,101.209 284.238,101.405C283.652,101.601 283.141,101.974 282.776,102.472C282.684,102.588 282.573,102.688 282.448,102.768C282.306,102.821 282.15,102.821 282.008,102.768L280.232,102.264C280.169,102.249 280.11,102.221 280.057,102.183C280.005,102.144 279.961,102.096 279.928,102.04C279.893,101.982 279.87,101.917 279.862,101.849C279.854,101.782 279.86,101.713 279.88,101.648C280.062,101.101 280.375,100.606 280.792,100.208C281.258,99.751 281.799,99.377 282.392,99.104C283.051,98.806 283.753,98.615 284.472,98.536C285.257,98.469 286.048,98.556 286.8,98.792ZM284.168,111.504C284.245,111.525 284.318,111.561 284.381,111.611C284.444,111.66 284.497,111.722 284.536,111.792C284.577,111.863 284.602,111.941 284.612,112.022C284.622,112.103 284.615,112.186 284.592,112.264L284.048,114.192C284.027,114.269 283.991,114.342 283.941,114.405C283.892,114.468 283.83,114.521 283.76,114.56C283.689,114.6 283.611,114.626 283.53,114.635C283.449,114.645 283.366,114.638 283.288,114.616L281.4,114.088C281.323,114.066 281.251,114.029 281.189,113.978C281.127,113.927 281.076,113.864 281.04,113.792C280.998,113.723 280.971,113.646 280.96,113.567C280.949,113.487 280.955,113.406 280.976,113.328L281.52,111.392C281.543,111.314 281.581,111.242 281.631,111.178C281.682,111.115 281.745,111.063 281.816,111.024C281.885,110.984 281.962,110.958 282.042,110.948C282.122,110.939 282.203,110.945 282.28,110.968L284.168,111.504Z" fill="#EDB393"/>
<g opacity="0.2">
<path d="M286.8,98.792C287.481,98.981 288.131,99.27 288.728,99.648C289.302,99.997 289.809,100.447 290.224,100.976C290.611,101.488 290.884,102.078 291.024,102.704C291.176,103.374 291.149,104.072 290.944,104.728C290.811,105.254 290.572,105.747 290.24,106.176C289.947,106.547 289.603,106.873 289.216,107.144C288.836,107.404 288.435,107.632 288.016,107.824L286.832,108.368C286.476,108.528 286.136,108.721 285.816,108.944C285.524,109.141 285.296,109.419 285.16,109.744C285.087,109.89 284.976,110.014 284.84,110.104C284.776,110.148 284.704,110.176 284.627,110.187C284.551,110.198 284.473,110.192 284.4,110.168L282.728,109.696C282.648,109.676 282.573,109.64 282.508,109.589C282.443,109.538 282.39,109.473 282.352,109.4C282.309,109.333 282.282,109.257 282.274,109.178C282.266,109.098 282.276,109.018 282.304,108.944C282.473,108.428 282.745,107.951 283.104,107.544C283.428,107.182 283.796,106.862 284.2,106.592C284.591,106.338 285.003,106.118 285.432,105.936C285.856,105.752 286.232,105.576 286.608,105.4C286.942,105.249 287.259,105.061 287.552,104.84C287.811,104.64 287.995,104.358 288.072,104.04C288.158,103.768 288.174,103.48 288.12,103.2C288.065,102.921 287.942,102.659 287.76,102.44C287.322,101.907 286.72,101.533 286.048,101.376C285.456,101.198 284.824,101.209 284.238,101.405C283.652,101.601 283.141,101.974 282.776,102.472C282.684,102.588 282.573,102.688 282.448,102.768C282.306,102.821 282.15,102.821 282.008,102.768L280.232,102.264C280.169,102.249 280.11,102.221 280.057,102.183C280.005,102.144 279.961,102.096 279.928,102.04C279.893,101.982 279.87,101.917 279.862,101.849C279.854,101.782 279.86,101.713 279.88,101.648C280.062,101.101 280.375,100.606 280.792,100.208C281.258,99.751 281.799,99.377 282.392,99.104C283.051,98.806 283.753,98.615 284.472,98.536C285.257,98.469 286.048,98.556 286.8,98.792ZM284.168,111.504C284.245,111.525 284.318,111.561 284.381,111.611C284.444,111.66 284.497,111.722 284.536,111.792C284.577,111.863 284.602,111.941 284.612,112.022C284.622,112.103 284.615,112.186 284.592,112.264L284.048,114.192C284.027,114.269 283.991,114.342 283.941,114.405C283.892,114.468 283.83,114.521 283.76,114.56C283.689,114.6 283.611,114.626 283.53,114.635C283.449,114.645 283.366,114.638 283.288,114.616L281.4,114.088C281.323,114.066 281.251,114.029 281.189,113.978C281.127,113.927 281.076,113.864 281.04,113.792C280.998,113.723 280.971,113.646 280.96,113.567C280.949,113.487 280.955,113.406 280.976,113.328L281.52,111.392C281.543,111.314 281.581,111.242 281.631,111.178C281.682,111.115 281.745,111.063 281.816,111.024C281.885,110.984 281.962,110.958 282.042,110.948C282.122,110.939 282.203,110.945 282.28,110.968L284.168,111.504Z" fill="#000000"/>
</g>
<path d="M295.464,89.68C295.531,89.722 295.589,89.779 295.633,89.845C295.677,89.911 295.707,89.986 295.72,90.064C295.736,90.141 295.737,90.22 295.722,90.297C295.706,90.374 295.676,90.447 295.632,90.512L294.536,92.112C294.493,92.179 294.437,92.237 294.371,92.281C294.305,92.325 294.23,92.355 294.152,92.368C294.075,92.384 293.996,92.384 293.919,92.369C293.842,92.354 293.769,92.324 293.704,92.28L292.104,91.208C292.038,91.165 291.982,91.109 291.939,91.042C291.896,90.976 291.868,90.902 291.856,90.824C291.84,90.747 291.84,90.668 291.855,90.591C291.87,90.514 291.9,90.441 291.944,90.376L293.04,88.776C293.13,88.655 293.261,88.571 293.409,88.542C293.557,88.512 293.711,88.539 293.84,88.616L295.464,89.68ZM301.784,78.728C302.353,79.113 302.864,79.576 303.304,80.104C303.728,80.604 304.058,81.175 304.28,81.792C304.495,82.383 304.577,83.014 304.52,83.64C304.456,84.308 304.219,84.948 303.832,85.496C303.545,85.939 303.176,86.322 302.744,86.624C302.357,86.874 301.937,87.068 301.496,87.2C301.065,87.327 300.623,87.415 300.176,87.464L298.92,87.6C298.54,87.642 298.165,87.719 297.8,87.832C297.475,87.924 297.182,88.104 296.952,88.352C296.845,88.47 296.706,88.553 296.552,88.592C296.479,88.613 296.402,88.616 296.327,88.602C296.252,88.589 296.181,88.558 296.12,88.512L294.72,87.568C294.654,87.524 294.597,87.468 294.553,87.402C294.509,87.336 294.479,87.262 294.464,87.184C294.443,87.107 294.44,87.026 294.457,86.948C294.474,86.87 294.509,86.797 294.56,86.736C294.874,86.314 295.265,85.956 295.712,85.68C296.122,85.446 296.56,85.266 297.016,85.144C297.454,85.026 297.901,84.946 298.352,84.904C298.8,84.904 299.216,84.824 299.608,84.776C299.962,84.735 300.31,84.657 300.648,84.544C300.94,84.441 301.193,84.248 301.368,83.992C301.521,83.769 301.618,83.512 301.65,83.243C301.682,82.974 301.649,82.701 301.552,82.448C301.312,81.819 300.871,81.287 300.296,80.936C299.803,80.592 299.217,80.408 298.616,80.408C298.015,80.408 297.429,80.592 296.936,80.936C296.817,81.017 296.684,81.077 296.544,81.112C296.394,81.121 296.247,81.075 296.128,80.984L294.64,80C294.586,79.967 294.54,79.922 294.504,79.87C294.468,79.818 294.444,79.758 294.432,79.696C294.416,79.631 294.415,79.564 294.429,79.499C294.443,79.434 294.471,79.372 294.512,79.32C294.848,78.872 295.287,78.513 295.792,78.272C296.365,77.985 296.986,77.806 297.624,77.744C298.324,77.667 299.032,77.705 299.72,77.856C300.457,78.013 301.158,78.309 301.784,78.728Z" fill="#EDB393"/>
<g opacity="0.6">
<path d="M295.464,89.68C295.531,89.722 295.589,89.779 295.633,89.845C295.677,89.911 295.707,89.986 295.72,90.064C295.736,90.141 295.737,90.22 295.722,90.297C295.706,90.374 295.676,90.447 295.632,90.512L294.536,92.112C294.493,92.179 294.437,92.237 294.371,92.281C294.305,92.325 294.23,92.355 294.152,92.368C294.075,92.384 293.996,92.384 293.919,92.369C293.842,92.354 293.769,92.324 293.704,92.28L292.104,91.208C292.038,91.165 291.982,91.109 291.939,91.042C291.896,90.976 291.868,90.902 291.856,90.824C291.84,90.747 291.84,90.668 291.855,90.591C291.87,90.514 291.9,90.441 291.944,90.376L293.04,88.776C293.13,88.655 293.261,88.571 293.409,88.542C293.557,88.512 293.711,88.539 293.84,88.616L295.464,89.68ZM301.784,78.728C302.353,79.113 302.864,79.576 303.304,80.104C303.728,80.604 304.058,81.175 304.28,81.792C304.495,82.383 304.577,83.014 304.52,83.64C304.456,84.308 304.219,84.948 303.832,85.496C303.545,85.939 303.176,86.322 302.744,86.624C302.357,86.874 301.937,87.068 301.496,87.2C301.065,87.327 300.623,87.415 300.176,87.464L298.92,87.6C298.54,87.642 298.165,87.719 297.8,87.832C297.475,87.924 297.182,88.104 296.952,88.352C296.845,88.47 296.706,88.553 296.552,88.592C296.479,88.613 296.402,88.616 296.327,88.602C296.252,88.589 296.181,88.558 296.12,88.512L294.72,87.568C294.654,87.524 294.597,87.468 294.553,87.402C294.509,87.336 294.479,87.262 294.464,87.184C294.443,87.107 294.44,87.026 294.457,86.948C294.474,86.87 294.509,86.797 294.56,86.736C294.874,86.314 295.265,85.956 295.712,85.68C296.122,85.446 296.56,85.266 297.016,85.144C297.454,85.026 297.901,84.946 298.352,84.904C298.8,84.904 299.216,84.824 299.608,84.776C299.962,84.735 300.31,84.657 300.648,84.544C300.94,84.441 301.193,84.248 301.368,83.992C301.521,83.769 301.618,83.512 301.65,83.243C301.682,82.974 301.649,82.701 301.552,82.448C301.312,81.819 300.871,81.287 300.296,80.936C299.803,80.592 299.217,80.408 298.616,80.408C298.015,80.408 297.429,80.592 296.936,80.936C296.817,81.017 296.684,81.077 296.544,81.112C296.394,81.121 296.247,81.075 296.128,80.984L294.64,80C294.586,79.967 294.54,79.922 294.504,79.87C294.468,79.818 294.444,79.758 294.432,79.696C294.416,79.631 294.415,79.564 294.429,79.499C294.443,79.434 294.471,79.372 294.512,79.32C294.848,78.872 295.287,78.513 295.792,78.272C296.365,77.985 296.986,77.806 297.624,77.744C298.324,77.667 299.032,77.705 299.72,77.856C300.457,78.013 301.158,78.309 301.784,78.728Z" fill="#FFFFFF"/>
</g>
<path d="M229.48,306.4C229.304,308.304 230.544,313.264 230.544,313.264C230.544,313.264 231.6,314.864 234.608,315.6L234.816,308.4L229.48,306.4Z" fill="#263238"/>
<path d="M234.608,315.56L240.544,312.56L241.2,306.792L234.728,311.408L234.608,315.56Z" fill="#000000"/>
<path d="M239.12,298.088L239,296.88C239.912,297.168 242.304,303.912 245.544,308.216C248.504,312.144 253.432,313.816 255.2,315.464C257.56,317.648 254.2,321.448 247.808,321.064C244.608,320.872 239.688,319.624 238.112,317.744C236.536,315.864 235.52,312.144 234.256,310.752C232.992,309.36 230.256,308.008 229.496,306.352C229.064,305.44 229.224,303.328 229.496,301.552C229.736,299.896 230,298.08 230.568,298.168C230.568,298.368 230.704,299.184 230.704,299.184C230.896,299.984 231.96,300.832 235.28,300.472C236.752,300.296 239.384,299.728 239.12,298.088Z" fill="#5C7885"/>
<path d="M173.648,269.52C172.632,270.92 170.84,280.72 170.84,280.72C170.84,280.72 173.184,284.144 174.536,285.184L178.88,275.968L173.648,269.52Z" fill="#263238"/>
<path d="M174.536,285.144L182.504,283.312L185.464,277.176L177.168,279.488L174.536,285.144Z" fill="#000000"/>
<path d="M179.584,263.304C179.128,262.96 178.472,263.856 176.88,265.28C175.76,266.28 173.344,267.224 173.344,270.08C173.344,272.136 174.712,274.672 176.024,276.8C177.336,278.928 177.528,280.84 177.52,283.864C177.52,287.52 176.848,289.76 181.344,293.016C184.944,295.616 192.256,296.096 193.864,294.616C196.616,292.04 190.192,288.504 189.144,283.232C187.704,275.96 187.544,274.744 187.744,269.632L179.584,263.304Z" fill="#5C7885"/>
<path d="M249.936,173.92C246.432,175.816 235.792,176.32 220.864,173.12L222.632,216.32C222.632,216.32 209.552,225.6 205.528,230.664C201.504,235.728 182.152,260.328 182.152,260.328L179.48,263.424C177.824,265.344 178.68,267.936 180.6,269.592C182.448,271.112 184.856,272.184 186.656,270.616L188.864,268.696C188.864,268.696 232.112,235.36 233.664,233.232C235.216,231.104 238.856,225.824 242.784,214.68C247.856,200.384 248.704,190.032 249.936,173.92Z" fill="#FFA8A7"/>
<path d="M249.928,173.92C240.48,178.256 221.488,176.776 221.488,176.776L222.36,216.256C217.584,219.161 213.113,222.541 209.016,226.344C203.352,231.8 194.712,243.144 194.712,243.144C197.672,251.472 206.104,255.36 206.104,255.36C206.104,255.36 223.84,242.936 233.76,235.904C238.952,232.232 242.856,230.184 244.416,224.208C245.643,219.633 246.589,214.987 247.248,210.296C248.096,205.136 248.504,199.264 249,194.92C249.845,187.954 250.155,180.933 249.928,173.92Z" fill="#EDB393"/>
<g opacity="0.4">
<path d="M249.928,173.92C240.48,178.256 221.488,176.776 221.488,176.776L222.36,216.256C217.584,219.161 213.113,222.541 209.016,226.344C203.352,231.8 194.712,243.144 194.712,243.144C197.672,251.472 206.104,255.36 206.104,255.36C206.104,255.36 223.84,242.936 233.76,235.904C238.952,232.232 242.856,230.184 244.416,224.208C245.643,219.633 246.589,214.987 247.248,210.296C248.096,205.136 248.504,199.264 249,194.92C249.845,187.954 250.155,180.933 249.928,173.92Z" fill="#000000"/>
</g>
<g opacity="0.1">
<path d="M234.152,225.144L232.648,203.32L227.048,198.112L222.248,210.952L222.368,216.256C219.27,218.149 216.291,220.231 213.448,222.488L214.248,224.416L218.8,235.416C218.8,235.416 217.2,242.92 217.872,247.064C223.112,243.384 229.072,239.184 233.544,236.024L234.152,225.144Z" fill="#000000"/>
</g>
<path d="M239.424,299.04L239.424,298.144C238.736,290.072 239.848,245.688 239.8,233.712C239.744,220.744 237.4,189.328 237.4,189.328C237.4,189.328 245.064,179.32 250,173.92C245.336,179.256 221.816,176.552 220.4,166.28C218.472,170.328 211.6,174.504 211.032,187.808C210.232,204.76 222.232,234.736 222.232,234.736C221.776,237 219.72,246.488 220.928,255.248C222.832,269.072 229.664,293.512 230.384,296.848L230.824,299.688C232.32,301.544 238.344,301.264 239.424,299.04Z" fill="#FFA8A7"/>
<path d="M239.968,209.992L239.28,192.288C239.28,192.288 246.408,190.432 249.296,184.44C249.835,180.961 250.049,177.439 249.936,173.92C249.936,173.92 243.704,176.808 234.944,174.672C229.421,173.197 224.38,170.304 220.32,166.28C220.32,166.28 218.64,167.936 215.192,173.08C213.544,175.536 210.76,181.88 210.52,186.832C209.968,198.136 213.576,210.2 213.576,210.2C215.416,219.048 221,235.152 221,235.152C221,235.152 218.872,246.88 219.944,255.288C221.016,263.696 224.416,273.2 224.416,273.2C224.416,273.2 233.896,276.4 240.128,272.688C240.128,272.688 240.424,243.448 240.536,232.04C240.648,220.632 239.968,209.992 239.968,209.992Z" fill="#EDB393"/>
<g opacity="0.3">
<path d="M239.968,209.992L239.28,192.288C239.28,192.288 246.408,190.432 249.296,184.44C249.835,180.961 250.049,177.439 249.936,173.92C249.936,173.92 243.704,176.808 234.944,174.672C229.421,173.197 224.38,170.304 220.32,166.28C220.32,166.28 218.64,167.936 215.192,173.08C213.544,175.536 210.76,181.88 210.52,186.832C209.968,198.136 213.576,210.2 213.576,210.2C215.416,219.048 221,235.152 221,235.152C221,235.152 218.872,246.88 219.944,255.288C221.016,263.696 224.416,273.2 224.416,273.2C224.416,273.2 233.896,276.4 240.128,272.688C240.128,272.688 240.424,243.448 240.536,232.04C240.648,220.632 239.968,209.992 239.968,209.992Z" fill="#000000"/>
</g>
<path d="M272.096,135.8C273.177,134.574 273.809,133.017 273.887,131.384C273.966,129.751 273.486,128.14 272.528,126.816C269.24,121.672 261.48,123.672 261.48,123.672L259.408,120.336C260.19,120.128 261.006,120.079 261.808,120.192C263.262,120.248 264.714,120.042 266.096,119.584C267.578,119.174 268.868,118.253 269.736,116.984C270.148,116.341 270.335,115.579 270.265,114.818C270.196,114.057 269.874,113.341 269.352,112.784C270.121,112.789 270.883,112.631 271.587,112.319C272.29,112.008 272.92,111.55 273.433,110.976C273.946,110.403 274.331,109.726 274.562,108.993C274.794,108.259 274.867,107.484 274.776,106.72C274.746,106.252 274.573,105.806 274.28,105.44C273.865,105.073 273.364,104.817 272.824,104.696C271.364,104.184 270.03,103.366 268.912,102.296C266.696,100.176 265.76,97.688 262.696,95.696C260.103,93.99 257.064,93.088 253.96,93.104C250.448,93.104 247.28,94.112 244.904,97.016C240.984,97.016 235.88,99.344 232.392,109.016C228.96,118.536 230.208,129.656 236.696,139.6C240.976,146.16 258.04,157.056 270.24,152.76C282.44,148.464 277.312,136.104 272.096,135.8Z" fill="#263238"/>
<path d="M251.744,133.224C261.216,134.984 261.76,139.712 262.24,143.848C263.48,154.624 261.344,172.424 260.6,176.344C260.6,176.344 247.864,172.456 248.008,171.824C248.152,171.192 251.744,133.224 251.744,133.224Z" fill="#FFA8A7"/>
<path d="M251.896,170.096C251.896,170.096 256.184,169.096 259.424,170.096C259.424,170.096 256.76,167.328 250.672,169.128L251.896,170.096Z" fill="#F28F8F"/>
<path d="M250.808,173.152C252.179,169.707 253.249,166.149 254.008,162.52C260.336,159.264 261.72,154.408 260.408,149.856C257.688,140.488 255.04,135.928 252.608,133.224C250.72,131.888 244,130.024 244,130.024C242.8,129.832 231.928,128.464 228.608,128.192C226.812,129.581 225.448,131.451 224.672,133.584C224.032,135.568 222.912,137.256 222.912,144.04L224.176,156.168C224.176,156.168 224.512,159.8 223.24,161.912C221.968,164.024 216.784,167.888 214.392,173.112C214.392,173.112 214.68,181.064 229.304,184.384C241.2,187.088 250.024,182.784 250.024,182.784C250.546,179.6 250.808,176.379 250.808,173.152Z" fill="#F5F5F5"/>
<path d="M260.744,154.32C260.349,153.818 259.776,153.486 259.144,153.392C257.768,153.224 256.464,153.944 255.192,154.512C252.84,155.56 250.136,156.112 247.68,155.352C245.024,154.496 242.88,152.152 240.12,151.912C237.488,151.704 235.136,153.512 233.2,155.28C230.336,157.944 227.68,160.88 224.4,163.032C222.993,163.934 221.534,164.754 220.032,165.488L219.392,166.16L219.264,166.296C218.776,166.816 218.272,167.368 217.784,167.944L217.6,168.168L217.072,168.808L216.816,169.136L216.376,169.72L216.112,170.088L215.704,170.696L215.464,171.072C215.32,171.296 215.192,171.52 215.056,171.752L214.864,172.088C214.68,172.432 214.496,172.784 214.336,173.144C214.387,173.692 214.514,174.23 214.712,174.744C215.027,175.574 215.449,176.359 215.968,177.08C216.184,177.376 216.416,177.672 216.68,177.976C218.688,180.272 222.392,182.848 229.24,184.376C231.95,184.995 234.724,185.293 237.504,185.264C238.44,185.264 239.336,185.208 240.192,185.128C241.048,185.048 241.856,184.952 242.592,184.832C243.6,184.672 244.528,184.48 245.36,184.28C246.935,183.921 248.471,183.407 249.944,182.744C250.309,180.573 250.544,178.383 250.648,176.184C250.648,175.712 250.696,175.224 250.712,174.712C250.728,174.2 250.712,173.664 250.712,173.112C251.512,170.848 252.248,168.792 252.792,167C252.928,166.552 253.056,166.12 253.168,165.704C253.477,164.653 253.726,163.584 253.912,162.504C258.28,160.32 260.296,157.392 260.744,154.32Z" fill="#EBEBEB"/>
<path d="M264.904,106.048C265.6,107.608 266.688,110.104 264.224,119.896C262.136,128.192 258.968,129.64 257.472,129.92C255.976,130.2 253.472,129.256 251.68,128.568L248.752,133.768C249.016,136.008 249.784,140.52 248.304,143.368C244,140.088 239.6,136.12 236.584,129.912L241.304,119.584C241.304,119.584 238.568,120.896 237.104,117.76C235.752,114.872 236.256,112.464 238.264,111.176C238.732,110.876 239.269,110.7 239.824,110.663C240.378,110.626 240.934,110.729 241.438,110.964C241.942,111.198 242.379,111.556 242.708,112.004C243.037,112.453 243.247,112.977 243.32,113.528C243.752,116 246.152,116.184 246.816,112.512C247.016,111.392 247.96,105.312 252.288,103.96C257.4,110.4 263.912,109.496 264.904,106.048Z" fill="#FFA8A7"/>
<path d="M253.72,114.512C253.673,114.728 253.563,114.925 253.405,115.079C253.247,115.234 253.047,115.338 252.83,115.38C252.613,115.421 252.389,115.398 252.185,115.313C251.981,115.229 251.806,115.086 251.683,114.903C251.559,114.719 251.492,114.504 251.49,114.283C251.488,114.062 251.55,113.846 251.67,113.66C251.79,113.474 251.962,113.328 252.164,113.239C252.366,113.15 252.59,113.123 252.808,113.16C252.957,113.189 253.098,113.246 253.225,113.33C253.351,113.414 253.46,113.521 253.544,113.647C253.629,113.772 253.688,113.913 253.718,114.062C253.748,114.21 253.749,114.363 253.72,114.512Z" fill="#263238"/>
<path d="M255,123.312C254.978,123.454 254.929,123.591 254.855,123.713C254.78,123.836 254.682,123.943 254.566,124.028C254.45,124.113 254.318,124.174 254.179,124.208C254.039,124.241 253.894,124.247 253.752,124.224C253.53,124.195 253.322,124.1 253.154,123.951C252.987,123.803 252.868,123.608 252.812,123.391C252.757,123.174 252.768,122.946 252.843,122.735C252.919,122.524 253.056,122.341 253.237,122.209C253.417,122.077 253.634,122.002 253.857,121.994C254.081,121.986 254.302,122.045 254.492,122.164C254.681,122.283 254.831,122.455 254.922,122.66C255.012,122.865 255.04,123.092 255,123.312Z" fill="#B16668"/>
<path d="M263.224,112.976L261.44,111.016C261.559,110.892 261.701,110.792 261.86,110.725C262.018,110.657 262.188,110.622 262.36,110.622C262.532,110.622 262.702,110.657 262.86,110.725C263.018,110.792 263.161,110.892 263.28,111.016C263.531,111.284 263.666,111.64 263.656,112.007C263.645,112.375 263.49,112.723 263.224,112.976Z" fill="#263238"/>
<path d="M253.352,109.848L250.912,110.872C250.837,110.716 250.794,110.546 250.787,110.373C250.78,110.199 250.809,110.026 250.871,109.865C250.933,109.703 251.028,109.555 251.149,109.431C251.27,109.308 251.416,109.21 251.576,109.144C251.906,109.011 252.274,109.009 252.605,109.14C252.936,109.271 253.203,109.525 253.352,109.848Z" fill="#263238"/>
<path d="M262.112,116.072C262.086,116.218 262.032,116.358 261.952,116.483C261.873,116.608 261.769,116.716 261.648,116.801C261.526,116.886 261.389,116.946 261.244,116.978C261.1,117.01 260.95,117.014 260.804,116.988C260.658,116.962 260.518,116.908 260.393,116.828C260.268,116.749 260.16,116.645 260.075,116.524C259.99,116.402 259.93,116.265 259.898,116.12C259.865,115.976 259.862,115.826 259.888,115.68C259.94,115.385 260.107,115.123 260.352,114.951C260.597,114.779 260.901,114.712 261.196,114.764C261.491,114.816 261.753,114.983 261.925,115.228C262.097,115.474 262.164,115.777 262.112,116.072Z" fill="#263238"/>
<path d="M256.96,113.856L256.432,121.288L260.392,120.448L256.96,113.856Z" fill="#F28F8F"/>
<path d="M251.68,128.568C249.08,127.608 243.232,124.448 242.88,122.072C242.979,123.245 243.431,124.361 244.176,125.272C245.504,127.056 250.712,130.264 250.712,130.264L251.68,128.568Z" fill="#F28F8F"/>
<path d="M254.824,132.344C254.544,131.456 253.4,131.368 253.4,131.368C253.488,131.02 253.497,130.657 253.427,130.306C253.356,129.954 253.207,129.623 252.992,129.336C252.603,129.051 252.13,128.905 251.648,128.92C251.936,128.288 251.56,126.848 250.776,126.672C250.031,126.593 249.278,126.628 248.544,126.776C247.779,127.289 247.117,127.94 246.592,128.696L247.8,126.4C248.866,126.123 249.914,125.779 250.936,125.368C252.136,124.76 252.08,123.448 251.616,123.376C250.566,123.396 249.52,123.503 248.488,123.696C247.176,123.912 245.52,123.904 245.072,124.72C244.624,125.536 244.128,126.512 243.208,128.384C242.288,130.256 242.032,130.824 242.152,131.896C242.272,132.968 242.256,135.096 242.584,137.76C242.912,140.424 242.384,141.048 241.208,142.56C240.408,143.576 235.464,148.48 230.248,153.248L230.96,142.888C230.96,142.888 232.656,132.232 228.616,128.248C223.176,127.368 220.536,129.848 219.328,132.768C217.208,137.936 217.832,152.664 218.24,160.416C218.648,168.168 221.696,171.104 224.032,171.616C226.368,172.128 232.768,169.432 236.96,163.92C240.256,160.136 247.312,147.672 248.344,145.936C249.098,144.595 250.02,143.355 251.088,142.248C251.888,141.448 252.528,138.248 252.528,136.336C252.704,136.936 253.328,137.416 253.832,137.04C253.936,136.056 254.904,132.992 254.824,132.344Z" fill="#FFA8A7"/>
<path d="M241.184,142.536C241.602,142.041 241.969,141.505 242.28,140.936C242.545,140.335 242.663,139.68 242.624,139.024C242.624,138.368 242.512,137.712 242.44,137.064C242.368,136.416 242.312,135.752 242.264,135.096L242.152,133.128L242.088,132.144C242.042,131.813 242.029,131.478 242.048,131.144C242.159,130.487 242.375,129.852 242.688,129.264C242.96,128.664 243.256,128.08 243.56,127.496L244.448,125.728L244.896,124.848C245.037,124.527 245.298,124.274 245.624,124.144C246.251,123.922 246.905,123.785 247.568,123.736C248.224,123.664 248.864,123.536 249.52,123.456C250.176,123.376 250.824,123.296 251.496,123.28C251.603,123.275 251.708,123.309 251.792,123.376C251.865,123.444 251.92,123.529 251.952,123.624C251.996,123.8 251.996,123.984 251.952,124.16C251.896,124.506 251.73,124.826 251.48,125.072C250.95,125.491 250.336,125.791 249.68,125.952C249.048,126.16 248.416,126.344 247.784,126.52L247.856,126.464L246.664,128.776L246.48,128.664C246.767,128.301 247.074,127.953 247.4,127.624C247.56,127.459 247.728,127.299 247.904,127.144C248.076,126.977 248.269,126.834 248.48,126.72C248.884,126.641 249.293,126.59 249.704,126.568C250.127,126.516 250.556,126.56 250.96,126.696C251.325,126.937 251.583,127.309 251.68,127.736C251.816,128.146 251.816,128.59 251.68,129L251.592,128.872C251.902,128.872 252.209,128.92 252.504,129.016C252.659,129.064 252.803,129.143 252.928,129.248C253.039,129.361 253.136,129.487 253.216,129.624C253.507,130.177 253.581,130.819 253.424,131.424L253.352,131.32C253.669,131.357 253.974,131.46 254.248,131.624C254.527,131.79 254.737,132.051 254.84,132.36C254.827,132.765 254.768,133.168 254.664,133.56L254.368,134.72C254.176,135.52 253.944,136.256 253.808,137.024C253.676,137.112 253.522,137.158 253.364,137.158C253.206,137.158 253.051,137.112 252.92,137.024C252.667,136.847 252.486,136.586 252.408,136.288L252.528,136.288C252.509,137.191 252.41,138.09 252.232,138.976C252.062,139.864 251.794,140.731 251.432,141.56C251.233,141.963 250.962,142.327 250.632,142.632C250.328,142.968 250.032,143.304 249.76,143.656C249.211,144.367 248.709,145.112 248.256,145.888C248.7,145.106 249.191,144.353 249.728,143.632C250,143.28 250.288,142.936 250.592,142.6C250.923,142.296 251.195,141.932 251.392,141.528C251.734,140.7 251.981,139.836 252.128,138.952C252.297,138.074 252.391,137.182 252.408,136.288L252.408,135.864L252.528,136.272C252.604,136.537 252.767,136.768 252.992,136.928C253.097,137.01 253.227,137.054 253.36,137.054C253.493,137.054 253.623,137.01 253.728,136.928L253.728,136.976C253.872,136.176 254.096,135.424 254.288,134.648L254.568,133.496C254.67,133.12 254.726,132.733 254.736,132.344C254.619,132.078 254.429,131.851 254.188,131.688C253.948,131.525 253.666,131.434 253.376,131.424L253.28,131.424L253.28,131.328C253.417,130.765 253.346,130.171 253.08,129.656C253.018,129.531 252.932,129.42 252.826,129.329C252.72,129.238 252.597,129.17 252.464,129.128C252.187,129.041 251.898,128.998 251.608,129L251.48,129L251.528,128.872C251.648,128.503 251.648,128.105 251.528,127.736C251.445,127.359 251.218,127.029 250.896,126.816C250.521,126.699 250.126,126.664 249.736,126.712C249.336,126.738 248.938,126.789 248.544,126.864C248.359,126.979 248.185,127.11 248.024,127.256C247.856,127.408 247.688,127.568 247.536,127.728C247.216,128.056 246.92,128.4 246.632,128.76L245.976,129.56L246.448,128.632L247.64,126.312L247.64,126.264L247.688,126.264C248.32,126.088 248.952,125.912 249.568,125.704C250.195,125.564 250.784,125.291 251.296,124.904C251.511,124.684 251.659,124.406 251.72,124.104C251.768,123.824 251.72,123.424 251.432,123.456C250.779,123.47 250.127,123.523 249.48,123.616C248.832,123.696 248.184,123.816 247.528,123.888C246.879,123.929 246.238,124.059 245.624,124.272C245.331,124.389 245.096,124.616 244.968,124.904L244.52,125.784L243.624,127.536C243.328,128.12 243.024,128.704 242.744,129.304C242.437,129.876 242.226,130.495 242.12,131.136C242.084,131.458 242.084,131.782 242.12,132.104L242.176,133.096L242.272,135.064C242.312,135.72 242.36,136.376 242.424,137.032C242.488,137.688 242.576,138.336 242.584,139C242.613,139.661 242.484,140.319 242.208,140.92C241.922,141.492 241.579,142.033 241.184,142.536Z" fill="#B16668"/>
<path d="M251.68,129.016C251.744,128.79 251.766,128.554 251.744,128.32C251.088,128.496 250.24,128.584 249.696,128.776C249.254,128.94 248.89,129.266 248.68,129.688C248.96,129.392 249.76,129.008 251.68,129.016Z" fill="#B16668"/>
<path d="M251.088,131.944C251.79,131.556 252.592,131.383 253.392,131.448C253.432,131.229 253.456,131.007 253.464,130.784C251.592,131.056 251.088,131.944 251.088,131.944Z" fill="#B16668"/>
<path d="M252.424,136.8C252.498,135.955 252.477,135.104 252.36,134.264C252.272,133.76 252.24,133.464 252.808,133.552C253.376,133.64 254.16,132.944 254.008,133.416C253.928,133.672 252.92,134.096 252.856,134.456C252.789,135.25 252.645,136.035 252.424,136.8Z" fill="#B16668"/>
<path d="M230.2,153.224C228.76,154.416 223.88,158.144 223.2,161.944C223.2,161.944 222.52,159.096 225.32,155.928C226.894,154.127 228.577,152.426 230.36,150.832L230.2,153.224Z" fill="#F28F8F"/>
<path d="M260.6,176.344C260.112,179.184 259.208,180.224 256.312,181.496C251.592,183.568 232.688,188.92 227.104,188.96C223.932,189.019 220.773,188.543 217.76,187.552C217.219,187.423 216.735,187.12 216.384,186.688C216.181,186.32 215.909,185.994 215.584,185.728C215.182,185.487 214.765,185.27 214.336,185.08C213.832,184.766 213.468,184.271 213.32,183.696C213.292,183.319 213.174,182.954 212.976,182.632C212.737,182.386 212.523,182.119 212.336,181.832C212.121,181.449 212.013,181.015 212.024,180.576C212.042,180.356 212.023,180.134 211.968,179.92C211.882,179.726 211.756,179.552 211.6,179.408C211.434,179.222 211.279,179.027 211.136,178.824C210.989,178.658 210.897,178.452 210.872,178.232C210.901,178.055 210.972,177.887 211.08,177.744C211.736,176.712 213.208,176.944 214.28,177.056C215.552,177.2 216.8,177.448 218.072,177.6C219.843,177.812 221.63,177.852 223.408,177.72L223.408,174.432C224.696,174.717 225.915,175.25 227,176C229.08,177.28 230.336,179.008 234.2,177.984C238.064,176.96 247.272,171.728 251.896,170.112C256.52,168.496 260.88,174.664 260.6,176.344Z" fill="#FFA8A7"/>
<path d="M110.104,340.096L223.392,322.512L223.392,77.008L110.104,94.632L110.104,340.096Z" fill="#5C7885"/>
<path d="M219.944,75.016L223.392,77.008L110.104,94.632L116.096,91.168L219.944,75.016Z" fill="#37474F"/>
<path d="M123.4,221.736L202.68,209.416L202.68,309.2L123.4,321.512L123.4,221.736Z" fill="#5C7885"/>
<g opacity="0.1">
<path d="M123.4,221.736L202.68,209.416L202.68,309.2L123.4,321.512L123.4,221.736Z" fill="#000000"/>
</g>
<path d="M129.352,226.832L196.736,216.352L196.736,304.096L129.352,314.576L129.352,226.832Z" fill="#5C7885"/>
<path d="M123.4,321.512L129.352,314.576L196.736,304.096L202.68,309.2L123.4,321.512Z" fill="#263238"/>
<path d="M123.4,221.736L129.352,226.832L129.352,314.576L123.4,321.512L123.4,221.736Z" fill="#37474F"/>
<path d="M196.736,216.352L202.68,209.416L202.68,309.2L196.736,304.096L196.736,216.352Z" fill="#37474F"/>
<path d="M168.44,100.904L202.68,95.576L202.68,195.36L168.448,200.68L168.44,100.904Z" fill="#5C7885"/>
<g opacity="0.1">
<path d="M168.44,100.904L202.68,95.576L202.68,195.36L168.448,200.68L168.44,100.904Z" fill="#000000"/>
</g>
<path d="M174.392,106L196.736,102.52L196.736,190.264L174.392,193.744L174.392,106Z" fill="#5C7885"/>
<path d="M168.448,200.68L174.392,193.744L196.736,190.264L202.68,195.36L168.448,200.68Z" fill="#263238"/>
<path d="M168.44,100.904L174.392,106L174.392,193.744L168.448,200.68L168.44,100.904Z" fill="#37474F"/>
<path d="M196.736,102.52L202.68,95.576L202.68,195.36L196.736,190.264L196.736,102.52Z" fill="#37474F"/>
<path d="M123.456,107.872L157.696,102.544L157.696,202.328L123.456,207.648L123.456,107.872Z" fill="#5C7885"/>
<g opacity="0.1">
<path d="M123.456,107.872L157.696,102.544L157.696,202.328L123.456,207.648L123.456,107.872Z" fill="#000000"/>
</g>
<path d="M129.4,112.968L151.744,109.48L151.752,197.232L129.4,200.712L129.4,112.968Z" fill="#5C7885"/>
<path d="M123.456,207.648L129.4,200.712L151.752,197.232L157.696,202.328L123.456,207.648Z" fill="#263238"/>
<path d="M123.456,107.872L129.4,112.968L129.4,200.712L123.456,207.648L123.456,107.872Z" fill="#37474F"/>
<path d="M151.744,109.48L157.696,102.544L157.696,202.328L151.752,197.232L151.744,109.48Z" fill="#37474F"/>
<path d="M208.128,191.248L209.672,192.808L209.672,218.44L208.128,216.888L208.128,191.248Z" fill="#E0E0E0"/>
<path d="M209.672,192.808L218,191.56L218,217.2L209.672,218.44L209.672,192.808Z" fill="#FAFAFA"/>
<g opacity="0.05">
<path d="M218,198.616L209.672,199.832L209.672,204.848L218,203.64L218,198.616Z" fill="#000000"/>
</g>
<path d="M218,191.56L216.456,190.008L208.128,191.248L209.672,192.808L218,191.56Z" fill="#EBEBEB"/>
<path d="M212.864,197.664L216.688,201.504L218.216,199.504L214.392,195.672C214.295,195.572 214.175,195.496 214.043,195.451C213.911,195.407 213.77,195.395 213.632,195.416C213.317,195.49 213.037,195.67 212.84,195.927C212.644,196.184 212.542,196.501 212.552,196.824C212.544,197.134 212.655,197.435 212.864,197.664Z" fill="#E0E0E0"/>
<g opacity="0.1">
<path d="M209.672,199.88L215.744,200.552L215.744,198.728L217.224,198.512L215.832,197.112L209.672,198.048L209.672,199.88Z" fill="#000000"/>
</g>
<path d="M197.168,202.08L197.168,206.08L218.864,202.832L218.864,198.832L197.168,202.08Z" fill="#FAFAFA"/>
<path d="M197.168,202.08L195.784,200.68L195.784,204.688L197.168,206.08L197.168,202.08Z" fill="#E0E0E0"/>
<path d="M218.864,198.832L217.472,197.432L195.784,200.68L197.168,202.08L218.864,198.832Z" fill="#EBEBEB"/>
<path d="M212.432,208.8C212.422,208.38 212.556,207.969 212.813,207.635C213.069,207.302 213.431,207.066 213.84,206.968C214.03,206.95 214.221,206.975 214.4,207.04C214.579,207.105 214.741,207.209 214.875,207.345C215.009,207.48 215.111,207.644 215.174,207.823C215.237,208.003 215.26,208.195 215.24,208.384C215.238,208.699 215.16,209.01 215.013,209.288C214.865,209.567 214.652,209.806 214.392,209.984L214.392,212.6C214.396,212.742 214.352,212.882 214.266,212.995C214.18,213.109 214.058,213.189 213.92,213.224L213.752,213.224C213.688,213.23 213.623,213.222 213.562,213.2C213.501,213.178 213.446,213.143 213.401,213.097C213.356,213.051 213.321,212.995 213.3,212.934C213.279,212.873 213.272,212.808 213.28,212.744L213.28,210.128C213.02,210.02 212.799,209.835 212.647,209.597C212.495,209.36 212.42,209.081 212.432,208.8Z" fill="#5C7885"/>
<path d="M97.912,363.056C104.72,356.032 108.72,327.424 102.08,321.848L68.272,321.848C61.632,327.448 65.624,356.016 72.432,363.048L72.624,363.248L72.856,363.48C73.048,363.664 73.256,363.848 73.472,364.032C73.529,364.07 73.582,364.113 73.632,364.16C73.8,364.288 73.968,364.424 74.152,364.552C74.434,364.759 74.727,364.949 75.032,365.12C80.632,368.392 89.72,368.392 95.32,365.12C95.629,364.949 95.926,364.756 96.208,364.544C96.376,364.432 96.528,364.304 96.688,364.184L96.888,364.024C97.096,363.848 97.296,363.672 97.48,363.488L97.752,363.224L97.912,363.056Z" fill="#5C7885"/>
<path d="M71.208,319.6C63.496,324.104 63.496,331.408 71.208,335.912C78.92,340.416 91.424,340.416 99.144,335.912C106.864,331.408 106.856,324.104 99.144,319.6C91.432,315.096 78.92,315.096 71.208,319.6Z" fill="#5C7885"/>
<g opacity="0.1">
<path d="M71.208,319.6C63.496,324.104 63.496,331.408 71.208,335.912C78.92,340.416 91.424,340.416 99.144,335.912C106.864,331.408 106.856,324.104 99.144,319.6C91.432,315.096 78.92,315.096 71.208,319.6Z" fill="#FFFFFF"/>
</g>
<path d="M74.92,321.768C69.256,325.072 69.256,330.44 74.92,333.768C80.584,337.096 89.768,337.08 95.432,333.768C101.096,330.456 101.096,325.096 95.432,321.768C89.768,318.44 80.6,318.464 74.92,321.768Z" fill="#263238"/>
<path d="M95.432,327.456C89.768,324.144 80.584,324.144 74.92,327.456C73.543,328.201 72.376,329.283 71.528,330.6C72.381,331.913 73.546,332.993 74.92,333.744C80.584,337.056 89.768,337.056 95.432,333.744C96.806,332.993 97.972,331.913 98.824,330.6C97.976,329.283 96.809,328.201 95.432,327.456Z" fill="#F5F5F5"/>
<path d="M66.432,266.352L79.952,275.6L67.152,270.76C67.263,274.181 68.126,277.535 69.68,280.584C69.68,280.584 78.12,284.68 82.712,289L71.48,285.464C71.128,287.424 71.248,289.44 71.832,291.344C71.904,291.6 71.984,291.872 72.072,292.144C72.664,293.944 73.512,297.344 74.952,301.376C76.173,304.903 77.729,308.306 79.6,311.536C80.525,313.126 81.557,314.653 82.688,316.104C82.752,316.2 82.824,316.288 82.896,316.376C84.981,314.984 87.152,313.621 89.408,312.288C90.712,308.976 92.144,300.912 92.4,294.368C93.4,269.328 73.6,256.416 58.2,252.704C58.2,252.704 63.8,258.848 66.432,266.352Z" fill="#EDB393"/>
<g opacity="0.3">
<path d="M66.432,266.352L79.952,275.6L67.152,270.76C67.263,274.181 68.126,277.535 69.68,280.584C69.68,280.584 78.12,284.68 82.712,289L71.48,285.464C71.128,287.424 71.248,289.44 71.832,291.344C71.904,291.6 71.984,291.872 72.072,292.144C72.664,293.944 73.512,297.344 74.952,301.376C76.173,304.903 77.729,308.306 79.6,311.536C80.525,313.126 81.557,314.653 82.688,316.104C82.752,316.2 82.824,316.288 82.896,316.376C84.981,314.984 87.152,313.621 89.408,312.288C90.712,308.976 92.144,300.912 92.4,294.368C93.4,269.328 73.6,256.416 58.2,252.704C58.2,252.704 63.8,258.848 66.432,266.352Z" fill="#000000"/>
</g>
<path d="M77.216,266.64C78.59,267.869 79.773,269.295 80.728,270.872C81.674,272.453 82.5,274.103 83.2,275.808C84.585,279.218 85.591,282.77 86.2,286.4C87.53,293.645 87.121,301.103 85.008,308.16C84.98,308.252 84.99,308.352 85.035,308.437C85.08,308.522 85.156,308.586 85.248,308.616C85.339,308.643 85.438,308.633 85.522,308.588C85.606,308.543 85.668,308.467 85.696,308.376C87.721,301.2 88.014,293.647 86.552,286.336C85.874,282.697 84.801,279.142 83.352,275.736C82.62,274.038 81.765,272.396 80.792,270.824C79.81,269.263 78.605,267.853 77.216,266.64Z" fill="#FAFAFA"/>
<path d="M124.48,279.144C124.176,279.536 119.384,283.712 112.04,296.2L97.144,300L109.256,301.088L103.656,310.816L91,313.92L101.04,315.2C101.04,315.2 98.64,325.072 91.648,329.416C87.776,331.816 85.864,332.232 84.632,331.152C83.768,330.392 83.4,325.72 82.544,321.552C81.688,317.384 81.368,310.608 84.992,302.264C85.981,300.028 87.285,297.946 88.864,296.08C97.928,285.136 115.624,279.36 124.48,279.144Z" fill="#EDB393"/>
<g opacity="0.15">
<path d="M124.48,279.144C124.176,279.536 119.384,283.712 112.04,296.2L97.144,300L109.256,301.088L103.656,310.816L91,313.92L101.04,315.2C101.04,315.2 98.64,325.072 91.648,329.416C87.776,331.816 85.864,332.232 84.632,331.152C83.768,330.392 83.4,325.72 82.544,321.552C81.688,317.384 81.368,310.608 84.992,302.264C85.981,300.028 87.285,297.946 88.864,296.08C97.928,285.136 115.624,279.36 124.48,279.144Z" fill="#000000"/>
</g>
<g opacity="0.1">
<path d="M87.8,306.48C86.43,309.966 85.565,313.63 85.232,317.36C85,322.079 85.056,326.808 85.4,331.52C85.13,331.434 84.88,331.295 84.664,331.112C83.8,330.352 83.432,325.68 82.576,321.512C81.72,317.344 81.4,310.568 85.024,302.224C86.013,299.988 87.317,297.906 88.896,296.04C97.96,285.12 115.656,279.344 124.512,279.128C111.008,281.872 96.752,291.48 89.944,302.272C89.112,303.612 88.395,305.019 87.8,306.48Z" fill="#000000"/>
</g>
<path d="M111,283.928C104.384,287.128 98.2,291.44 93.4,297.128C90.964,299.948 88.993,303.137 87.56,306.576C86.169,310.019 85.358,313.668 85.16,317.376C85.173,317.381 85.187,317.381 85.2,317.376C85.752,313.753 86.763,310.216 88.208,306.848C89.645,303.49 91.529,300.342 93.808,297.488C96.135,294.651 98.788,292.097 101.712,289.88C104.647,287.643 107.777,285.675 111.064,284L111.064,283.936L111,283.928Z" fill="#FAFAFA"/>
<path d="M45.584,288.6C46.676,288.535 47.772,288.535 48.864,288.6C53.171,288.862 57.43,289.652 61.544,290.952C63.072,291.432 64.608,291.976 66.12,292.6C66.88,292.912 67.632,293.24 68.368,293.592C72.05,295.26 75.427,297.531 78.36,300.312C79.728,301.642 80.924,303.139 81.92,304.768C82.048,304.976 82.184,305.184 82.304,305.4C82.608,305.96 82.896,306.504 83.16,307.048C85.657,311.735 86.923,316.978 86.84,322.288C86.912,326.032 85.872,330.368 85.192,331.088C85.098,331.187 84.993,331.275 84.88,331.352C83.848,332.088 82.136,331.784 78.88,330.192C72.344,326.992 69.36,318.192 69.36,318.192L78.08,316.208L66.648,314.608L61.656,307.696L70.032,305.6L58.448,304.48C54.487,298.939 50.196,293.642 45.6,288.616L45.584,288.6Z" fill="#EDB393"/>
<g opacity="0.05">
<path d="M48.864,288.568C53.171,288.83 57.43,289.62 61.544,290.92C63.072,291.4 64.608,291.944 66.12,292.568C66.88,292.88 67.632,293.208 68.368,293.56C72.05,295.228 75.427,297.499 78.36,300.28C79.728,301.61 80.924,303.107 81.92,304.736C82.048,304.944 82.184,305.152 82.304,305.368C82.608,305.928 82.896,306.472 83.16,307.016C85.657,311.703 86.923,316.946 86.84,322.256C86.912,326 85.872,330.336 85.192,331.056C85.098,331.155 84.993,331.243 84.88,331.32C84.67,331.458 84.437,331.559 84.192,331.616C84.656,325.784 80.992,311.272 76.352,305.472C71.552,299.448 60.352,290.928 45.592,288.6C46.681,288.527 47.774,288.517 48.864,288.568Z" fill="#000000"/>
</g>
<path d="M314.904,270.032C313.976,272.968 308.68,280.432 306.904,282.472C305.128,284.512 304.856,293.304 304.872,295.136C304.888,296.968 306.112,298.704 306.888,299.88C307.664,301.056 306.32,303.08 303.496,302.152C300.672,301.224 299.816,298.368 299.4,296.456C298.984,294.544 298.048,283.584 299.208,276.776C299.208,276.8 304.968,269.464 314.904,270.032Z" fill="#37474F"/>
<path d="M271.552,242.52C267.08,242.616 260.904,239.056 258.752,232.92C256.6,226.784 257.888,217.72 260.2,212.568C261.52,209.64 261.112,207.768 259.992,207.216C258.344,206.416 256.688,207.32 255.464,209.912C253.912,213.24 250.792,225.656 253.6,233.216C256.408,240.776 261.52,244.84 264.528,246.016L271.552,242.52Z" fill="#37474F"/>
<path d="M270.144,259.752C270.416,265.768 273.296,276.416 274.944,279.016C276.672,281.76 278.016,282.544 280.808,282.624C283.6,282.704 284.008,280.28 280.464,278.112C279.792,277.16 279.544,272.512 279.928,267.672C280.312,262.832 270.144,259.752 270.144,259.752Z" fill="#37474F"/>
<path d="M318.88,247.744C318.88,250.944 319.456,259.504 317.44,265.04C315.52,270.312 312.024,275.144 304.176,276.368C296.328,277.592 289.408,275.912 284.88,273.296C280.352,270.68 275.928,265.408 272.736,264.808C270.569,266.828 267.862,268.176 264.944,268.688C259.752,269.752 257.136,268.44 257.136,268.44C257.136,268.44 255.616,272.68 255.536,274.84C255.456,277 255.536,279.056 257.184,280.176C258.832,281.296 259.64,281.864 259.464,283.048C259.464,283.048 259.464,284.36 256.08,284.264C252.696,284.168 252.608,283.624 251.592,280.584C250.576,277.544 249.28,269.656 249.088,267.024C248.896,264.392 252.112,264.048 253.712,261.88C255.503,259.538 256.858,256.893 257.712,254.072C258.8,250.608 261.336,245.232 266.832,243.456C272.328,241.68 277.896,242.16 285.6,245.528C293.304,248.896 297.152,250.328 300.936,248.24C306.072,245.376 305.552,240.864 305.552,240.864C311.112,240.088 317.44,237.16 318.88,247.744Z" fill="#5C7885"/>
<path d="M300.424,276.736L299.984,274.856L296.312,273.032L295.184,273.76C295.856,274.673 296.42,275.661 296.864,276.704C298.049,276.779 299.238,276.79 300.424,276.736Z" fill="#37474F"/>
<path d="M295.184,273.76C297.392,275.232 299.144,278.496 302.256,280.432C304.01,281.559 305.966,282.336 308.016,282.72C308.897,284.193 309.56,285.785 309.984,287.448C310.688,290.216 311.496,293.656 313.848,295.184C316.2,296.712 319.936,295.696 318,292.984C316.624,291.056 315.976,288.6 315.32,286.128C314.448,282.864 315.2,281.328 313.552,279.16C311.648,276.832 310.246,274.135 309.432,271.24C309.432,271.24 298.512,268.888 295.184,273.76Z" fill="#5C7885"/>
<path d="M273.968,265.224C274.88,263.523 275.224,261.575 274.952,259.664C274.629,261.529 273.87,263.292 272.736,264.808C273.162,264.895 273.576,265.034 273.968,265.224Z" fill="#37474F"/>
<path d="M307.8,244.864C314.424,251.2 306.248,255.264 306.456,263.448C306.52,266.152 307.752,269.048 310.456,274.176C313.856,272.098 316.431,268.906 317.744,265.144C319.264,260.968 319.248,254.232 318.936,250.96C318.684,248.371 317.865,245.868 316.536,243.632C316.536,243.632 301.16,238.528 307.8,244.864Z" fill="#E0E0E0"/>
<path d="M301.264,248.064C303.949,249.324 306.957,249.728 309.88,249.224C311.398,248.994 312.824,248.35 314,247.362C315.176,246.374 316.056,245.08 316.544,243.624L305.224,243.36C304.532,245.364 303.121,247.041 301.264,248.064Z" fill="#37474F"/>
<path d="M311.56,228.408C313.304,226.36 317.824,224.744 320.208,226.768C321.552,227.912 317.968,234.12 317.968,234.12C317.968,234.12 313.336,231.632 311.56,228.408Z" fill="#37474F"/>
<path d="M313.4,230.552C315.608,232.392 317.952,234.12 317.952,234.12C317.952,234.12 321.536,227.912 320.192,226.768C319.272,226.2 316.192,226.704 313.4,230.552Z" fill="#FFA8A7"/>
<path d="M317.84,232.608C318.032,232.346 318.268,232.119 318.536,231.936C318.736,231.544 318.968,231.08 319.2,230.584C318.507,230.153 317.734,229.867 316.928,229.744C317.021,229.209 317.305,228.725 317.728,228.384C317.094,228.223 316.423,228.306 315.847,228.615C315.271,228.925 314.832,229.439 314.616,230.056C314.788,230.668 315.085,231.237 315.488,231.728C315.984,232.064 316.44,232.344 316.808,232.576C317.146,232.661 317.498,232.672 317.84,232.608Z" fill="#F28F8F"/>
<path d="M315,230.624C315.208,230.125 315.566,229.702 316.025,229.416C316.484,229.129 317.02,228.992 317.56,229.024C317.211,229.425 317.023,229.941 317.032,230.472C317.032,230.472 319.592,230.336 320.232,231.648C319.744,231.652 319.265,231.785 318.844,232.032C318.423,232.279 318.074,232.632 317.832,233.056C315.632,233.912 315,230.624 315,230.624Z" fill="#5C7885"/>
<path d="M297.008,226.4C298.855,228.324 299.891,230.885 299.904,233.552L301.792,232.192C301.792,232.192 301.84,228.864 300.432,227.688C299.438,226.939 298.249,226.492 297.008,226.4Z" fill="#F28F8F"/>
<path d="M305.664,228.576C304.76,226.76 300.064,224.4 297.008,226.432C297.008,226.432 301.008,227.72 301.2,231.88L305.664,228.576Z" fill="#37474F"/>
<path d="M318.88,247.816C318.624,244.008 319.6,238.928 319,236.032C318.296,232.656 316.232,228.352 309.664,227.992C303.096,227.632 299.896,231.12 298.752,235.488C298.072,237.664 297.152,238.608 297.432,241.016C297.561,242.519 298.166,243.941 299.161,245.076C300.156,246.21 301.487,246.996 302.96,247.32C305.728,248.12 313.08,248.344 316.56,243.632L318.896,247.816Z" fill="#5C7885"/>
<path d="M301.152,231.304C301.152,231.304 301.048,230.648 299.928,229.952C299.511,229.718 299.052,229.569 298.577,229.512C298.102,229.456 297.62,229.494 297.16,229.624C297.16,229.624 298.664,230.856 298.832,231.856C298.27,231.678 297.669,231.658 297.096,231.8C297.096,231.8 299.296,233.312 298.872,235.64C298.872,235.64 301.2,232.896 301.152,231.304Z" fill="#5C7885"/>
<path d="M305.048,242.136C304.97,242.132 304.897,242.098 304.843,242.041C304.79,241.985 304.76,241.91 304.76,241.832L304.808,240.32C304.812,240.242 304.846,240.169 304.903,240.115C304.959,240.062 305.034,240.032 305.112,240.032C305.151,240.033 305.189,240.042 305.225,240.058C305.26,240.073 305.292,240.096 305.319,240.124C305.346,240.153 305.367,240.186 305.381,240.222C305.394,240.258 305.401,240.297 305.4,240.336L305.352,241.848C305.348,241.926 305.314,241.999 305.257,242.053C305.201,242.106 305.126,242.136 305.048,242.136Z" fill="#263238"/>
<path d="M306.44,243.088C306.386,243.087 306.333,243.07 306.288,243.04L305.048,242.192L303.784,242.992C303.718,243.023 303.643,243.028 303.573,243.007C303.503,242.985 303.443,242.939 303.406,242.876C303.368,242.814 303.355,242.74 303.368,242.668C303.382,242.596 303.422,242.532 303.48,242.488L304.904,241.624C304.951,241.591 305.007,241.574 305.064,241.574C305.121,241.574 305.177,241.591 305.224,241.624L306.616,242.576C306.68,242.62 306.725,242.687 306.74,242.764C306.755,242.84 306.739,242.919 306.696,242.984C306.665,243.021 306.626,243.05 306.581,243.069C306.537,243.087 306.488,243.093 306.44,243.088Z" fill="#263238"/>
<path d="M305.136,238.52C303.616,238.448 303.432,238.904 303.584,239.448C303.903,240.03 304.424,240.477 305.048,240.704C305.408,240.76 306.784,240.08 306.84,239.496C306.896,238.912 306.568,238.592 305.136,238.52Z" fill="#F28F8F"/>
<path d="M310.352,240C310.331,239.973 310.316,239.943 310.308,239.91C310.299,239.877 310.297,239.843 310.301,239.81C310.306,239.776 310.317,239.744 310.334,239.715C310.351,239.686 310.373,239.66 310.4,239.64C311.107,238.991 311.997,238.575 312.948,238.447C313.899,238.32 314.867,238.488 315.72,238.928C315.783,238.96 315.83,239.015 315.852,239.082C315.873,239.149 315.868,239.221 315.836,239.284C315.804,239.347 315.749,239.394 315.682,239.416C315.615,239.437 315.543,239.432 315.48,239.4C314.711,239 313.838,238.847 312.979,238.962C312.12,239.077 311.317,239.453 310.68,240.04C310.631,240.077 310.569,240.093 310.508,240.085C310.447,240.078 310.391,240.047 310.352,240Z" fill="#263238"/>
<path d="M310.792,240.8L310.744,240.72C310.722,240.655 310.724,240.584 310.75,240.52C310.777,240.457 310.826,240.406 310.888,240.376C311.467,240.155 312.087,240.059 312.706,240.094C313.325,240.13 313.93,240.297 314.48,240.584C314.54,240.62 314.584,240.679 314.601,240.747C314.619,240.815 314.608,240.887 314.572,240.948C314.554,240.978 314.531,241.004 314.503,241.025C314.475,241.046 314.443,241.061 314.409,241.069C314.341,241.087 314.268,241.076 314.208,241.04C313.728,240.79 313.201,240.644 312.66,240.611C312.12,240.578 311.579,240.659 311.072,240.848C311.026,240.871 310.974,240.878 310.924,240.87C310.874,240.861 310.827,240.837 310.792,240.8Z" fill="#263238"/>
<path d="M310.328,241.792C310.309,241.773 310.294,241.751 310.285,241.726C310.275,241.701 310.271,241.675 310.272,241.648C310.267,241.578 310.29,241.51 310.334,241.456C310.379,241.402 310.443,241.368 310.512,241.36C311.324,241.321 312.133,241.48 312.87,241.823C313.607,242.166 314.25,242.682 314.744,243.328C314.765,243.355 314.78,243.385 314.788,243.418C314.797,243.45 314.799,243.485 314.795,243.518C314.79,243.551 314.779,243.584 314.762,243.613C314.745,243.642 314.723,243.668 314.696,243.688C314.673,243.712 314.646,243.732 314.616,243.745C314.586,243.758 314.553,243.765 314.52,243.765C314.487,243.765 314.454,243.758 314.424,243.745C314.394,243.732 314.366,243.712 314.344,243.688C313.9,243.105 313.322,242.639 312.659,242.328C311.996,242.017 311.268,241.872 310.536,241.904C310.494,241.907 310.453,241.897 310.416,241.878C310.379,241.858 310.349,241.828 310.328,241.792Z" fill="#263238"/>
<path d="M301.4,239.576C301.448,239.527 301.475,239.461 301.475,239.392C301.475,239.323 301.448,239.257 301.4,239.208C300.836,238.432 300.047,237.848 299.139,237.536C298.232,237.224 297.25,237.199 296.328,237.464C296.269,237.489 296.22,237.535 296.192,237.593C296.165,237.651 296.159,237.718 296.177,237.78C296.194,237.842 296.234,237.895 296.289,237.93C296.343,237.965 296.408,237.978 296.472,237.968C297.304,237.735 298.188,237.764 299.004,238.05C299.82,238.336 300.528,238.866 301.032,239.568C301.055,239.594 301.083,239.615 301.114,239.63C301.145,239.645 301.18,239.653 301.214,239.654C301.249,239.654 301.283,239.648 301.315,239.635C301.347,239.621 301.376,239.601 301.4,239.576Z" fill="#263238"/>
<path d="M300.848,240.232C300.871,240.215 300.89,240.193 300.904,240.168C300.938,240.108 300.947,240.037 300.931,239.971C300.914,239.904 300.873,239.846 300.816,239.808C300.269,239.51 299.665,239.333 299.044,239.287C298.424,239.242 297.8,239.329 297.216,239.544C297.156,239.575 297.109,239.628 297.087,239.692C297.065,239.756 297.068,239.826 297.096,239.888C297.124,239.949 297.174,239.997 297.237,240.023C297.299,240.048 297.369,240.048 297.432,240.024C297.94,239.842 298.481,239.767 299.02,239.806C299.558,239.844 300.083,239.995 300.56,240.248C300.603,240.278 300.654,240.293 300.707,240.29C300.759,240.287 300.809,240.267 300.848,240.232Z" fill="#263238"/>
<path d="M301.224,241.304C301.263,241.265 301.289,241.215 301.296,241.16C301.306,241.092 301.29,241.024 301.251,240.967C301.213,240.911 301.154,240.871 301.088,240.856C300.286,240.726 299.464,240.793 298.693,241.05C297.923,241.308 297.226,241.749 296.664,242.336C296.616,242.385 296.589,242.451 296.589,242.52C296.589,242.589 296.616,242.655 296.664,242.704C296.686,242.728 296.712,242.747 296.742,242.76C296.771,242.773 296.804,242.78 296.836,242.78C296.868,242.78 296.9,242.773 296.93,242.76C296.96,242.747 296.986,242.728 297.008,242.704C297.515,242.172 298.145,241.771 298.841,241.535C299.538,241.3 300.282,241.237 301.008,241.352C301.045,241.364 301.085,241.366 301.123,241.358C301.161,241.349 301.196,241.331 301.224,241.304Z" fill="#263238"/>
<path d="M311.4,236C311.394,236.198 311.329,236.389 311.214,236.55C311.098,236.71 310.938,236.833 310.753,236.903C310.568,236.973 310.367,236.986 310.174,236.941C309.981,236.897 309.806,236.796 309.671,236.652C309.536,236.507 309.446,236.326 309.414,236.131C309.382,235.936 309.408,235.736 309.489,235.556C309.571,235.375 309.704,235.223 309.872,235.119C310.039,235.014 310.234,234.962 310.432,234.968C310.563,234.972 310.693,235.002 310.812,235.056C310.932,235.11 311.04,235.187 311.13,235.283C311.22,235.379 311.29,235.492 311.336,235.615C311.383,235.738 311.404,235.869 311.4,236Z" fill="#263238"/>
<path d="M303.336,235.68C303.331,235.878 303.267,236.071 303.153,236.233C303.038,236.395 302.878,236.519 302.692,236.59C302.507,236.66 302.305,236.674 302.112,236.63C301.918,236.585 301.742,236.484 301.607,236.339C301.471,236.194 301.381,236.012 301.349,235.817C301.317,235.621 301.344,235.42 301.427,235.239C301.509,235.059 301.644,234.907 301.813,234.803C301.982,234.699 302.178,234.648 302.376,234.656C302.506,234.66 302.634,234.69 302.753,234.744C302.872,234.797 302.979,234.874 303.068,234.969C303.157,235.064 303.227,235.176 303.273,235.298C303.319,235.42 303.34,235.55 303.336,235.68Z" fill="#263238"/>
</svg>
