<svg width="384" height="458" viewBox="0 0 384 458" fill="none" xmlns="http://www.w3.org/2000/svg" xmlns:xlink="http://www.w3.org/1999/xlink">
<path d="M6.397,374.604C-2.457,383.458 -2.522,397.912 7.161,405.85C30.436,424.936 57.291,439.316 86.235,448.096C122.43,459.076 160.774,460.96 197.87,453.58C234.968,446.202 269.672,429.788 298.91,405.792C328.148,381.798 351.018,350.962 365.492,316.018C379.966,281.072 385.6,243.098 381.892,205.456C378.186,167.814 365.252,131.668 344.238,100.219C323.224,68.77 294.778,42.988 261.422,25.158C234.746,10.9 205.59,2.079 175.636,-0.883C163.176,-2.116 153,8.151 153,20.672L153,20.672C153,33.193 163.188,43.2 175.616,44.734C198.102,47.509 219.952,54.407 240.046,65.148C266.828,79.463 289.664,100.161 306.536,125.411C323.406,150.66 333.79,179.68 336.766,209.9C339.744,240.122 335.22,270.61 323.6,298.664C311.98,326.72 293.618,351.476 270.144,370.742C246.67,390.006 218.808,403.184 189.024,409.108C159.242,415.032 128.456,413.52 99.397,404.704C77.593,398.09 57.265,387.518 39.403,373.58C29.531,365.878 15.251,365.75 6.397,374.604L6.397,374.604Z" fill="url(#pf_0_107_19)"/>
<defs>
<linearGradient id="pf_0_107_19" x1="153" y1="-2" x2="17.509" y2="382.727" gradientUnits="userSpaceOnUse">
<stop stop-color="#FFC266"/>
<stop offset="1" stop-color="#FFE0B2"/>
</linearGradient>
</defs>
</svg>
