<svg width="64" height="64" viewBox="0 0 64 64" fill="none" xmlns="http://www.w3.org/2000/svg" xmlns:xlink="http://www.w3.org/1999/xlink">
<path d="M8.667,8L55.333,8L55.333,0L8.667,0L8.667,8ZM55.333,8C55.702,8 56,8.298 56,8.667L64,8.667C64,3.88 60.12,0 55.333,0L55.333,8ZM56,8.667L56,55.333L64,55.333L64,8.667L56,8.667ZM56,55.333C56,55.702 55.702,56 55.333,56L55.333,64C60.12,64 64,60.12 64,55.333L56,55.333ZM55.333,56L8.667,56L8.667,64L55.333,64L55.333,56ZM8.667,56C8.298,56 8,55.702 8,55.333L0,55.333C0,60.12 3.88,64 8.667,64L8.667,56ZM8,55.333L8,8.667L0,8.667L0,55.333L8,55.333ZM8,8.667C8,8.298 8.298,8 8.667,8L8.667,0C3.88,0 0,3.88 0,8.667L8,8.667Z" fill="#FFCC80"/>
<path d="M41.051,6.828C42.613,5.266 42.613,2.734 41.051,1.172C39.489,-0.391 36.956,-0.391 35.394,1.172L41.051,6.828ZM1.172,35.394C-0.391,36.956 -0.391,39.489 1.172,41.051C2.734,42.613 5.266,42.613 6.828,41.051L1.172,35.394ZM62.828,28.606C64.391,27.044 64.391,24.511 62.828,22.949C61.266,21.387 58.734,21.387 57.172,22.949L62.828,28.606ZM22.949,57.172C21.387,58.734 21.387,61.266 22.949,62.828C24.511,64.391 27.044,64.391 28.606,62.828L22.949,57.172ZM59.717,9.94C61.279,8.377 61.279,5.845 59.717,4.283C58.155,2.721 55.623,2.721 54.06,4.283L59.717,9.94ZM4.283,54.06C2.721,55.623 2.721,58.155 4.283,59.717C5.845,61.279 8.377,61.279 9.94,59.717L4.283,54.06ZM16.162,26.06C14.6,24.498 12.067,24.498 10.505,26.06C8.943,27.623 8.943,30.155 10.505,31.717L16.162,26.06ZM21.394,42.606C22.956,44.168 25.489,44.168 27.051,42.606C28.613,41.044 28.613,38.511 27.051,36.949L21.394,42.606ZM42.606,21.394C41.044,19.832 38.511,19.832 36.949,21.394C35.387,22.956 35.387,25.489 36.949,27.051L42.606,21.394ZM47.838,37.94C49.4,39.502 51.933,39.502 53.495,37.94C55.057,36.377 55.057,33.845 53.495,32.283L47.838,37.94ZM35.394,1.172L1.172,35.394L6.828,41.051L41.051,6.828L35.394,1.172ZM57.172,22.949L22.949,57.172L28.606,62.828L62.828,28.606L57.172,22.949ZM54.06,4.283L4.283,54.06L9.94,59.717L59.717,9.94L54.06,4.283ZM10.505,31.717L21.394,42.606L27.051,36.949L16.162,26.06L10.505,31.717ZM36.949,27.051L47.838,37.94L53.495,32.283L42.606,21.394L36.949,27.051Z" fill="#FFCC80"/>
</svg>
