<svg width="554" height="520" viewBox="0 0 554 520" fill="none" xmlns="http://www.w3.org/2000/svg" xmlns:xlink="http://www.w3.org/1999/xlink">
<path d="M551.168,260C552.732,260 554.002,258.732 553.984,257.168C553.598,223.988 546.45,191.175 532.914,160.502C518.994,128.958 498.59,100.295 472.868,76.152C447.146,52.009 416.61,32.858 383.004,19.791C349.396,6.725 313.376,0 277,0C240.624,0 204.604,6.725 170.997,19.791C137.389,32.858 106.853,52.009 81.131,76.152C55.41,100.295 35.006,128.958 21.085,160.502C7.55,191.175 0.401,223.988 0.016,257.168C-0.002,258.732 1.268,260 2.832,260L2.832,260C4.396,260 5.662,258.732 5.68,257.168C6.065,224.686 13.067,192.564 26.318,162.537C39.954,131.637 59.94,103.561 85.136,79.911C110.332,56.262 140.244,37.502 173.164,24.703C206.084,11.904 241.368,5.316 277,5.316C312.632,5.316 347.916,11.904 380.836,24.703C413.756,37.502 443.668,56.262 468.864,79.911C494.06,103.561 514.046,131.637 527.682,162.537C540.934,192.564 547.934,224.686 548.32,257.168C548.338,258.732 549.604,260 551.168,260L551.168,260Z" fill="url(#pf_0_112_344)"/>
<circle cx="435.762" cy="52" r="16" fill="#FFFFFF" stroke="#FFC673" stroke-width="4" stroke-miterlimit="3.999327"/>
<defs>
<linearGradient id="pf_0_112_344" x1="277" y1="0" x2="113.822" y2="434.909" gradientUnits="userSpaceOnUse">
<stop stop-color="#FFC266"/>
<stop offset="1" stop-color="#FFE0B2"/>
</linearGradient>
</defs>
</svg>
