<svg width="470" height="442" viewBox="0 0 470 442" fill="none" xmlns="http://www.w3.org/2000/svg" xmlns:xlink="http://www.w3.org/1999/xlink">
<path d="M470,220.578C470,342.4 364.786,441.156 235,441.156C105.213,441.156 0,342.4 0,220.578C0,98.756 105.213,0 235,0C364.786,0 470,98.756 470,220.578ZM46.33,220.578C46.33,318.382 130.8,397.668 235,397.668C339.2,397.668 423.67,318.382 423.67,220.578C423.67,122.773 339.2,43.486 235,43.486C130.8,43.486 46.33,122.773 46.33,220.578Z" fill="url(#pf_0_112_338)"/>
<path d="M372.212,51.834C375.122,48.257 374.42,42.957 370.576,40.41C336.382,17.74 296.308,4.025 254.484,0.759C209.77,-2.732 164.926,5.864 125.252,25.532C85.577,45.2 52.73,75.118 30.593,111.75C9.851,146.075 -0.676,184.95 0.034,224.31C0.113,228.708 3.874,232.074 8.266,231.856L38.55,230.35C42.984,230.13 46.37,226.34 46.335,221.9C46.088,190.873 54.532,160.276 70.892,133.205C88.664,103.795 115.035,79.775 146.888,63.985C178.741,48.194 214.744,41.293 250.642,44.096C283.984,46.7 315.94,57.574 343.266,75.545C346.798,77.868 351.55,77.246 354.218,73.965L372.212,51.834Z" fill="url(#pf_0_112_339)"/>
<defs>
<linearGradient id="pf_0_112_338" x1="234.145" y1="-172.452" x2="235" y2="441.155" gradientUnits="userSpaceOnUse">
<stop offset="0.183" stop-color="#313135"/>
<stop offset="0.796" stop-color="#0F0F10" stop-opacity="0.05"/>
</linearGradient>
<linearGradient id="pf_0_112_339" x1="367.455" y1="51.334" x2="34.182" y2="242.234" gradientUnits="userSpaceOnUse">
<stop stop-color="#FFC266"/>
<stop offset="1" stop-color="#1A1A1B" stop-opacity="0.5"/>
</linearGradient>
</defs>
</svg>
