<svg width="20" height="20" viewBox="0 0 20 20" fill="none" xmlns="http://www.w3.org/2000/svg">
<g id="Icon/Small/Outline/Percent">
<path id="Vector" d="M6.49583 9C5.80417 9 5.21528 8.75556 4.72917 8.26667C4.24306 7.77778 4 7.1875 4 6.49583C4 5.80417 4.24444 5.21528 4.73333 4.72917C5.22222 4.24306 5.8125 4 6.50417 4C7.19583 4 7.78472 4.24444 8.27083 4.73333C8.75694 5.22222 9 5.8125 9 6.50417C9 7.19583 8.75556 7.78472 8.26667 8.27083C7.77778 8.75694 7.1875 9 6.49583 9ZM6.5 7.5C6.77778 7.5 7.01389 7.40278 7.20833 7.20833C7.40278 7.01389 7.5 6.77778 7.5 6.5C7.5 6.22222 7.40278 5.98611 7.20833 5.79167C7.01389 5.59722 6.77778 5.5 6.5 5.5C6.22222 5.5 5.98611 5.59722 5.79167 5.79167C5.59722 5.98611 5.5 6.22222 5.5 6.5C5.5 6.77778 5.59722 7.01389 5.79167 7.20833C5.98611 7.40278 6.22222 7.5 6.5 7.5ZM13.4958 16C12.8042 16 12.2153 15.7556 11.7292 15.2667C11.2431 14.7778 11 14.1875 11 13.4958C11 12.8042 11.2444 12.2153 11.7333 11.7292C12.2222 11.2431 12.8125 11 13.5042 11C14.1958 11 14.7847 11.2444 15.2708 11.7333C15.7569 12.2222 16 12.8125 16 13.5042C16 14.1958 15.7556 14.7847 15.2667 15.2708C14.7778 15.7569 14.1875 16 13.4958 16ZM13.5 14.5C13.7778 14.5 14.0139 14.4028 14.2083 14.2083C14.4028 14.0139 14.5 13.7778 14.5 13.5C14.5 13.2222 14.4028 12.9861 14.2083 12.7917C14.0139 12.5972 13.7778 12.5 13.5 12.5C13.2222 12.5 12.9861 12.5972 12.7917 12.7917C12.5972 12.9861 12.5 13.2222 12.5 13.5C12.5 13.7778 12.5972 14.0139 12.7917 14.2083C12.9861 14.4028 13.2222 14.5 13.5 14.5ZM4.54167 15.4583C4.38889 15.3056 4.3125 15.1285 4.3125 14.9271C4.3125 14.7257 4.38889 14.5486 4.54167 14.3958L14.4167 4.52083C14.5694 4.36806 14.7431 4.29514 14.9375 4.30208C15.1319 4.30903 15.3056 4.38889 15.4583 4.54167C15.6111 4.69444 15.6875 4.87153 15.6875 5.07292C15.6875 5.27431 15.6111 5.45139 15.4583 5.60417L5.58333 15.4792C5.43056 15.6319 5.25694 15.7049 5.0625 15.6979C4.86806 15.691 4.69444 15.6111 4.54167 15.4583Z" fill="#6F6F71"/>
</g>
</svg>
