<svg width="24" height="26" viewBox="0 0 24 26" fill="none" xmlns="http://www.w3.org/2000/svg" xmlns:xlink="http://www.w3.org/1999/xlink">
<path d="M20.333,6L2.167,24.167C1.861,24.472 1.472,24.625 1,24.625C0.528,24.625 0.139,24.472 -0.167,24.167C-0.472,23.861 -0.625,23.472 -0.625,23C-0.625,22.528 -0.472,22.139 -0.167,21.833L18,3.667L8.667,3.667C8.194,3.667 7.799,3.507 7.479,3.187C7.16,2.868 7,2.472 7,2C7,1.528 7.16,1.132 7.479,0.812C7.799,0.493 8.194,0.333 8.667,0.333L22,0.333C22.472,0.333 22.868,0.493 23.187,0.812C23.507,1.132 23.667,1.528 23.667,2L23.667,15.333C23.667,15.805 23.507,16.201 23.187,16.521C22.868,16.84 22.472,17 22,17C21.528,17 21.132,16.84 20.812,16.521C20.493,16.201 20.333,15.805 20.333,15.333L20.333,6Z" fill="#FFFFFF"/>
</svg>
