<svg width="60" height="52" viewBox="0 0 60 52" fill="none" xmlns="http://www.w3.org/2000/svg" xmlns:xlink="http://www.w3.org/1999/xlink">
<path d="M52.622,35.45C51.732,35.45 50.981,35.15 50.369,34.55C49.756,33.949 49.45,33.206 49.45,32.318C49.45,31.431 49.751,30.681 50.352,30.069C50.954,29.456 51.7,29.15 52.59,29.15L55.728,29.15C56.618,29.15 57.369,29.45 57.981,30.05C58.594,30.651 58.9,31.394 58.9,32.282C58.9,33.169 58.599,33.919 57.998,34.531C57.396,35.144 56.65,35.45 55.761,35.45L52.622,35.45ZM52.622,48.05C51.732,48.05 50.981,47.75 50.369,47.15C49.756,46.549 49.45,45.806 49.45,44.918C49.45,44.031 49.751,43.281 50.352,42.669C50.954,42.056 51.7,41.75 52.59,41.75L55.728,41.75C56.618,41.75 57.369,42.05 57.981,42.65C58.594,43.251 58.9,43.994 58.9,44.882C58.9,45.769 58.599,46.519 57.998,47.131C57.396,47.744 56.65,48.05 55.761,48.05L52.622,48.05ZM35.779,51.2C34.043,51.2 32.56,50.583 31.33,49.349C30.099,48.116 29.483,46.633 29.483,44.9L26.342,44.9C25.452,44.9 24.706,44.598 24.103,43.994C23.501,43.391 23.2,42.642 23.2,41.75L23.2,35.45C23.2,34.557 23.502,33.809 24.106,33.206C24.709,32.602 25.458,32.3 26.35,32.3L29.5,32.3C29.5,30.567 30.117,29.084 31.351,27.851C32.584,26.617 34.068,26 35.8,26L42.1,26C42.993,26 43.741,26.302 44.344,26.905C44.948,27.508 45.25,28.255 45.25,29.146L45.25,48.025C45.25,48.917 44.948,49.669 44.343,50.281C43.737,50.894 42.987,51.2 42.093,51.2L35.779,51.2ZM12.671,41.75C9.19,41.75 6.225,40.525 3.775,38.075C1.325,35.625 0.1,32.65 0.1,29.15C0.1,25.65 1.325,22.675 3.775,20.225C6.225,17.775 9.2,16.55 12.7,16.55L18.475,16.55C19.787,16.55 20.903,16.091 21.822,15.172C22.741,14.253 23.2,13.138 23.2,11.825C23.2,10.513 22.741,9.397 21.822,8.478C20.903,7.559 19.787,7.1 18.475,7.1L7.45,7.1C6.557,7.1 5.809,6.798 5.206,6.194C4.602,5.591 4.3,4.843 4.3,3.95C4.3,3.058 4.602,2.309 5.206,1.706C5.809,1.102 6.557,0.8 7.45,0.8L18.475,0.8C21.567,0.8 24.177,1.865 26.306,3.994C28.435,6.123 29.5,8.733 29.5,11.825C29.5,14.917 28.435,17.527 26.306,19.656C24.177,21.785 21.567,22.85 18.475,22.85L12.7,22.85C10.967,22.85 9.484,23.469 8.251,24.706C7.017,25.943 6.4,27.431 6.4,29.168C6.4,30.906 7.017,32.388 8.251,33.613C9.484,34.84 10.967,35.453 12.7,35.453L15.85,35.453C16.742,35.453 17.491,35.752 18.094,36.352C18.698,36.952 19,37.696 19,38.582C19,39.469 18.697,40.219 18.09,40.831C17.484,41.444 16.733,41.75 15.836,41.75L12.671,41.75Z" fill="#FFCC80"/>
</svg>
