<svg width="28" height="28" viewBox="0 0 28 28" fill="none" xmlns="http://www.w3.org/2000/svg" xmlns:xlink="http://www.w3.org/1999/xlink">
<path d="M3,25L5.125,25L20.75,9.375L18.625,7.25L3,22.875L3,25ZM1.507,28C1.086,28 0.729,27.857 0.438,27.571C0.146,27.285 0,26.931 0,26.507L0,22.889C0,22.491 0.069,22.111 0.208,21.75C0.347,21.389 0.569,21.056 0.875,20.75L20.75,0.875C21.056,0.569 21.387,0.347 21.743,0.208C22.1,0.069 22.475,0 22.868,0C23.262,0 23.639,0.069 24,0.208C24.361,0.347 24.694,0.569 25,0.875L27.125,3C27.431,3.306 27.653,3.639 27.792,4C27.931,4.361 28,4.73 28,5.106C28,5.507 27.93,5.89 27.791,6.253C27.651,6.617 27.429,6.949 27.125,7.25L7.25,27.125C6.944,27.431 6.612,27.653 6.252,27.792C5.892,27.931 5.514,28 5.117,28L1.507,28ZM19.669,8.331L18.625,7.25L20.75,9.375L19.669,8.331Z" fill="#FFCC80"/>
</svg>
