<svg width="28" height="28" viewBox="0 0 28 28" fill="none" xmlns="http://www.w3.org/2000/svg" xmlns:xlink="http://www.w3.org/1999/xlink">
<path d="M14,16.8L4.2,26.6C3.833,26.967 3.366,27.15 2.8,27.15C2.233,27.15 1.766,26.967 1.4,26.6C1.033,26.233 0.85,25.767 0.85,25.2C0.85,24.633 1.033,24.167 1.4,23.8L11.2,14L1.4,4.2C1.033,3.833 0.85,3.367 0.85,2.8C0.85,2.233 1.033,1.767 1.4,1.4C1.766,1.033 2.233,0.85 2.8,0.85C3.366,0.85 3.833,1.033 4.2,1.4L14,11.2L23.8,1.4C24.166,1.033 24.633,0.85 25.2,0.85C25.766,0.85 26.233,1.033 26.6,1.4C26.966,1.767 27.15,2.233 27.15,2.8C27.15,3.367 26.966,3.833 26.6,4.2L16.8,14L26.6,23.8C26.966,24.167 27.15,24.633 27.15,25.2C27.15,25.767 26.966,26.233 26.6,26.6C26.233,26.967 25.766,27.15 25.2,27.15C24.633,27.15 24.166,26.967 23.8,26.6L14,16.8Z" fill="#FFFFFF"/>
</svg>
