<svg width="42" height="42" viewBox="0 0 42 42" fill="none" xmlns="http://www.w3.org/2000/svg" xmlns:xlink="http://www.w3.org/1999/xlink">
<path d="M20.364,40.72C17.581,40.72 14.952,40.186 12.474,39.117C9.997,38.048 7.834,36.589 5.985,34.739C4.135,32.89 2.676,30.727 1.607,28.25C0.538,25.772 0.004,23.143 0.004,20.36C0.004,17.544 0.538,14.905 1.607,12.445C2.676,9.985 4.135,7.83 5.985,5.981C7.834,4.131 9.997,2.672 12.474,1.603C14.952,0.534 17.581,0 20.364,0C23.18,0 25.819,0.534 28.279,1.603C30.739,2.672 32.894,4.131 34.743,5.981C36.593,7.83 38.052,9.985 39.121,12.445C40.19,14.905 40.724,17.544 40.724,20.36C40.724,23.143 40.19,25.772 39.121,28.25C38.052,30.727 36.593,32.89 34.743,34.739C32.894,36.589 30.739,38.048 28.279,39.117C25.819,40.186 23.18,40.72 20.364,40.72ZM20.364,36.546C21.246,35.325 22.01,34.052 22.655,32.729C23.299,31.405 23.825,29.997 24.232,28.504L16.496,28.504C16.903,29.997 17.429,31.405 18.073,32.729C18.718,34.052 19.482,35.325 20.364,36.546ZM15.07,35.732C14.46,34.612 13.925,33.45 13.467,32.245C13.009,31.041 12.627,29.793 12.322,28.504L6.316,28.504C7.3,30.201 8.53,31.677 10.006,32.932C11.482,34.188 13.17,35.121 15.07,35.732ZM25.658,35.732C27.558,35.121 29.246,34.188 30.722,32.932C32.198,31.677 33.428,30.201 34.412,28.504L28.406,28.504C28.101,29.793 27.719,31.041 27.261,32.245C26.803,33.45 26.268,34.612 25.658,35.732ZM4.585,24.432L11.507,24.432C11.406,23.753 11.329,23.083 11.278,22.421C11.227,21.76 11.202,21.073 11.202,20.36C11.202,19.647 11.227,18.96 11.278,18.299C11.329,17.637 11.406,16.967 11.507,16.288L4.585,16.288C4.415,16.967 4.288,17.637 4.203,18.299C4.118,18.96 4.076,19.647 4.076,20.36C4.076,21.073 4.118,21.76 4.203,22.421C4.288,23.083 4.415,23.753 4.585,24.432ZM15.579,24.432L25.149,24.432C25.25,23.753 25.327,23.083 25.378,22.421C25.429,21.76 25.454,21.073 25.454,20.36C25.454,19.647 25.429,18.96 25.378,18.299C25.327,17.637 25.25,16.967 25.149,16.288L15.579,16.288C15.478,16.967 15.401,17.637 15.35,18.299C15.299,18.96 15.274,19.647 15.274,20.36C15.274,21.073 15.299,21.76 15.35,22.421C15.401,23.083 15.478,23.753 15.579,24.432ZM29.221,24.432L36.143,24.432C36.313,23.753 36.44,23.083 36.525,22.421C36.61,21.76 36.652,21.073 36.652,20.36C36.652,19.647 36.61,18.96 36.525,18.299C36.44,17.637 36.313,16.967 36.143,16.288L29.221,16.288C29.322,16.967 29.399,17.637 29.45,18.299C29.501,18.96 29.526,19.647 29.526,20.36C29.526,21.073 29.501,21.76 29.45,22.421C29.399,23.083 29.322,23.753 29.221,24.432ZM28.406,12.216L34.412,12.216C33.428,10.519 32.198,9.043 30.722,7.788C29.246,6.532 27.558,5.599 25.658,4.988C26.268,6.108 26.803,7.27 27.261,8.475C27.719,9.679 28.101,10.927 28.406,12.216ZM16.496,12.216L24.232,12.216C23.825,10.723 23.299,9.315 22.655,7.991C22.01,6.668 21.246,5.395 20.364,4.174C19.482,5.395 18.718,6.668 18.073,7.991C17.429,9.315 16.903,10.723 16.496,12.216ZM6.316,12.216L12.322,12.216C12.627,10.927 13.009,9.679 13.467,8.475C13.925,7.27 14.46,6.108 15.07,4.988C13.17,5.599 11.482,6.532 10.006,7.788C8.53,9.043 7.3,10.519 6.316,12.216Z" fill="#FFFFFF"/>
</svg>
