<svg width="38" height="38" viewBox="0 0 38 38" fill="none" xmlns="http://www.w3.org/2000/svg" xmlns:xlink="http://www.w3.org/1999/xlink">
<path d="M15.588,24.73L24.3,19.135C24.728,18.863 24.942,18.485 24.942,18.002C24.942,17.519 24.728,17.14 24.3,16.866L15.588,11.27C15.14,10.962 14.68,10.937 14.208,11.196C13.736,11.454 13.5,11.857 13.5,12.404L13.5,23.596C13.5,24.143 13.736,24.546 14.208,24.804C14.68,25.063 15.14,25.038 15.588,24.73ZM18.004,37C15.376,37 12.905,36.501 10.593,35.504C8.281,34.507 6.269,33.153 4.559,31.444C2.849,29.734 1.495,27.723 0.496,25.412C-0.501,23.101 -1,20.631 -1,18.004C-1,15.376 -0.501,12.905 0.496,10.593C1.493,8.281 2.847,6.269 4.557,4.559C6.266,2.849 8.277,1.495 10.588,0.496C12.899,-0.501 15.369,-1 17.996,-1C20.625,-1 23.095,-0.501 25.407,0.496C27.719,1.493 29.731,2.847 31.441,4.556C33.151,6.266 34.506,8.277 35.504,10.588C36.501,12.899 37,15.369 37,17.996C37,20.625 36.501,23.095 35.504,25.407C34.507,27.719 33.153,29.731 31.444,31.441C29.734,33.151 27.723,34.506 25.412,35.504C23.101,36.501 20.631,37 18.004,37Z" fill="#FFFFFF"/>
</svg>
