<svg width="24" height="14" viewBox="0 0 24 14" fill="none" xmlns="http://www.w3.org/2000/svg" xmlns:xlink="http://www.w3.org/1999/xlink">
<path d="M12,13.95C11.733,13.95 11.483,13.908 11.25,13.825C11.016,13.742 10.8,13.6 10.6,13.4L1.4,4.2C1.033,3.833 0.85,3.367 0.85,2.8C0.85,2.233 1.033,1.767 1.4,1.4C1.766,1.033 2.233,0.85 2.8,0.85C3.366,0.85 3.833,1.033 4.2,1.4L12,9.2L19.8,1.4C20.166,1.033 20.633,0.85 21.2,0.85C21.766,0.85 22.233,1.033 22.6,1.4C22.966,1.767 23.15,2.233 23.15,2.8C23.15,3.367 22.966,3.833 22.6,4.2L13.4,13.4C13.2,13.6 12.983,13.742 12.75,13.825C12.516,13.908 12.266,13.95 12,13.95Z" fill="#6F6F71"/>
</svg>
