<svg width="70" height="68" viewBox="0 0 70 68" fill="none" xmlns="http://www.w3.org/2000/svg" xmlns:xlink="http://www.w3.org/1999/xlink">
<path d="M64.847,62.335C64.847,59.422 59.532,51.281 59.532,51.281C59.532,51.281 54.137,59.422 54.137,62.335C54.137,65.242 56.536,67.6 59.493,67.6C62.448,67.6 64.847,65.242 64.847,62.335ZM26.419,16.719L15.709,16.719L15.709,6.162L18.629,6.162L18.629,0.4L-0.85,0.4L-0.85,6.162L2.072,6.162L2.072,22.48C2.072,26.722 5.56,30.159 9.863,30.159L26.419,30.159L26.419,33.04L32.264,33.04L32.264,13.841L26.419,13.841L26.419,16.719ZM66.347,40.719L66.347,24.401C66.347,20.16 62.86,16.721 58.562,16.721L42.003,16.721L42.003,13.843L36.158,13.843L36.158,33.043L42.003,33.043L42.003,30.161L52.714,30.161L52.714,40.719L49.797,40.719L49.797,46.48L69.272,46.48L69.272,40.719L66.347,40.719Z" fill="#FFCC80"/>
</svg>
