<svg width="28" height="24" viewBox="0 0 28 24" fill="none" xmlns="http://www.w3.org/2000/svg" xmlns:xlink="http://www.w3.org/1999/xlink">
<path d="M24.01,16.5C23.587,16.5 23.229,16.357 22.938,16.071C22.646,15.785 22.5,15.431 22.5,15.009C22.5,14.586 22.643,14.229 22.93,13.938C23.216,13.646 23.571,13.5 23.995,13.5L25.49,13.5C25.913,13.5 26.271,13.643 26.562,13.929C26.854,14.215 27,14.569 27,14.991C27,15.414 26.857,15.771 26.57,16.063C26.284,16.354 25.929,16.5 25.505,16.5L24.01,16.5ZM24.01,22.5C23.587,22.5 23.229,22.357 22.938,22.071C22.646,21.785 22.5,21.431 22.5,21.009C22.5,20.586 22.643,20.229 22.93,19.938C23.216,19.646 23.571,19.5 23.995,19.5L25.49,19.5C25.913,19.5 26.271,19.643 26.562,19.929C26.854,20.215 27,20.569 27,20.991C27,21.414 26.857,21.771 26.57,22.062C26.284,22.354 25.929,22.5 25.505,22.5L24.01,22.5ZM15.99,24C15.163,24 14.457,23.706 13.871,23.119C13.285,22.531 12.992,21.825 12.992,21L11.496,21C11.072,21 10.717,20.856 10.43,20.569C10.143,20.281 10,19.925 10,19.5L10,16.5C10,16.075 10.144,15.719 10.431,15.431C10.719,15.144 11.075,15 11.5,15L13,15C13,14.175 13.294,13.469 13.881,12.881C14.469,12.294 15.175,12 16,12L19,12C19.425,12 19.781,12.144 20.069,12.431C20.356,12.718 20.5,13.074 20.5,13.498L20.5,22.488C20.5,22.913 20.356,23.271 20.068,23.562C19.78,23.854 19.423,24 18.997,24L15.99,24ZM4.986,19.5C3.329,19.5 1.917,18.917 0.75,17.75C-0.417,16.583 -1,15.167 -1,13.5C-1,11.833 -0.417,10.417 0.75,9.25C1.917,8.083 3.333,7.5 5,7.5L7.75,7.5C8.375,7.5 8.906,7.281 9.344,6.844C9.781,6.406 10,5.875 10,5.25C10,4.625 9.781,4.094 9.344,3.656C8.906,3.219 8.375,3 7.75,3L2.5,3C2.075,3 1.719,2.856 1.431,2.569C1.144,2.281 1,1.925 1,1.5C1,1.075 1.144,0.719 1.431,0.431C1.719,0.144 2.075,0 2.5,0L7.75,0C9.222,0 10.465,0.507 11.479,1.521C12.493,2.535 13,3.778 13,5.25C13,6.722 12.493,7.965 11.479,8.979C10.465,9.993 9.222,10.5 7.75,10.5L5,10.5C4.175,10.5 3.469,10.795 2.881,11.384C2.294,11.973 2,12.681 2,13.509C2,14.336 2.294,15.042 2.881,15.625C3.469,16.209 4.175,16.501 5,16.501L6.5,16.501C6.925,16.501 7.281,16.644 7.569,16.93C7.856,17.215 8,17.569 8,17.992C8,18.414 7.856,18.771 7.567,19.063C7.278,19.354 6.92,19.5 6.493,19.5L4.986,19.5Z" fill="#FFCC80"/>
</svg>
