<svg width="30" height="24" viewBox="0 0 30 24" fill="none" xmlns="http://www.w3.org/2000/svg" xmlns:xlink="http://www.w3.org/1999/xlink">
<path d="M25.944,16.5C25.52,16.5 25.163,16.357 24.871,16.071C24.579,15.785 24.434,15.431 24.434,15.009C24.434,14.586 24.577,14.229 24.863,13.938C25.15,13.646 25.505,13.5 25.929,13.5L27.423,13.5C27.847,13.5 28.204,13.643 28.496,13.929C28.788,14.215 28.934,14.569 28.934,14.991C28.934,15.414 28.79,15.771 28.504,16.063C28.217,16.354 27.862,16.5 27.439,16.5L25.944,16.5ZM25.944,22.5C25.52,22.5 25.163,22.357 24.871,22.071C24.579,21.785 24.434,21.431 24.434,21.009C24.434,20.586 24.577,20.229 24.863,19.938C25.15,19.646 25.505,19.5 25.929,19.5L27.423,19.5C27.847,19.5 28.204,19.643 28.496,19.929C28.788,20.215 28.934,20.569 28.934,20.991C28.934,21.414 28.79,21.771 28.504,22.062C28.217,22.354 27.862,22.5 27.439,22.5L25.944,22.5ZM17.924,24C17.097,24 16.391,23.706 15.805,23.119C15.219,22.531 14.926,21.825 14.926,21L13.43,21C13.006,21 12.651,20.856 12.364,20.569C12.077,20.281 11.934,19.925 11.934,19.5L11.934,16.5C11.934,16.075 12.077,15.719 12.365,15.431C12.652,15.144 13.009,15 13.434,15L14.934,15C14.934,14.175 15.227,13.469 15.815,12.881C16.402,12.294 17.109,12 17.934,12L20.934,12C21.359,12 21.715,12.144 22.002,12.431C22.29,12.718 22.434,13.074 22.434,13.498L22.434,22.488C22.434,22.913 22.29,23.271 22.002,23.562C21.713,23.854 21.356,24 20.93,24L17.924,24ZM6.92,19.5C5.262,19.5 3.85,18.917 2.684,17.75C1.517,16.583 0.934,15.167 0.934,13.5C0.934,11.833 1.517,10.417 2.684,9.25C3.85,8.083 5.267,7.5 6.934,7.5L9.684,7.5C10.309,7.5 10.84,7.281 11.277,6.844C11.715,6.406 11.934,5.875 11.934,5.25C11.934,4.625 11.715,4.094 11.277,3.656C10.84,3.219 10.309,3 9.684,3L4.434,3C4.009,3 3.652,2.856 3.365,2.569C3.077,2.281 2.934,1.925 2.934,1.5C2.934,1.075 3.077,0.719 3.365,0.431C3.652,0.144 4.009,0 4.434,0L9.684,0C11.156,0 12.399,0.507 13.413,1.521C14.427,2.535 14.934,3.778 14.934,5.25C14.934,6.722 14.427,7.965 13.413,8.979C12.399,9.993 11.156,10.5 9.684,10.5L6.934,10.5C6.109,10.5 5.402,10.795 4.815,11.384C4.227,11.973 3.934,12.681 3.934,13.509C3.934,14.336 4.227,15.042 4.815,15.625C5.402,16.209 6.109,16.501 6.934,16.501L8.434,16.501C8.859,16.501 9.215,16.644 9.502,16.93C9.79,17.215 9.934,17.569 9.934,17.992C9.934,18.414 9.789,18.771 9.5,19.063C9.212,19.354 8.854,19.5 8.427,19.5L6.92,19.5Z" fill="#F0B761"/>
</svg>
