<svg width="14" height="24" viewBox="0 0 14 24" fill="none" xmlns="http://www.w3.org/2000/svg" xmlns:xlink="http://www.w3.org/1999/xlink">
<path d="M5.6,12L13.4,19.8C13.767,20.167 13.95,20.633 13.95,21.2C13.95,21.767 13.767,22.233 13.4,22.6C13.033,22.967 12.567,23.15 12,23.15C11.433,23.15 10.967,22.967 10.6,22.6L1.4,13.4C1.2,13.2 1.058,12.983 0.975,12.75C0.892,12.517 0.85,12.267 0.85,12C0.85,11.733 0.892,11.483 0.975,11.25C1.058,11.017 1.2,10.8 1.4,10.6L10.6,1.4C10.967,1.033 11.433,0.85 12,0.85C12.567,0.85 13.033,1.033 13.4,1.4C13.767,1.767 13.95,2.233 13.95,2.8C13.95,3.367 13.767,3.833 13.4,4.2L5.6,12Z" fill="#FFFFFF"/>
</svg>
