<svg width="28" height="28" viewBox="0 0 28 28" fill="none" xmlns="http://www.w3.org/2000/svg" xmlns:xlink="http://www.w3.org/1999/xlink">
<path d="M3,28C2.175,28 1.469,27.706 0.881,27.119C0.294,26.531 0,25.825 0,25L0,3C0,2.175 0.294,1.469 0.881,0.881C1.469,0.294 2.175,0 3,0L25,0C25.825,0 26.531,0.294 27.119,0.881C27.706,1.469 28,2.175 28,3L28,25C28,25.825 27.706,26.531 27.119,27.119C26.531,27.706 25.825,28 25,28L3,28ZM3,25L25,25L25,3L3,3L3,25ZM7.5,22L16.5,22C16.925,22 17.281,21.857 17.569,21.571C17.856,21.285 18,20.931 18,20.509C18,20.086 17.856,19.729 17.569,19.438C17.281,19.146 16.925,19 16.5,19L7.5,19C7.075,19 6.719,19.143 6.431,19.429C6.144,19.715 6,20.069 6,20.491C6,20.914 6.144,21.271 6.431,21.562C6.719,21.854 7.075,22 7.5,22ZM7.5,15.5L20.5,15.5C20.925,15.5 21.281,15.357 21.569,15.071C21.856,14.785 22,14.431 22,14.009C22,13.586 21.856,13.229 21.569,12.938C21.281,12.646 20.925,12.5 20.5,12.5L7.5,12.5C7.075,12.5 6.719,12.643 6.431,12.929C6.144,13.215 6,13.569 6,13.991C6,14.414 6.144,14.771 6.431,15.063C6.719,15.354 7.075,15.5 7.5,15.5ZM7.5,9L20.5,9C20.925,9 21.281,8.857 21.569,8.571C21.856,8.285 22,7.931 22,7.509C22,7.086 21.856,6.729 21.569,6.438C21.281,6.146 20.925,6 20.5,6L7.5,6C7.075,6 6.719,6.143 6.431,6.429C6.144,6.715 6,7.069 6,7.491C6,7.914 6.144,8.271 6.431,8.563C6.719,8.854 7.075,9 7.5,9Z" fill="#FFCC80"/>
</svg>
