<svg width="64" height="64" viewBox="0 0 64 64" fill="none" xmlns="http://www.w3.org/2000/svg" xmlns:xlink="http://www.w3.org/1999/xlink">
<path d="M48.2,3.144L59.328,14.744L59.328,58.856L17.758,58.856L17.758,59L59.47,59L59.47,14.89L48.2,3.144Z" fill="#909090"/>
<path d="M48.062,3L17.616,3L17.616,58.856L59.328,58.856L59.328,14.746L48.062,3Z" fill="#F4F4F4"/>
<path d="M17.31,6L4.53,6L4.53,19.654L44.73,19.654L44.73,6L17.31,6Z" fill="#7A7B7C"/>
<rect  x="4.79" y="5.758" width="40.154" height="13.664" fill="#DD2025"/>
<path d="M18.104,8.068L15.49,8.068L15.49,17.668L17.546,17.668L17.546,14.43L18,14.456C18.441,14.45 18.879,14.371 19.294,14.222C19.659,14.098 19.995,13.9 20.28,13.64C20.572,13.395 20.802,13.084 20.95,12.732C21.152,12.15 21.224,11.53 21.16,10.916C21.149,10.478 21.072,10.044 20.932,9.628C20.806,9.328 20.619,9.057 20.382,8.833C20.146,8.609 19.865,8.437 19.558,8.328C19.293,8.23 19.019,8.16 18.74,8.12C18.529,8.086 18.316,8.068 18.102,8.068M17.724,12.656L17.546,12.656L17.546,9.696L17.932,9.696C18.102,9.684 18.273,9.71 18.432,9.773C18.591,9.835 18.734,9.933 18.85,10.058C19.091,10.38 19.219,10.772 19.216,11.174C19.216,11.666 19.216,12.112 18.772,12.426C18.452,12.602 18.088,12.683 17.724,12.656ZM25.066,8.042C24.844,8.042 24.628,8.058 24.476,8.064L24,8.076L22.44,8.076L22.44,17.676L24.276,17.676C24.978,17.694 25.676,17.575 26.332,17.326C26.86,17.117 27.328,16.78 27.692,16.344C28.049,15.906 28.304,15.395 28.438,14.846C28.596,14.226 28.672,13.588 28.666,12.948C28.705,12.192 28.647,11.435 28.492,10.694C28.344,10.149 28.07,9.647 27.692,9.228C27.396,8.889 27.031,8.616 26.622,8.428C26.272,8.266 25.903,8.146 25.524,8.072C25.373,8.047 25.221,8.036 25.068,8.038M24.704,15.912L24.504,15.912L24.504,9.784L24.53,9.784C24.942,9.736 25.36,9.811 25.73,9.998C26.001,10.215 26.222,10.488 26.378,10.798C26.546,11.125 26.643,11.483 26.662,11.85C26.68,12.29 26.662,12.65 26.662,12.948C26.669,13.291 26.647,13.635 26.596,13.974C26.533,14.322 26.419,14.659 26.258,14.974C26.076,15.268 25.827,15.514 25.532,15.694C25.285,15.854 24.993,15.929 24.7,15.906M34.86,8.076L30,8.076L30,17.676L32.056,17.676L32.056,13.868L34.656,13.868L34.656,12.084L32.056,12.084L32.056,9.86L34.856,9.86L34.856,8.076Z" fill="#464648"/>
<path d="M43.562,39.51C43.562,39.51 49.938,38.354 49.938,40.532C49.938,42.71 45.988,41.824 43.562,39.51ZM38.848,39.676C37.835,39.899 36.848,40.227 35.902,40.654L36.702,38.854C37.502,37.054 38.332,34.6 38.332,34.6C39.284,36.208 40.395,37.717 41.648,39.104C40.705,39.245 39.77,39.437 38.848,39.68L38.848,39.676ZM36.324,26.676C36.324,24.778 36.938,24.26 37.416,24.26C37.894,24.26 38.432,24.49 38.45,26.138C38.294,27.795 37.947,29.429 37.416,31.006C36.686,29.683 36.309,28.193 36.322,26.682L36.324,26.676ZM27.026,47.708C25.07,46.538 31.128,42.936 32.226,42.82C32.22,42.822 29.074,48.932 27.026,47.708ZM51.8,40.79C51.78,40.59 51.6,38.376 47.66,38.47C46.018,38.441 44.376,38.557 42.754,38.816C41.182,37.233 39.828,35.448 38.73,33.506C39.422,31.505 39.841,29.419 39.976,27.306C39.918,24.906 39.344,23.53 37.504,23.55C35.664,23.57 35.396,25.18 35.638,27.576C35.875,29.186 36.322,30.758 36.968,32.252C36.968,32.252 36.118,34.898 34.994,37.53C33.87,40.162 33.102,41.542 33.102,41.542C31.147,42.178 29.307,43.123 27.652,44.342C26.004,45.876 25.334,47.054 26.202,48.232C26.95,49.248 29.568,49.478 31.908,46.412C33.149,44.827 34.285,43.162 35.308,41.428C35.308,41.428 38.876,40.45 39.986,40.182C41.096,39.914 42.438,39.702 42.438,39.702C42.438,39.702 45.696,42.98 48.838,42.864C51.98,42.748 51.828,40.986 51.808,40.794Z" fill="#DD2025"/>
<path d="M47.908,3.154L47.908,14.9L59.174,14.9L47.908,3.154Z" fill="#909090"/>
<path d="M48.062,3L48.062,14.746L59.328,14.746L48.062,3Z" fill="#F4F4F4"/>
<path d="M17.95,7.914L15.336,7.914L15.336,17.514L17.4,17.514L17.4,14.278L17.856,14.304C18.297,14.298 18.735,14.219 19.15,14.07C19.515,13.946 19.851,13.748 20.136,13.488C20.426,13.242 20.654,12.931 20.8,12.58C21.003,11.997 21.074,11.377 21.01,10.764C20.999,10.326 20.922,9.892 20.782,9.476C20.656,9.176 20.469,8.905 20.232,8.681C19.996,8.457 19.715,8.285 19.408,8.176C19.142,8.077 18.867,8.007 18.586,7.966C18.375,7.932 18.162,7.914 17.948,7.914M17.57,12.502L17.392,12.502L17.392,9.542L17.78,9.542C17.95,9.53 18.121,9.556 18.28,9.619C18.439,9.681 18.582,9.779 18.698,9.904C18.939,10.226 19.067,10.618 19.064,11.02C19.064,11.512 19.064,11.958 18.62,12.272C18.3,12.448 17.936,12.527 17.572,12.5M24.912,7.888C24.69,7.888 24.474,7.904 24.322,7.91L23.852,7.922L22.292,7.922L22.292,17.522L24.128,17.522C24.83,17.54 25.528,17.421 26.184,17.172C26.712,16.963 27.18,16.626 27.544,16.19C27.901,15.752 28.156,15.241 28.29,14.692C28.448,14.072 28.524,13.434 28.518,12.794C28.557,12.038 28.499,11.281 28.344,10.54C28.196,9.995 27.922,9.493 27.544,9.074C27.248,8.735 26.883,8.462 26.474,8.274C26.124,8.112 25.755,7.992 25.376,7.918C25.225,7.893 25.073,7.882 24.92,7.884M24.556,15.758L24.356,15.758L24.356,9.63L24.382,9.63C24.794,9.582 25.212,9.657 25.582,9.844C25.853,10.061 26.074,10.334 26.23,10.644C26.398,10.971 26.495,11.329 26.514,11.696C26.532,12.136 26.514,12.496 26.514,12.794C26.521,13.137 26.499,13.481 26.448,13.82C26.385,14.168 26.271,14.505 26.11,14.82C25.928,15.114 25.679,15.36 25.384,15.54C25.137,15.7 24.845,15.775 24.552,15.752M34.706,7.922L29.846,7.922L29.846,17.522L31.902,17.522L31.902,13.714L34.502,13.714L34.502,11.93L31.902,11.93L31.902,9.706L34.702,9.706L34.702,7.922Z" fill="#FFFFFF"/>
</svg>
