<svg width="16" height="16" viewBox="0 0 16 16" fill="none" xmlns="http://www.w3.org/2000/svg">
<path id="Vector" fill-rule="evenodd" clip-rule="evenodd" d="M8.43429 0.465345C10.2916 0.556627 12.0223 1.32254 13.3442 2.6453C14.7542 4.05619 15.5303 5.93163 15.5295 7.92609C15.5279 12.0418 12.1773 15.3906 8.06133 15.3906C6.51351 15.3906 5.28352 14.915 4.48932 14.482L0.530273 15.52L1.58981 11.6519C0.936252 10.5199 0.592355 9.23582 0.592894 7.92016C0.594547 3.80454 3.94481 0.456116 8.06122 0.456116L8.43429 0.465345ZM4.67273 13.1307L4.89943 13.2651C5.85248 13.8304 6.94492 14.1295 8.05878 14.1299H8.06129C11.4826 14.1299 14.2672 11.3466 14.2686 7.92566C14.2692 6.26789 13.6242 4.7091 12.4522 3.5364C11.2802 2.36363 9.72174 1.7174 8.06377 1.71686C4.63982 1.71686 1.8552 4.49985 1.85384 7.92059C1.85337 9.09293 2.18153 10.2346 2.80289 11.2224L2.95048 11.4572L2.32341 13.7466L4.67273 13.1307ZM11.8237 9.70113C11.7771 9.62328 11.6527 9.57663 11.4661 9.48327C11.2795 9.3899 10.3621 8.9387 10.191 8.8764C10.02 8.81424 9.89556 8.78314 9.77118 8.9698C9.6468 9.15649 9.28918 9.57663 9.18028 9.70113C9.07146 9.82559 8.9626 9.84118 8.77603 9.74781C8.58942 9.65448 7.98814 9.45748 7.27538 8.82206C6.72063 8.32748 6.34612 7.71673 6.23726 7.53001C6.12844 7.34331 6.22565 7.24233 6.31907 7.14936C6.40303 7.06577 6.50571 6.9315 6.59901 6.82259C6.69232 6.71371 6.72339 6.63586 6.78562 6.51143C6.84781 6.38693 6.8167 6.27805 6.77006 6.18469C6.72339 6.09129 6.35021 5.17323 6.19472 4.79977C6.04322 4.43611 5.88937 4.48534 5.77484 4.4796C5.66612 4.47421 5.5416 4.47303 5.41722 4.47303C5.2928 4.47303 5.09064 4.51967 4.91959 4.70644C4.74854 4.89313 4.26647 5.34441 4.26647 6.2624C4.26647 7.1805 4.93515 8.06732 5.02845 8.19182C5.12175 8.31635 6.34429 10.2002 8.21621 11.0081C8.66142 11.2003 9.00902 11.315 9.28002 11.401C9.72706 11.543 10.1338 11.523 10.4554 11.4749C10.8139 11.4214 11.5594 11.0237 11.7149 10.5881C11.8704 10.1523 11.8704 9.77891 11.8237 9.70113Z" fill="white"/>
</svg>
