<svg width="21" height="20" viewBox="0 0 21 20" fill="none" xmlns="http://www.w3.org/2000/svg">
<g id="Icon/Small/Outline/Contact">
<path id="Vector" d="M16.1458 16.9792C14.4653 16.8542 12.8715 16.441 11.3646 15.7396C9.85763 15.0382 8.50693 14.0903 7.31249 12.8958C6.11804 11.7014 5.17707 10.3542 4.48957 8.85417C3.80207 7.35417 3.38888 5.76389 3.24999 4.08333C3.22221 3.79167 3.30756 3.53819 3.50603 3.32292C3.70436 3.10764 3.95235 3 4.24999 3H7.08332C7.31943 3 7.52429 3.07292 7.69791 3.21875C7.87152 3.36458 7.9861 3.54861 8.04166 3.77083L8.54166 5.97917C8.56943 6.15972 8.55902 6.33333 8.51041 6.5C8.46179 6.66667 8.38193 6.80556 8.27082 6.91667L6.24999 8.95833C6.52777 9.48611 6.84721 9.99306 7.20832 10.4792C7.56943 10.9653 7.972 11.4235 8.41603 11.8538C8.83311 12.2707 9.27777 12.6563 9.74999 13.0104C10.2222 13.3646 10.7222 13.6806 11.25 13.9583L13.3125 11.9583C13.4236 11.8472 13.5625 11.7674 13.7292 11.7188C13.8958 11.6701 14.0694 11.6597 14.25 11.6875L16.4792 12.1667C16.7153 12.2361 16.9028 12.3576 17.0417 12.5313C17.1805 12.7049 17.25 12.9097 17.25 13.1458V15.9792C17.25 16.2768 17.1389 16.5248 16.9167 16.7231C16.6944 16.9216 16.4375 17.0069 16.1458 16.9792ZM5.56249 7.5L7.02082 6.04167L6.66332 4.5H4.79166C4.8611 5.02778 4.95832 5.53819 5.08332 6.03125C5.20832 6.52431 5.36804 7.01389 5.56249 7.5ZM12.7292 14.6667C13.2167 14.8644 13.7135 15.0215 14.2198 15.1379C14.726 15.2543 15.2361 15.3472 15.75 15.4167V13.5417L14.1875 13.2083L12.7292 14.6667Z" fill="white"/>
</g>
</svg>
