<svg width="48" height="48" viewBox="0 0 48 48" fill="none" xmlns="http://www.w3.org/2000/svg">
<g id="Icon/Large/Outline/Upload">
<path id="Vector" d="M22.1999 26.1L20.5999 27.7C20.2332 28.0666 19.8054 28.25 19.3164 28.25C18.8277 28.25 18.4056 28.0666 18.0499 27.7C17.6832 27.3333 17.4999 26.9083 17.4999 26.425C17.4999 25.9416 17.6832 25.5166 18.0499 25.15L22.7569 20.443C23.1189 20.081 23.5362 19.9 24.0089 19.9C24.4816 19.9 24.8952 20.0833 25.2499 20.45L29.9499 25.15C30.3166 25.5166 30.4999 25.9333 30.4999 26.4C30.4999 26.8666 30.3166 27.2833 29.9499 27.65C29.5832 28.0166 29.1582 28.2 28.6749 28.2C28.1916 28.2 27.7666 28.0166 27.3999 27.65L25.7999 26.1V34.8H37.1999C38.5439 34.8 39.6799 34.3371 40.6079 33.4115C41.5359 32.4855 41.9999 31.3521 41.9999 30.0115C41.9999 28.6705 41.5359 27.5333 40.6079 26.6C39.6799 25.6666 38.5439 25.2 37.1999 25.2H33.5999V21.6C33.5999 19.1666 32.6416 17.1583 30.7249 15.575C28.8082 13.9916 26.5582 13.2 23.9749 13.2C21.3916 13.2 19.1999 14.1416 17.3999 16.025C15.5999 17.9083 14.5166 20.1666 14.1499 22.8H11.9999C10.3429 22.8 8.92857 23.3866 7.7569 24.56C6.58557 25.7333 5.9999 27.15 5.9999 28.81C5.9999 30.47 6.58557 31.8833 7.7569 33.05C8.92857 34.2166 10.3429 34.8 11.9999 34.8H16.7999C17.3099 34.8 17.7374 34.9715 18.0824 35.3145C18.4274 35.6575 18.5999 36.0825 18.5999 36.5895C18.5999 37.0965 18.4274 37.525 18.0824 37.875C17.7374 38.225 17.3099 38.4 16.7999 38.4H11.9999C9.33324 38.4 7.06657 37.4583 5.1999 35.575C3.33324 33.6916 2.3999 31.4166 2.3999 28.75C2.3999 26.2166 3.25824 24.025 4.9749 22.175C6.69157 20.325 8.81657 19.3333 11.3499 19.2C12.1309 16.3416 13.6926 14.0271 16.0349 12.2565C18.3776 10.4855 21.0326 9.59998 23.9999 9.59998C27.5666 9.59998 30.6582 10.7416 33.2749 13.025C35.8916 15.3083 37.1999 18.1666 37.1999 21.6C39.5332 21.6 41.5166 22.4166 43.1499 24.05C44.7832 25.6833 45.5999 27.65 45.5999 29.95C45.5999 32.2973 44.7832 34.2925 43.1499 35.9355C41.5166 37.5785 39.5332 38.4 37.1999 38.4H25.7999C24.8099 38.4 23.9624 38.0475 23.2574 37.3425C22.5524 36.6375 22.1999 35.79 22.1999 34.8V26.1Z" fill="#FFCC80"/>
</g>
</svg>
