<svg width="40" height="40" viewBox="0 0 40 40" fill="none" xmlns="http://www.w3.org/2000/svg">
<g id="vscode-icons:file-type-pdf2">
<path id="Vector" d="M30.1249 2.59003L37.0799 9.84003V37.41H11.0986V37.5H37.1686V9.93128L30.1249 2.59003Z" fill="#909090"/>
<path id="Vector_2" d="M30.0388 2.5H11.01V37.41H37.08V9.84125L30.0388 2.5Z" fill="#F4F4F4"/>
<path id="Vector_3" d="M10.8188 4.375H2.8313V12.9088H27.9563V4.375H10.8188Z" fill="#7A7B7C"/>
<path id="Vector_4" d="M28.0899 12.7638H2.99365V4.22375H28.0899V12.7638Z" fill="#DD2025"/>
<path id="Vector_5" d="M11.3149 5.66752H9.68115V11.6675H10.9662V9.64377L11.2499 9.66002C11.5257 9.65622 11.799 9.6068 12.0587 9.51377C12.2869 9.43626 12.4967 9.31242 12.6749 9.15002C12.8576 8.99682 13.0012 8.80228 13.0937 8.58252C13.2202 8.21841 13.265 7.8309 13.2249 7.44752C13.2178 7.17359 13.1697 6.90226 13.0824 6.64252C13.0037 6.45478 12.8867 6.28554 12.7388 6.14563C12.5909 6.00572 12.4155 5.89823 12.2237 5.83002C12.0583 5.76878 11.8869 5.7252 11.7124 5.70002C11.5806 5.67855 11.4472 5.66768 11.3137 5.66752M11.0774 8.53502H10.9662V6.68502H11.2074C11.3139 6.67734 11.4207 6.69369 11.52 6.73285C11.6193 6.77201 11.7086 6.83299 11.7812 6.91127C11.9316 7.11254 12.0119 7.35753 12.0099 7.60877C12.0099 7.91627 12.0099 8.19502 11.7324 8.39127C11.5325 8.50136 11.3049 8.55213 11.0774 8.53502ZM15.6662 5.65127C15.5274 5.65127 15.3924 5.66127 15.2974 5.66502L14.9999 5.67252H14.0249V11.6725H15.1724C15.6109 11.6838 16.0474 11.6095 16.4574 11.4538C16.7875 11.3234 17.0798 11.1124 17.3074 10.84C17.5305 10.5665 17.6897 10.2466 17.7737 9.90377C17.8722 9.51618 17.9201 9.11744 17.9162 8.71752C17.9406 8.24522 17.9041 7.77173 17.8074 7.30877C17.7149 6.96838 17.5436 6.65452 17.3074 6.39252C17.1221 6.18066 16.8943 6.01028 16.6387 5.89252C16.4197 5.79102 16.1893 5.71631 15.9524 5.67002C15.8582 5.65458 15.7628 5.64747 15.6674 5.64877M15.4399 10.57H15.3149V6.74002H15.3312C15.5889 6.71022 15.8496 6.75673 16.0812 6.87377C16.2507 7.00918 16.3889 7.17977 16.4862 7.37377C16.5911 7.57794 16.6516 7.80203 16.6637 8.03127C16.6749 8.30627 16.6637 8.53127 16.6637 8.71752C16.6683 8.93206 16.6545 9.1466 16.6224 9.35877C16.5831 9.57635 16.5119 9.78695 16.4112 9.98377C16.2973 10.1673 16.1419 10.3215 15.9574 10.4338C15.8033 10.5338 15.6206 10.5803 15.4374 10.5663M21.7874 5.67252H18.7499V11.6725H20.0349V9.29252H21.6599V8.17752H20.0349V6.78752H21.7849V5.67252" fill="#464648"/>
<path id="Vector_6" d="M27.2264 25.3188C27.2264 25.3188 31.2114 24.5963 31.2114 25.9575C31.2114 27.3188 28.7426 26.765 27.2264 25.3188ZM24.2801 25.4225C23.6469 25.562 23.0298 25.7669 22.4389 26.0338L22.9389 24.9088C23.4389 23.7838 23.9576 22.25 23.9576 22.25C24.5528 23.2552 25.247 24.1982 26.0301 25.065C25.4406 25.1528 24.8564 25.273 24.2801 25.425V25.4225ZM22.7026 17.2975C22.7026 16.1113 23.0864 15.7875 23.3851 15.7875C23.6839 15.7875 24.0201 15.9313 24.0314 16.9613C23.9339 17.9969 23.717 19.0179 23.3851 20.0038C22.9289 19.1766 22.6934 18.2459 22.7014 17.3013L22.7026 17.2975ZM16.8914 30.4425C15.6689 29.7113 19.4551 27.46 20.1414 27.3875C20.1376 27.3888 18.1714 31.2075 16.8914 30.4425ZM32.3751 26.1188C32.3626 25.9938 32.2501 24.61 29.7876 24.6688C28.7612 24.6508 27.7351 24.7231 26.7214 24.885C25.7387 23.8959 24.8929 22.7798 24.2064 21.5663C24.6386 20.3154 24.9005 19.012 24.9851 17.6913C24.9489 16.1913 24.5901 15.3313 23.4401 15.3438C22.2901 15.3563 22.1226 16.3625 22.2739 17.86C22.4219 18.8664 22.7014 19.8489 23.1051 20.7825C23.1051 20.7825 22.5739 22.4363 21.8714 24.0813C21.1689 25.7263 20.6889 26.5888 20.6889 26.5888C19.4671 26.986 18.317 27.5769 17.2826 28.3388C16.2526 29.2975 15.8339 30.0338 16.3764 30.77C16.8439 31.405 18.4801 31.5488 19.9426 29.6325C20.7183 28.6418 21.4282 27.6012 22.0676 26.5175C22.0676 26.5175 24.2976 25.9063 24.9914 25.7388C25.6851 25.5713 26.5239 25.4388 26.5239 25.4388C26.5239 25.4388 28.5601 27.4875 30.5239 27.415C32.4876 27.3425 32.3926 26.2413 32.3801 26.1213" fill="#DD2025"/>
<path id="Vector_7" d="M29.9424 2.59625V9.9375H36.9836L29.9424 2.59625Z" fill="#909090"/>
<path id="Vector_8" d="M30.0388 2.5V9.84125H37.0801L30.0388 2.5Z" fill="#F4F4F4"/>
<path id="Vector_9" d="M11.2187 5.57127H9.58496V11.5713H10.875V9.54877L11.16 9.56502C11.4358 9.56122 11.709 9.5118 11.9687 9.41877C12.197 9.34126 12.4068 9.21742 12.585 9.05502C12.7663 8.9014 12.9085 8.70689 13 8.48752C13.1265 8.12341 13.1713 7.7359 13.1312 7.35252C13.1241 7.07858 13.0761 6.80725 12.9887 6.54752C12.91 6.35978 12.793 6.19054 12.6451 6.05063C12.4972 5.91072 12.3218 5.80323 12.13 5.73502C11.9638 5.67318 11.7916 5.62918 11.6162 5.60377C11.4844 5.5823 11.351 5.57143 11.2175 5.57127M10.9812 8.43877H10.87V6.58877H11.1125C11.2189 6.58109 11.3258 6.59744 11.4251 6.6366C11.5244 6.67576 11.6136 6.73673 11.6862 6.81502C11.8366 7.01629 11.917 7.26127 11.915 7.51252C11.915 7.82002 11.915 8.09877 11.6375 8.29502C11.4376 8.40511 11.21 8.45463 10.9825 8.43752M15.57 5.55502C15.4312 5.55502 15.2962 5.56502 15.2012 5.56877L14.9075 5.57627H13.9325V11.5763H15.08C15.5184 11.5875 15.9549 11.5132 16.365 11.3575C16.6951 11.2271 16.9873 11.0161 17.215 10.7438C17.438 10.4702 17.5973 10.1504 17.6812 9.80752C17.7798 9.41993 17.8277 9.02118 17.8237 8.62127C17.8482 8.14896 17.8116 7.67547 17.715 7.21252C17.6224 6.87213 17.4511 6.55827 17.215 6.29627C17.0297 6.08441 16.8018 5.91403 16.5462 5.79627C16.3272 5.69477 16.0968 5.62006 15.86 5.57377C15.7658 5.55833 15.6704 5.55122 15.575 5.55252M15.3475 10.4738H15.2225V6.64377H15.2387C15.4964 6.61397 15.7572 6.66048 15.9887 6.77752C16.1583 6.91293 16.2965 7.08352 16.3937 7.27752C16.4987 7.48169 16.5592 7.70577 16.5712 7.93502C16.5825 8.21002 16.5712 8.43502 16.5712 8.62127C16.5758 8.83581 16.562 9.05034 16.53 9.26252C16.4906 9.4801 16.4195 9.6907 16.3187 9.88752C16.2049 10.0711 16.0495 10.2252 15.865 10.3375C15.7109 10.4375 15.5281 10.4841 15.345 10.47M21.6912 5.57627H18.6537V11.5763H19.9387V9.19627H21.5637V8.08127H19.9387V6.69127H21.6887V5.57627" fill="white"/>
</g>
</svg>
